<svg id="Layer_1" data-name="Layer 1" xmlns="http://www.w3.org/2000/svg" viewBox="0 0 243.369 335.577">
  <defs>
    <style>
      .cls-1 {
        fill: #fff;
      }

      .cls-2 {
        fill: #c9232a;
      }
    </style>
  </defs>
  <title>707d6e2d-237e-49a7-beee-1c798fe38719</title>
  <g>
    <g>
      <path class="cls-1" d="M21.188,34.841v1.87H4.569V6.288H6.783V34.841Z"/>
      <path class="cls-1" d="M23.983,25.165v.409a14.494,14.494,0,0,0,.559,4.235,8.672,8.672,0,0,0,1.591,3.063,6.565,6.565,0,0,0,2.494,1.86,8.262,8.262,0,0,0,3.268.623A9.784,9.784,0,0,0,34.69,35a10.407,10.407,0,0,0,1.989-.8,10.95,10.95,0,0,0,1.279-.795,1.444,1.444,0,0,1,.688-.355.5.5,0,0,1,.43.215l.559.688a5.86,5.86,0,0,1-1.365,1.2,9.766,9.766,0,0,1-1.892.957,13.789,13.789,0,0,1-2.236.634,12.332,12.332,0,0,1-2.4.236,10.192,10.192,0,0,1-4-.763A8.481,8.481,0,0,1,24.65,34a10.131,10.131,0,0,1-1.989-3.58,15.45,15.45,0,0,1-.7-4.848,13.221,13.221,0,0,1,.656-4.246,9.723,9.723,0,0,1,1.892-3.354,8.636,8.636,0,0,1,3.032-2.2,9.973,9.973,0,0,1,4.074-.795,8.908,8.908,0,0,1,3.354.623,7.6,7.6,0,0,1,2.688,1.817,8.544,8.544,0,0,1,1.795,2.935,11.307,11.307,0,0,1,.656,4,1.14,1.14,0,0,1-.129.645.5.5,0,0,1-.43.172Zm14.276-1.312a9.205,9.205,0,0,0-.484-3.085,6.558,6.558,0,0,0-1.365-2.312,5.971,5.971,0,0,0-2.1-1.451,6.921,6.921,0,0,0-2.677-.5,8.055,8.055,0,0,0-2.967.516A6.5,6.5,0,0,0,26.4,18.5a7.419,7.419,0,0,0-1.537,2.322,10.822,10.822,0,0,0-.774,3.031Z"/>
      <path class="cls-1" d="M45.074,18.35A12.466,12.466,0,0,1,48.6,15.813a9.843,9.843,0,0,1,4.192-.859,7.653,7.653,0,0,1,3.01.548,5.56,5.56,0,0,1,2.14,1.569,6.878,6.878,0,0,1,1.279,2.473,11.378,11.378,0,0,1,.43,3.236V36.711h-.817a.736.736,0,0,1-.8-.6l-.3-2.752a22.643,22.643,0,0,1-1.752,1.548,10.513,10.513,0,0,1-1.817,1.161,9.317,9.317,0,0,1-2.042.73,10.525,10.525,0,0,1-2.408.258,7.1,7.1,0,0,1-2.128-.322,5.365,5.365,0,0,1-1.838-.989,4.791,4.791,0,0,1-1.29-1.709,5.92,5.92,0,0,1-.483-2.5,4.446,4.446,0,0,1,.774-2.516,6.348,6.348,0,0,1,2.429-2.021,16.134,16.134,0,0,1,4.247-1.376,36.78,36.78,0,0,1,6.224-.6V22.779a7.169,7.169,0,0,0-1.279-4.569,4.566,4.566,0,0,0-3.794-1.6,7.173,7.173,0,0,0-2.634.43,9.351,9.351,0,0,0-1.838.946,11.429,11.429,0,0,0-1.226.946,1.325,1.325,0,0,1-.8.43.645.645,0,0,1-.387-.107.966.966,0,0,1-.258-.279Zm12.578,8.02a40.2,40.2,0,0,0-5.257.484,15.173,15.173,0,0,0-3.633,1.021,5.429,5.429,0,0,0-2.118,1.538,3.235,3.235,0,0,0-.688,2.031,4.483,4.483,0,0,0,.354,1.859,3.626,3.626,0,0,0,.946,1.29,3.764,3.764,0,0,0,1.365.742,5.466,5.466,0,0,0,1.612.236,9.142,9.142,0,0,0,2.29-.269,8.426,8.426,0,0,0,1.935-.753A9.441,9.441,0,0,0,56.126,33.4q.774-.667,1.526-1.441Z"/>
      <path class="cls-1" d="M83.129,5.429V36.711H82.011a.588.588,0,0,1-.645-.559l-.215-3.376a11.389,11.389,0,0,1-3.312,3.074,8.09,8.09,0,0,1-4.257,1.14,7.441,7.441,0,0,1-6.149-2.73q-2.193-2.73-2.193-8.191a15.092,15.092,0,0,1,.613-4.375,10.51,10.51,0,0,1,1.795-3.526,8.493,8.493,0,0,1,2.914-2.354,8.863,8.863,0,0,1,3.988-.859,8.332,8.332,0,0,1,3.762.795,7.893,7.893,0,0,1,2.773,2.365V5.429ZM81.086,19.92a7.316,7.316,0,0,0-2.72-2.6,8.194,8.194,0,0,0-6.719-.064A6.509,6.509,0,0,0,69.273,19.2a8.751,8.751,0,0,0-1.44,3.01,14.453,14.453,0,0,0-.484,3.859q0,4.772,1.753,7.02a6.035,6.035,0,0,0,5.063,2.247,7.074,7.074,0,0,0,3.849-1.1,10.456,10.456,0,0,0,3.074-3.074Z"/>
      <path class="cls-1" d="M93.342,7.944a1.63,1.63,0,0,1-.161.72,2.169,2.169,0,0,1-.419.592,1.962,1.962,0,0,1-.6.408,1.852,1.852,0,0,1-1.462,0,1.946,1.946,0,0,1-.6-.408,1.982,1.982,0,0,1-.409-.592,1.722,1.722,0,0,1-.15-.72,1.874,1.874,0,0,1,.15-.742A1.9,1.9,0,0,1,90.1,6.59a1.932,1.932,0,0,1,.6-.409,1.852,1.852,0,0,1,1.462,0,1.947,1.947,0,0,1,.6.409,2.064,2.064,0,0,1,.419.612A1.773,1.773,0,0,1,93.342,7.944Zm-.882,7.374V36.711H90.418V15.318Z"/>
      <path class="cls-1" d="M101.705,19.06a12.121,12.121,0,0,1,3.43-2.967,8.54,8.54,0,0,1,4.332-1.118,8.048,8.048,0,0,1,3.106.559,5.715,5.715,0,0,1,2.226,1.612,7.16,7.16,0,0,1,1.333,2.537,11.523,11.523,0,0,1,.451,3.354V36.711H114.52V23.037a7.332,7.332,0,0,0-1.376-4.72,5.062,5.062,0,0,0-4.193-1.709,7.585,7.585,0,0,0-3.9,1.064,11.019,11.019,0,0,0-3.236,2.956V36.711H99.749V15.318h1.139a.571.571,0,0,1,.624.537Z"/>
      <path class="cls-1" d="M140.619,16.265v.709q0,.473-.6.581l-3.268.236a6.3,6.3,0,0,1,.924,1.827A7.186,7.186,0,0,1,138,21.812a6.955,6.955,0,0,1-.548,2.806,6.123,6.123,0,0,1-1.548,2.15,7.119,7.119,0,0,1-2.408,1.387,9.337,9.337,0,0,1-3.106.494,9.524,9.524,0,0,1-3.333-.559,4.653,4.653,0,0,0-1.43,1.214,2.3,2.3,0,0,0-.526,1.388,1.67,1.67,0,0,0,.655,1.419,4.323,4.323,0,0,0,1.721.72,15.254,15.254,0,0,0,2.429.29q1.365.064,2.785.14t2.784.27a8.849,8.849,0,0,1,2.429.677,4.376,4.376,0,0,1,1.721,1.354,3.753,3.753,0,0,1,.655,2.312,5.3,5.3,0,0,1-.666,2.559,6.78,6.78,0,0,1-1.925,2.171,10.17,10.17,0,0,1-3.042,1.517,13.141,13.141,0,0,1-4,.569,15.166,15.166,0,0,1-3.956-.462,9.434,9.434,0,0,1-2.849-1.247,5.461,5.461,0,0,1-1.73-1.817,4.4,4.4,0,0,1-.581-2.192,4.151,4.151,0,0,1,1.118-2.913,7.44,7.44,0,0,1,3.053-1.9,4.15,4.15,0,0,1-1.73-1.064,2.665,2.665,0,0,1-.655-1.9,2.867,2.867,0,0,1,.172-.946,3.911,3.911,0,0,1,.516-.979,5.252,5.252,0,0,1,.839-.913,6.382,6.382,0,0,1,1.118-.774,6.352,6.352,0,0,1-2.376-2.344,6.676,6.676,0,0,1-.85-3.418,6.935,6.935,0,0,1,.549-2.806,6.164,6.164,0,0,1,1.559-2.161,7.13,7.13,0,0,1,2.418-1.4A10.128,10.128,0,0,1,133,15.3a7.772,7.772,0,0,1,2.139.968Zm-2.235,21.887a2.4,2.4,0,0,0-.527-1.623,3.483,3.483,0,0,0-1.408-.957,8.39,8.39,0,0,0-2.031-.483q-1.151-.139-2.408-.2l-2.526-.129A19.956,19.956,0,0,1,127.1,34.5a9.9,9.9,0,0,0-1.5.742,5.434,5.434,0,0,0-1.183.957,4.255,4.255,0,0,0-.773,1.171,3.444,3.444,0,0,0,.2,3.118,4.28,4.28,0,0,0,1.419,1.4,7.931,7.931,0,0,0,2.29.936,12.755,12.755,0,0,0,3.117.344,12.1,12.1,0,0,0,3.042-.365,8.493,8.493,0,0,0,2.451-1.032,5.274,5.274,0,0,0,1.634-1.591A3.678,3.678,0,0,0,138.384,38.151Zm-8-10.9a7.048,7.048,0,0,0,2.451-.4,5.1,5.1,0,0,0,1.806-1.107,4.747,4.747,0,0,0,1.118-1.7,6.361,6.361,0,0,0-.011-4.4,4.784,4.784,0,0,0-1.14-1.709,5.093,5.093,0,0,0-1.806-1.1,7.759,7.759,0,0,0-4.838,0,5.084,5.084,0,0,0-1.806,1.1,4.648,4.648,0,0,0-1.129,1.709,6.064,6.064,0,0,0-.387,2.2,5.976,5.976,0,0,0,.387,2.193,4.671,4.671,0,0,0,1.129,1.7,5.22,5.22,0,0,0,1.806,1.107A6.889,6.889,0,0,0,130.386,27.251Z"/>
      <path class="cls-1" d="M27.7,78.711H26a.746.746,0,0,1-.495-.161,1.071,1.071,0,0,1-.3-.419L21.64,69.294H6.7L3.129,78.131a.927.927,0,0,1-.3.408.8.8,0,0,1-.516.172H.634L13.083,48.288h2.172ZM20.973,67.66,14.781,52.287a15.321,15.321,0,0,1-.624-1.806q-.129.516-.279.979a8.778,8.778,0,0,1-.323.849L7.364,67.66Z"/>
      <path class="cls-1" d="M32.132,78.711V59.555l-3.01-.193q-.6-.064-.6-.538v-.838h3.612V55.276a9.954,9.954,0,0,1,.473-3.215,6.343,6.343,0,0,1,1.333-2.312A5.46,5.46,0,0,1,36,48.363a7.393,7.393,0,0,1,2.666-.462,7.877,7.877,0,0,1,1.344.118,6.164,6.164,0,0,1,1.215.333l-.064.989a.312.312,0,0,1-.183.247,1.012,1.012,0,0,1-.4.043q-.259-.01-.667-.064a7.467,7.467,0,0,0-.946-.054,5.858,5.858,0,0,0-1.946.313,3.789,3.789,0,0,0-1.537,1,4.657,4.657,0,0,0-1,1.8,9,9,0,0,0-.355,2.72v2.645h6.944v1.526H34.2v19.2Z"/>
      <path class="cls-1" d="M47.461,62.479a13.326,13.326,0,0,1,1.129-2.333,7.378,7.378,0,0,1,1.462-1.73A6.02,6.02,0,0,1,51.9,57.329a6.514,6.514,0,0,1,2.268-.376,7.235,7.235,0,0,1,1.312.118,3.341,3.341,0,0,1,1.14.419l-.172,1.419a.416.416,0,0,1-.409.345,3.187,3.187,0,0,1-.785-.151,5.235,5.235,0,0,0-1.387-.15,5.989,5.989,0,0,0-2.2.377,5.087,5.087,0,0,0-1.72,1.128,7.225,7.225,0,0,0-1.333,1.86,17.574,17.574,0,0,0-1.043,2.548V78.711H45.5V57.318h1.1a.72.72,0,0,1,.516.15.87.87,0,0,1,.193.517Z"/>
      <path class="cls-1" d="M63.865,49.944a1.63,1.63,0,0,1-.161.72,2.17,2.17,0,0,1-.419.592,1.954,1.954,0,0,1-.6.408,1.852,1.852,0,0,1-1.462,0,1.948,1.948,0,0,1-.6-.408,1.988,1.988,0,0,1-.408-.592,1.722,1.722,0,0,1-.151-.72,1.875,1.875,0,0,1,.151-.742,1.908,1.908,0,0,1,.408-.612,1.934,1.934,0,0,1,.6-.409,1.852,1.852,0,0,1,1.462,0,1.94,1.94,0,0,1,.6.409,2.066,2.066,0,0,1,.419.612A1.773,1.773,0,0,1,63.865,49.944Zm-.881,7.374V78.711H60.941V57.318Z"/>
      <path class="cls-1" d="M84.654,60.178a2.049,2.049,0,0,1-.2.183.424.424,0,0,1-.269.075,1.073,1.073,0,0,1-.58-.29,7.38,7.38,0,0,0-.989-.634,8.431,8.431,0,0,0-1.559-.635,8.712,8.712,0,0,0-5.547.366,6.587,6.587,0,0,0-2.419,1.881,8.353,8.353,0,0,0-1.494,2.967A14.035,14.035,0,0,0,71.088,68a13.816,13.816,0,0,0,.527,4,8.491,8.491,0,0,0,1.494,2.935,6.36,6.36,0,0,0,2.343,1.817,7.327,7.327,0,0,0,3.054.623,7.925,7.925,0,0,0,2.591-.365,8.454,8.454,0,0,0,1.72-.8,7.179,7.179,0,0,0,1.064-.795,1.071,1.071,0,0,1,.645-.366.534.534,0,0,1,.431.215l.537.688a6.277,6.277,0,0,1-1.247,1.2,8.473,8.473,0,0,1-1.7.968,10.4,10.4,0,0,1-2.054.634,11.554,11.554,0,0,1-2.311.226,9.175,9.175,0,0,1-3.73-.741,8.077,8.077,0,0,1-2.9-2.15,10.052,10.052,0,0,1-1.893-3.451,16.053,16.053,0,0,1-.032-9.115,9.947,9.947,0,0,1,1.893-3.483,8.544,8.544,0,0,1,3.042-2.269,9.96,9.96,0,0,1,4.117-.806,9.638,9.638,0,0,1,3.7.666,9.132,9.132,0,0,1,2.816,1.807Z"/>
      <path class="cls-1" d="M89.944,60.35a12.459,12.459,0,0,1,3.526-2.537,9.843,9.843,0,0,1,4.192-.859,7.651,7.651,0,0,1,3.01.548,5.56,5.56,0,0,1,2.14,1.569,6.894,6.894,0,0,1,1.279,2.473,11.4,11.4,0,0,1,.43,3.236V78.711H103.7a.735.735,0,0,1-.795-.6l-.3-2.752a22.471,22.471,0,0,1-1.753,1.548,10.472,10.472,0,0,1-1.816,1.161A9.312,9.312,0,0,1,97,78.8a10.513,10.513,0,0,1-2.407.258,7.1,7.1,0,0,1-2.129-.322,5.363,5.363,0,0,1-1.838-.989,4.774,4.774,0,0,1-1.29-1.709,5.9,5.9,0,0,1-.484-2.5,4.451,4.451,0,0,1,.774-2.516,6.338,6.338,0,0,1,2.43-2.021A16.124,16.124,0,0,1,96.3,67.617a36.776,36.776,0,0,1,6.225-.6V64.779a7.169,7.169,0,0,0-1.279-4.569,4.568,4.568,0,0,0-3.795-1.6,7.173,7.173,0,0,0-2.634.43,9.356,9.356,0,0,0-1.839.946,11.357,11.357,0,0,0-1.225.946,1.326,1.326,0,0,1-.8.43.643.643,0,0,1-.387-.107.976.976,0,0,1-.259-.279Zm12.578,8.02a40.185,40.185,0,0,0-5.257.484,15.171,15.171,0,0,0-3.634,1.021,5.438,5.438,0,0,0-2.118,1.538,3.235,3.235,0,0,0-.687,2.031A4.483,4.483,0,0,0,91.18,75.3a3.62,3.62,0,0,0,.946,1.29,3.756,3.756,0,0,0,1.365.742,5.468,5.468,0,0,0,1.612.236,9.146,9.146,0,0,0,2.29-.269,8.44,8.44,0,0,0,1.935-.753,9.419,9.419,0,0,0,1.666-1.149q.775-.667,1.527-1.441Z"/>
      <path class="cls-1" d="M150.4,57.318l-7.139,21.393h-1.526c-.244,0-.408-.15-.494-.451l-5.849-17.372c-.071-.215-.136-.431-.193-.646s-.107-.43-.15-.645a8.447,8.447,0,0,1-.322,1.29L128.8,78.26a.523.523,0,0,1-.517.451h-1.462l-7.138-21.393h1.548a.746.746,0,0,1,.494.161.8.8,0,0,1,.259.354l5.4,16.878q.129.5.236.957c.071.309.129.612.172.913q.129-.451.258-.913t.3-.957l5.72-17.028a.594.594,0,0,1,.6-.473h.839a.608.608,0,0,1,.623.473L141.8,74.712q.151.5.279.946c.087.3.165.6.237.9.057-.3.118-.6.183-.9s.146-.616.247-.946l5.439-16.878a.781.781,0,0,1,.279-.376.753.753,0,0,1,.452-.14Z"/>
      <path class="cls-1" d="M158.163,49.944a1.63,1.63,0,0,1-.161.72,2.169,2.169,0,0,1-.419.592,1.962,1.962,0,0,1-.6.408,1.852,1.852,0,0,1-1.462,0,1.946,1.946,0,0,1-.6-.408,1.982,1.982,0,0,1-.409-.592,1.722,1.722,0,0,1-.15-.72,1.874,1.874,0,0,1,.15-.742,1.9,1.9,0,0,1,.409-.612,1.932,1.932,0,0,1,.6-.409,1.852,1.852,0,0,1,1.462,0,1.947,1.947,0,0,1,.6.409A2.064,2.064,0,0,1,158,49.2,1.773,1.773,0,0,1,158.163,49.944Zm-.882,7.374V78.711h-2.042V57.318Z"/>
      <path class="cls-1" d="M170.418,79.055a4.6,4.6,0,0,1-3.387-1.2,5.039,5.039,0,0,1-1.214-3.719V59.512h-3.075a.573.573,0,0,1-.387-.129.455.455,0,0,1-.15-.366v-.795l3.655-.258.516-7.654a.774.774,0,0,1,.172-.344.455.455,0,0,1,.365-.151h.968v8.171h6.751v1.526h-6.751V74.024a4.534,4.534,0,0,0,.226,1.516,2.812,2.812,0,0,0,.624,1.042,2.436,2.436,0,0,0,.935.6,3.4,3.4,0,0,0,1.161.193,3.555,3.555,0,0,0,1.333-.226,5.477,5.477,0,0,0,.968-.5,6.123,6.123,0,0,0,.666-.494.736.736,0,0,1,.409-.226.469.469,0,0,1,.344.215l.559.9a5.961,5.961,0,0,1-2.074,1.451A6.476,6.476,0,0,1,170.418,79.055Z"/>
      <path class="cls-1" d="M181.362,60.931a12.035,12.035,0,0,1,3.387-2.881,8.52,8.52,0,0,1,4.268-1.075,8.048,8.048,0,0,1,3.106.559,5.715,5.715,0,0,1,2.226,1.612,7.16,7.16,0,0,1,1.333,2.537,11.523,11.523,0,0,1,.451,3.354V78.711h-2.063V65.037a7.332,7.332,0,0,0-1.376-4.72,5.062,5.062,0,0,0-4.193-1.709,7.585,7.585,0,0,0-3.9,1.064,11.019,11.019,0,0,0-3.236,2.956V78.711H179.3V47.429h2.063Z"/>
      <path class="cls-1" d="M3.6,120.711V99.318h1.14a.571.571,0,0,1,.624.537l.193,3.1a11.15,11.15,0,0,1,2.859-2.881,6.311,6.311,0,0,1,3.634-1.1,5.183,5.183,0,0,1,3.751,1.354,7.021,7.021,0,0,1,1.9,3.763,7.473,7.473,0,0,1,1.086-2.279,6.774,6.774,0,0,1,1.6-1.6,6.468,6.468,0,0,1,1.967-.936,8,8,0,0,1,2.182-.3,7.409,7.409,0,0,1,2.86.526,5.636,5.636,0,0,1,2.15,1.559,7.168,7.168,0,0,1,1.354,2.537,11.489,11.489,0,0,1,.473,3.44v13.674H29.337V107.037a7.364,7.364,0,0,0-1.354-4.784,4.729,4.729,0,0,0-3.87-1.645,5.72,5.72,0,0,0-2.139.408,5.187,5.187,0,0,0-1.806,1.215,5.84,5.84,0,0,0-1.247,2.011,7.762,7.762,0,0,0-.462,2.795v13.674H16.394V107.037a7.881,7.881,0,0,0-1.236-4.773,4.24,4.24,0,0,0-3.623-1.655,5.53,5.53,0,0,0-3.225,1.032A9.842,9.842,0,0,0,5.665,104.5v16.211Z"/>
      <path class="cls-1" d="M46.687,98.975a10.3,10.3,0,0,1,4.117.784,8.4,8.4,0,0,1,3.064,2.226,9.866,9.866,0,0,1,1.9,3.473,16.054,16.054,0,0,1,0,9.083,9.868,9.868,0,0,1-1.9,3.462,8.3,8.3,0,0,1-3.064,2.215,11.345,11.345,0,0,1-8.234,0A8.392,8.392,0,0,1,39.5,118a9.773,9.773,0,0,1-1.914-3.462,16.054,16.054,0,0,1,0-9.083,9.772,9.772,0,0,1,1.914-3.473,8.5,8.5,0,0,1,3.075-2.226A10.3,10.3,0,0,1,46.687,98.975Zm0,20.4a7.963,7.963,0,0,0,3.343-.655,6.329,6.329,0,0,0,2.386-1.882,8.3,8.3,0,0,0,1.43-2.956,16.125,16.125,0,0,0,0-7.751,8.414,8.414,0,0,0-1.43-2.978,6.381,6.381,0,0,0-2.386-1.9,8.712,8.712,0,0,0-6.687,0,6.379,6.379,0,0,0-2.387,1.9,8.545,8.545,0,0,0-1.44,2.978,15.761,15.761,0,0,0,0,7.751,8.429,8.429,0,0,0,1.44,2.956,6.327,6.327,0,0,0,2.387,1.882A7.96,7.96,0,0,0,46.687,119.378Z"/>
      <path class="cls-1" d="M64.167,104.479a13.361,13.361,0,0,1,1.128-2.333,7.393,7.393,0,0,1,1.463-1.73,6.019,6.019,0,0,1,1.848-1.086,6.524,6.524,0,0,1,2.27-.376,7.229,7.229,0,0,1,1.311.118,3.35,3.35,0,0,1,1.141.419l-.172,1.419a.417.417,0,0,1-.41.345,3.167,3.167,0,0,1-.783-.151,5.237,5.237,0,0,0-1.387-.15,6,6,0,0,0-2.205.377,5.088,5.088,0,0,0-1.719,1.128,7.239,7.239,0,0,0-1.334,1.86,17.631,17.631,0,0,0-1.042,2.548v13.846H62.21V99.318h1.1a.72.72,0,0,1,.516.15.87.87,0,0,1,.193.517Z"/>
      <path class="cls-1" d="M76.937,109.165v.409a14.493,14.493,0,0,0,.56,4.235,8.656,8.656,0,0,0,1.591,3.063,6.555,6.555,0,0,0,2.494,1.86,8.26,8.26,0,0,0,3.268.623A9.784,9.784,0,0,0,87.644,119a10.426,10.426,0,0,0,1.989-.8,10.992,10.992,0,0,0,1.279-.795,1.441,1.441,0,0,1,.688-.355.493.493,0,0,1,.43.215l.56.688a5.86,5.86,0,0,1-1.365,1.2,9.757,9.757,0,0,1-1.893.957,13.805,13.805,0,0,1-2.235.634,12.341,12.341,0,0,1-2.4.236,10.192,10.192,0,0,1-4-.763A8.471,8.471,0,0,1,77.6,118a10.124,10.124,0,0,1-1.989-3.58,15.451,15.451,0,0,1-.7-4.848,13.208,13.208,0,0,1,.655-4.246,9.716,9.716,0,0,1,1.893-3.354,8.625,8.625,0,0,1,3.031-2.2,9.973,9.973,0,0,1,4.074-.795,8.9,8.9,0,0,1,3.354.623,7.6,7.6,0,0,1,2.688,1.817,8.546,8.546,0,0,1,1.8,2.935,11.318,11.318,0,0,1,.655,4,1.14,1.14,0,0,1-.129.645.5.5,0,0,1-.43.172Zm14.276-1.312a9.18,9.18,0,0,0-.484-3.085,6.544,6.544,0,0,0-1.365-2.312,5.97,5.97,0,0,0-2.1-1.451,6.923,6.923,0,0,0-2.677-.5,8.05,8.05,0,0,0-2.967.516,6.5,6.5,0,0,0-2.269,1.483,7.427,7.427,0,0,0-1.537,2.322,10.822,10.822,0,0,0-.774,3.031Z"/>
      <path class="cls-1" d="M116.154,121.055a4.6,4.6,0,0,1-3.387-1.2,5.039,5.039,0,0,1-1.214-3.719v-14.62h-3.075a.573.573,0,0,1-.387-.129.455.455,0,0,1-.15-.366v-.795l3.655-.258.516-7.654a.774.774,0,0,1,.172-.344.455.455,0,0,1,.365-.151h.968v8.171h6.751v1.526h-6.751v14.513a4.534,4.534,0,0,0,.226,1.516,2.812,2.812,0,0,0,.624,1.042,2.436,2.436,0,0,0,.935.6,3.4,3.4,0,0,0,1.161.193,3.555,3.555,0,0,0,1.333-.226,5.477,5.477,0,0,0,.968-.5,6.123,6.123,0,0,0,.666-.494.736.736,0,0,1,.409-.226.469.469,0,0,1,.344.215l.559.9a5.961,5.961,0,0,1-2.074,1.451A6.476,6.476,0,0,1,116.154,121.055Z"/>
      <path class="cls-1" d="M127.1,102.931a12.035,12.035,0,0,1,3.387-2.881,8.52,8.52,0,0,1,4.268-1.075,8.048,8.048,0,0,1,3.106.559,5.715,5.715,0,0,1,2.226,1.612,7.16,7.16,0,0,1,1.333,2.537,11.523,11.523,0,0,1,.451,3.354v13.674H139.8V107.037a7.332,7.332,0,0,0-1.376-4.72,5.062,5.062,0,0,0-4.193-1.709,7.585,7.585,0,0,0-3.9,1.064,11.019,11.019,0,0,0-3.236,2.956v16.082h-2.063V89.429H127.1Z"/>
      <path class="cls-1" d="M148.08,102.35a12.459,12.459,0,0,1,3.526-2.537,9.843,9.843,0,0,1,4.192-.859,7.651,7.651,0,0,1,3.01.548,5.56,5.56,0,0,1,2.14,1.569,6.894,6.894,0,0,1,1.279,2.473,11.4,11.4,0,0,1,.43,3.236v13.932h-.817a.735.735,0,0,1-.795-.6l-.3-2.752a22.471,22.471,0,0,1-1.753,1.548,10.472,10.472,0,0,1-1.816,1.161,9.312,9.312,0,0,1-2.043.73,10.513,10.513,0,0,1-2.407.258,7.1,7.1,0,0,1-2.129-.322,5.363,5.363,0,0,1-1.838-.989,4.774,4.774,0,0,1-1.29-1.709,5.9,5.9,0,0,1-.484-2.5,4.451,4.451,0,0,1,.774-2.516,6.338,6.338,0,0,1,2.43-2.021,16.124,16.124,0,0,1,4.246-1.376,36.776,36.776,0,0,1,6.225-.6v-2.235a7.169,7.169,0,0,0-1.279-4.569,4.568,4.568,0,0,0-3.795-1.6,7.173,7.173,0,0,0-2.634.43,9.356,9.356,0,0,0-1.839.946,11.357,11.357,0,0,0-1.225.946,1.326,1.326,0,0,1-.8.43.643.643,0,0,1-.387-.107.976.976,0,0,1-.259-.279Zm12.578,8.02a40.185,40.185,0,0,0-5.257.484,15.171,15.171,0,0,0-3.634,1.021,5.438,5.438,0,0,0-2.118,1.538,3.235,3.235,0,0,0-.687,2.031,4.483,4.483,0,0,0,.354,1.859,3.62,3.62,0,0,0,.946,1.29,3.756,3.756,0,0,0,1.365.742,5.468,5.468,0,0,0,1.612.236,9.146,9.146,0,0,0,2.29-.269,8.44,8.44,0,0,0,1.935-.753,9.419,9.419,0,0,0,1.666-1.149q.775-.667,1.527-1.441Z"/>
      <path class="cls-1" d="M171.45,103.06a12.121,12.121,0,0,1,3.43-2.967,8.54,8.54,0,0,1,4.332-1.118,8.048,8.048,0,0,1,3.106.559,5.715,5.715,0,0,1,2.226,1.612,7.16,7.16,0,0,1,1.333,2.537,11.523,11.523,0,0,1,.451,3.354v13.674h-2.063V107.037a7.332,7.332,0,0,0-1.376-4.72,5.062,5.062,0,0,0-4.193-1.709,7.585,7.585,0,0,0-3.9,1.064,11.019,11.019,0,0,0-3.236,2.956v16.082h-2.063V99.318h1.139a.571.571,0,0,1,.624.537Z"/>
      <path class="cls-1" d="M23.79,131.386v2.795a5.976,5.976,0,0,1-.279,2.01,12.644,12.644,0,0,1-.538,1.279L12.094,160.518a4.5,4.5,0,0,1-1.279,1.549,3.491,3.491,0,0,1-2.2.645H3.752l11.18-22.425q.494-.9,1-1.645a11.7,11.7,0,0,1,1.128-1.408H3.279a1.393,1.393,0,0,1-.57-.118,1.552,1.552,0,0,1-.473-.322,1.709,1.709,0,0,1-.333-.474,1.251,1.251,0,0,1-.129-.548v-4.386Z"/>
      <path class="cls-1" d="M49.095,147.037a25.488,25.488,0,0,1-.881,7.117,14.6,14.6,0,0,1-2.44,4.987,9.845,9.845,0,0,1-3.7,2.946,11.119,11.119,0,0,1-4.633.967,10.969,10.969,0,0,1-4.611-.967,9.8,9.8,0,0,1-3.666-2.946,14.575,14.575,0,0,1-2.418-4.987,29.507,29.507,0,0,1,0-14.233,14.589,14.589,0,0,1,2.418-4.988A9.7,9.7,0,0,1,32.83,132a11.07,11.07,0,0,1,4.611-.957,11.221,11.221,0,0,1,4.633.957,9.746,9.746,0,0,1,3.7,2.935,14.618,14.618,0,0,1,2.44,4.988A25.485,25.485,0,0,1,49.095,147.037Zm-6.88,0a28.429,28.429,0,0,0-.409-5.321,10.9,10.9,0,0,0-1.086-3.257,3.937,3.937,0,0,0-1.537-1.623,3.782,3.782,0,0,0-1.742-.441,3.715,3.715,0,0,0-1.73.441,3.84,3.84,0,0,0-1.5,1.623,11.178,11.178,0,0,0-1.054,3.257,35.892,35.892,0,0,0,0,10.653,11.339,11.339,0,0,0,1.054,3.258,3.833,3.833,0,0,0,1.5,1.634,3.714,3.714,0,0,0,1.73.44,3.78,3.78,0,0,0,1.742-.44,3.929,3.929,0,0,0,1.537-1.634,11.06,11.06,0,0,0,1.086-3.258A28.381,28.381,0,0,0,42.215,147.037Z"/>
      <path class="cls-1" d="M82.246,140.415l-11.91,28.079a1.9,1.9,0,0,1-2.107,1.29H63.241l4.3-9.029-8.9-20.34h5.891a1.835,1.835,0,0,1,1.193.345,2.061,2.061,0,0,1,.613.816l3.654,9.61a19.511,19.511,0,0,1,.838,2.688q.237-.687.473-1.376t.5-1.354l3.311-9.567a1.766,1.766,0,0,1,.688-.827,1.881,1.881,0,0,1,1.074-.334Z"/>
      <path class="cls-1" d="M88.912,152.757a6.287,6.287,0,0,0,1.7,4.053,5.056,5.056,0,0,0,3.548,1.258,6.341,6.341,0,0,0,2-.28,9.975,9.975,0,0,0,1.494-.623q.656-.344,1.2-.624a2.509,2.509,0,0,1,1.15-.279,1.377,1.377,0,0,1,1.2.581l1.935,2.386a9.906,9.906,0,0,1-2.225,1.925,11.645,11.645,0,0,1-2.451,1.161,13.3,13.3,0,0,1-2.516.58,18.9,18.9,0,0,1-2.4.161,12.513,12.513,0,0,1-4.4-.763,10.09,10.09,0,0,1-3.591-2.269,10.7,10.7,0,0,1-2.43-3.741,13.978,13.978,0,0,1-.892-5.2,11.776,11.776,0,0,1,.763-4.235,10.293,10.293,0,0,1,5.655-5.891,12.333,12.333,0,0,1,8.643-.193,8.81,8.81,0,0,1,3.16,2,9.125,9.125,0,0,1,2.064,3.215,11.8,11.8,0,0,1,.741,4.311,9.416,9.416,0,0,1-.064,1.226,1.922,1.922,0,0,1-.236.752.9.9,0,0,1-.462.388,2.174,2.174,0,0,1-.742.107Zm8.385-3.87a5.9,5.9,0,0,0-.2-1.548A3.749,3.749,0,0,0,96.426,146a3.386,3.386,0,0,0-1.215-.957,4.144,4.144,0,0,0-1.827-.365,3.986,3.986,0,0,0-2.967,1.085A5.653,5.653,0,0,0,89,148.887Z"/>
      <path class="cls-1" d="M106.112,143.512a13.551,13.551,0,0,1,4.483-2.655,15.7,15.7,0,0,1,5.278-.871,9.645,9.645,0,0,1,3.644.656,7.828,7.828,0,0,1,2.752,1.827A7.98,7.98,0,0,1,124,145.253a10.028,10.028,0,0,1,.6,3.526v13.932h-3.053a3.123,3.123,0,0,1-1.43-.258,1.966,1.966,0,0,1-.807-1.075l-.473-1.226q-.839.709-1.612,1.247a10.266,10.266,0,0,1-1.6.914,7.9,7.9,0,0,1-1.763.559,10.829,10.829,0,0,1-2.074.183,9.119,9.119,0,0,1-2.774-.4,5.781,5.781,0,0,1-2.117-1.172,5.144,5.144,0,0,1-1.344-1.924,6.938,6.938,0,0,1-.473-2.655,5.542,5.542,0,0,1,.6-2.44,6.021,6.021,0,0,1,2.086-2.258,13.251,13.251,0,0,1,4-1.709,26.824,26.824,0,0,1,6.342-.774v-.945a4.088,4.088,0,0,0-.806-2.827,2.965,2.965,0,0,0-2.29-.871,6.084,6.084,0,0,0-1.936.258,8.652,8.652,0,0,0-1.344.581q-.59.322-1.149.58a3.164,3.164,0,0,1-1.333.258,1.917,1.917,0,0,1-1.161-.344,3,3,0,0,1-.774-.817Zm12,10.126a22.023,22.023,0,0,0-3.289.345,8,8,0,0,0-2.043.645,2.472,2.472,0,0,0-1.043.882,2.084,2.084,0,0,0-.29,1.074,1.868,1.868,0,0,0,.624,1.6,3.043,3.043,0,0,0,1.827.462,5.294,5.294,0,0,0,2.258-.451,6.891,6.891,0,0,0,1.956-1.462Z"/>
      <path class="cls-1" d="M135.093,143.855a9.378,9.378,0,0,1,2.376-2.838,4.925,4.925,0,0,1,3.085-1.032,3.974,3.974,0,0,1,2.451.71l-.43,4.9a1.038,1.038,0,0,1-.354.646,1.174,1.174,0,0,1-.678.172c-.115,0-.266-.007-.451-.021s-.38-.032-.581-.054l-.612-.064a5.578,5.578,0,0,0-.57-.032,3.382,3.382,0,0,0-2.332.773,6.078,6.078,0,0,0-1.473,2.15v13.545h-6.665v-22.3h3.956a3.4,3.4,0,0,1,.827.086,1.452,1.452,0,0,1,.56.27,1.153,1.153,0,0,1,.344.483,4.468,4.468,0,0,1,.2.731Z"/>
      <path class="cls-1" d="M159.431,145.3a1.717,1.717,0,0,1-.548.58,1.435,1.435,0,0,1-.742.173,2.355,2.355,0,0,1-.945-.205l-1.021-.44a11.163,11.163,0,0,0-1.236-.44,5.5,5.5,0,0,0-1.569-.2,3.325,3.325,0,0,0-1.946.483,1.559,1.559,0,0,0-.677,1.344,1.346,1.346,0,0,0,.44,1.032,4.026,4.026,0,0,0,1.172.72,16.162,16.162,0,0,0,1.655.592q.924.28,1.893.623a16.823,16.823,0,0,1,1.892.807,7.071,7.071,0,0,1,1.655,1.14,5.079,5.079,0,0,1,1.172,1.645,5.567,5.567,0,0,1,.44,2.322,7.634,7.634,0,0,1-.6,3.053,6.491,6.491,0,0,1-1.795,2.408,8.494,8.494,0,0,1-2.946,1.569,13.285,13.285,0,0,1-4.031.559,12.241,12.241,0,0,1-2.278-.215,15.768,15.768,0,0,1-2.2-.58,12.038,12.038,0,0,1-1.967-.871,8.519,8.519,0,0,1-1.548-1.086l1.548-2.451a1.979,1.979,0,0,1,.655-.677,1.907,1.907,0,0,1,1.021-.247,2.107,2.107,0,0,1,1.043.258l1,.559a8.26,8.26,0,0,0,1.258.56,5.461,5.461,0,0,0,1.817.258,4.62,4.62,0,0,0,1.312-.161,2.31,2.31,0,0,0,.859-.441,1.723,1.723,0,0,0,.624-1.333,1.445,1.445,0,0,0-.452-1.1,3.934,3.934,0,0,0-1.182-.742,14.529,14.529,0,0,0-1.667-.58q-.935-.27-1.9-.613a15.127,15.127,0,0,1-1.9-.827,6.566,6.566,0,0,1-1.667-1.226,5.716,5.716,0,0,1-1.183-1.817,6.709,6.709,0,0,1-.451-2.6,6.787,6.787,0,0,1,.548-2.7,6.266,6.266,0,0,1,1.646-2.246,8.055,8.055,0,0,1,2.752-1.537,11.9,11.9,0,0,1,3.87-.57,12.5,12.5,0,0,1,2.332.215,11.947,11.947,0,0,1,2.118.6,10.178,10.178,0,0,1,1.806.913,8.73,8.73,0,0,1,1.44,1.15Z"/>
      <path class="cls-1" d="M12.61,182.071a12.881,12.881,0,0,1,4.623.8,10.155,10.155,0,0,1,3.58,2.278,10.275,10.275,0,0,1,2.322,3.6,12.994,12.994,0,0,1,.828,4.763,13.224,13.224,0,0,1-.828,4.8,10.332,10.332,0,0,1-2.322,3.634,10.206,10.206,0,0,1-3.58,2.3,12.734,12.734,0,0,1-4.623.806,12.879,12.879,0,0,1-4.655-.806,10.4,10.4,0,0,1-3.612-2.3A10.184,10.184,0,0,1,2,198.314a13.214,13.214,0,0,1-.828-4.8A12.984,12.984,0,0,1,2,188.747a10.129,10.129,0,0,1,2.343-3.6,10.35,10.35,0,0,1,3.612-2.278A13.028,13.028,0,0,1,12.61,182.071Zm0,18.039A3.785,3.785,0,0,0,16,198.486a11.733,11.733,0,0,0,0-9.857,3.794,3.794,0,0,0-3.386-1.612,3.887,3.887,0,0,0-3.461,1.612,11.624,11.624,0,0,0,0,9.857A3.877,3.877,0,0,0,12.61,200.11Z"/>
      <path class="cls-1" d="M28.348,204.711V187l-1.462-.3a3.019,3.019,0,0,1-1.215-.538,1.286,1.286,0,0,1-.462-1.075v-2.623h3.139v-1.269a9.329,9.329,0,0,1,.613-3.461,7.318,7.318,0,0,1,1.763-2.645,7.926,7.926,0,0,1,2.806-1.7,10.96,10.96,0,0,1,3.762-.6,10.85,10.85,0,0,1,1.5.1,10.645,10.645,0,0,1,1.441.313l-.129,3.246a1.137,1.137,0,0,1-.172.569,1.158,1.158,0,0,1-.4.366,1.97,1.97,0,0,1-.526.2,2.484,2.484,0,0,1-.559.064,6.512,6.512,0,0,0-1.569.172,2.526,2.526,0,0,0-1.15.612,2.753,2.753,0,0,0-.7,1.161,5.9,5.9,0,0,0-.237,1.817v1.053h5.225v4.559H35.013v17.694Z"/>
      <path class="cls-1" d="M51.009,185.512a13.547,13.547,0,0,1,4.482-2.655,15.7,15.7,0,0,1,5.278-.871,9.65,9.65,0,0,1,3.645.656,7.828,7.828,0,0,1,2.752,1.827,7.978,7.978,0,0,1,1.73,2.784,10.028,10.028,0,0,1,.6,3.526v13.932H66.445a3.123,3.123,0,0,1-1.43-.258,1.973,1.973,0,0,1-.806-1.075l-.473-1.226q-.839.709-1.613,1.247a10.257,10.257,0,0,1-1.6.914,7.922,7.922,0,0,1-1.763.559,10.83,10.83,0,0,1-2.075.183,9.11,9.11,0,0,1-2.773-.4,5.783,5.783,0,0,1-2.118-1.172,5.144,5.144,0,0,1-1.344-1.924,6.938,6.938,0,0,1-.473-2.655,5.542,5.542,0,0,1,.6-2.44,6.019,6.019,0,0,1,2.085-2.258,13.273,13.273,0,0,1,4-1.709,26.829,26.829,0,0,1,6.342-.774v-.945a4.086,4.086,0,0,0-.806-2.827,2.964,2.964,0,0,0-2.29-.871,6.077,6.077,0,0,0-1.935.258,8.591,8.591,0,0,0-1.344.581q-.592.322-1.15.58a3.161,3.161,0,0,1-1.333.258,1.917,1.917,0,0,1-1.161-.344,2.994,2.994,0,0,1-.774-.817Zm12,10.126a22.03,22.03,0,0,0-3.289.345,7.987,7.987,0,0,0-2.042.645,2.466,2.466,0,0,0-1.043.882,2.084,2.084,0,0,0-.29,1.074,1.869,1.869,0,0,0,.623,1.6,3.047,3.047,0,0,0,1.828.462,5.294,5.294,0,0,0,2.258-.451,6.884,6.884,0,0,0,1.956-1.462Z"/>
      <path class="cls-1" d="M94.158,182.415l-8.643,22.3H79.452l-8.643-22.3h5.547a2.051,2.051,0,0,1,1.193.334,1.657,1.657,0,0,1,.655.827l3.1,10q.407,1.225.72,2.386t.549,2.322a35.482,35.482,0,0,1,1.312-4.708l3.225-10a1.674,1.674,0,0,1,.646-.827,1.884,1.884,0,0,1,1.117-.334Z"/>
      <path class="cls-1" d="M103.833,176.31a3.524,3.524,0,0,1-.322,1.494,3.931,3.931,0,0,1-.882,1.226,4.3,4.3,0,0,1-1.3.839,4.047,4.047,0,0,1-1.58.312,3.763,3.763,0,0,1-1.526-.312,4.289,4.289,0,0,1-1.258-.839A3.864,3.864,0,0,1,96.1,177.8a3.623,3.623,0,0,1-.312-1.494,3.747,3.747,0,0,1,.313-1.526,3.944,3.944,0,0,1,.859-1.247,4.037,4.037,0,0,1,1.258-.839,3.873,3.873,0,0,1,1.526-.3,4.167,4.167,0,0,1,1.58.3,4.054,4.054,0,0,1,1.3.839,4.01,4.01,0,0,1,.882,1.247A3.645,3.645,0,0,1,103.833,176.31Zm-.687,6.105v22.3H96.481v-22.3Z"/>
      <path class="cls-1" d="M107.316,185.512a13.551,13.551,0,0,1,4.483-2.655,15.7,15.7,0,0,1,5.278-.871,9.645,9.645,0,0,1,3.644.656,7.828,7.828,0,0,1,2.752,1.827,7.98,7.98,0,0,1,1.731,2.784,10.028,10.028,0,0,1,.6,3.526v13.932h-3.053a3.123,3.123,0,0,1-1.43-.258,1.966,1.966,0,0,1-.807-1.075l-.473-1.226q-.839.709-1.612,1.247a10.266,10.266,0,0,1-1.6.914,7.9,7.9,0,0,1-1.763.559,10.829,10.829,0,0,1-2.074.183,9.119,9.119,0,0,1-2.774-.4,5.781,5.781,0,0,1-2.117-1.172,5.144,5.144,0,0,1-1.344-1.924,6.938,6.938,0,0,1-.473-2.655,5.542,5.542,0,0,1,.6-2.44,6.021,6.021,0,0,1,2.086-2.258,13.251,13.251,0,0,1,4-1.709,26.824,26.824,0,0,1,6.342-.774v-.945a4.088,4.088,0,0,0-.806-2.827,2.965,2.965,0,0,0-2.29-.871,6.084,6.084,0,0,0-1.936.258,8.652,8.652,0,0,0-1.344.581q-.59.322-1.149.58a3.164,3.164,0,0,1-1.333.258,1.917,1.917,0,0,1-1.161-.344,3,3,0,0,1-.774-.817Zm12,10.126a22.023,22.023,0,0,0-3.289.345,8,8,0,0,0-2.043.645,2.472,2.472,0,0,0-1.043.882,2.084,2.084,0,0,0-.29,1.074,1.868,1.868,0,0,0,.624,1.6,3.043,3.043,0,0,0,1.827.462,5.294,5.294,0,0,0,2.258-.451,6.891,6.891,0,0,0,1.956-1.462Z"/>
      <path class="cls-1" d="M153.82,204.711h-6.665V187.017h-9.331v11.072a2.084,2.084,0,0,0,.376,1.279,1.27,1.27,0,0,0,1.086.5,2.112,2.112,0,0,0,.612-.075,2.425,2.425,0,0,0,.431-.172c.121-.064.236-.121.344-.172a.885.885,0,0,1,.376-.075.777.777,0,0,1,.483.14,1.741,1.741,0,0,1,.377.44l2.021,3.161a9.193,9.193,0,0,1-2.9,1.451,11.541,11.541,0,0,1-3.332.483,7.867,7.867,0,0,1-2.806-.462,5.412,5.412,0,0,1-3.3-3.365,7.933,7.933,0,0,1-.43-2.687V187.017h-1.893a1.2,1.2,0,0,1-1.247-1.312v-2.6l3.548-.71,1.312-5.418a1.324,1.324,0,0,1,1.462-1.031h3.483v6.514h16Zm.924-28.423a3.6,3.6,0,0,1-.322,1.5,3.9,3.9,0,0,1-.882,1.236,4.183,4.183,0,0,1-2.881,1.129,3.873,3.873,0,0,1-1.526-.3,4.128,4.128,0,0,1-1.258-.828,3.834,3.834,0,0,1-.859-1.236,3.7,3.7,0,0,1-.312-1.5,3.853,3.853,0,0,1,1.172-2.763,4.289,4.289,0,0,1,1.258-.839,3.763,3.763,0,0,1,1.526-.312,4.047,4.047,0,0,1,1.58.312,4.3,4.3,0,0,1,1.3.839,3.857,3.857,0,0,1,.882,1.247A3.671,3.671,0,0,1,154.744,176.288Z"/>
      <path class="cls-1" d="M168.762,182.071a12.882,12.882,0,0,1,4.623.8,10.149,10.149,0,0,1,3.579,2.278,10.276,10.276,0,0,1,2.322,3.6,12.994,12.994,0,0,1,.828,4.763,13.224,13.224,0,0,1-.828,4.8,10.333,10.333,0,0,1-2.322,3.634,10.2,10.2,0,0,1-3.579,2.3,12.735,12.735,0,0,1-4.623.806,12.876,12.876,0,0,1-4.654-.806,10.4,10.4,0,0,1-3.612-2.3,10.179,10.179,0,0,1-2.344-3.634,13.224,13.224,0,0,1-.827-4.8,13,13,0,0,1,.827-4.763,10.123,10.123,0,0,1,2.344-3.6,10.35,10.35,0,0,1,3.612-2.278A13.025,13.025,0,0,1,168.762,182.071Zm0,18.039a3.784,3.784,0,0,0,3.387-1.624,11.728,11.728,0,0,0,0-9.857,3.793,3.793,0,0,0-3.387-1.612,3.886,3.886,0,0,0-3.461,1.612,11.624,11.624,0,0,0,0,9.857A3.876,3.876,0,0,0,168.762,200.11Z"/>
      <path class="cls-1" d="M189.616,184.823a16.393,16.393,0,0,1,1.333-1.118,7.809,7.809,0,0,1,1.473-.87,8.8,8.8,0,0,1,1.7-.56,9.131,9.131,0,0,1,1.988-.2,7.8,7.8,0,0,1,3.235.635,6.7,6.7,0,0,1,2.376,1.763,7.589,7.589,0,0,1,1.462,2.688,11.13,11.13,0,0,1,.5,3.386v14.169h-6.665V190.542A3.9,3.9,0,0,0,196.26,188a2.7,2.7,0,0,0-2.214-.914,4.666,4.666,0,0,0-2.054.462,8.27,8.27,0,0,0-1.859,1.258v15.91h-6.665v-22.3H187.6a1.567,1.567,0,0,1,1.634,1.118Z"/>
      <path class="cls-1" d="M22.521,214.525v32.186H18.393a1.566,1.566,0,0,1-1.634-1.118l-.516-1.7a13.08,13.08,0,0,1-1.4,1.29,8.855,8.855,0,0,1-1.58,1,8.373,8.373,0,0,1-1.828.645,9.418,9.418,0,0,1-2.118.226,6.87,6.87,0,0,1-3.225-.773,7.439,7.439,0,0,1-2.559-2.236,11.273,11.273,0,0,1-1.687-3.58,17.372,17.372,0,0,1-.613-4.826A15.049,15.049,0,0,1,1.924,231a11.348,11.348,0,0,1,1.946-3.7,9.038,9.038,0,0,1,3.021-2.44,8.576,8.576,0,0,1,3.892-.882,7.606,7.606,0,0,1,2.924.494,7.955,7.955,0,0,1,2.15,1.333V214.525Zm-6.665,15.867a4.213,4.213,0,0,0-1.634-1.172,5.2,5.2,0,0,0-1.849-.333,3.934,3.934,0,0,0-1.7.365,3.457,3.457,0,0,0-1.344,1.172,6.245,6.245,0,0,0-.893,2.1,13.038,13.038,0,0,0-.322,3.118,14.453,14.453,0,0,0,.258,2.967,6.116,6.116,0,0,0,.72,1.945,2.79,2.79,0,0,0,1.107,1.064,3.178,3.178,0,0,0,1.44.322,5.73,5.73,0,0,0,1.322-.14,4.646,4.646,0,0,0,1.086-.4,4.524,4.524,0,0,0,.935-.655,8.977,8.977,0,0,0,.871-.914Z"/>
      <path class="cls-1" d="M34.54,218.31a3.525,3.525,0,0,1-.323,1.494,3.937,3.937,0,0,1-.881,1.226,4.315,4.315,0,0,1-1.3.839,4.053,4.053,0,0,1-1.581.312,3.766,3.766,0,0,1-1.526-.312,4.289,4.289,0,0,1-1.258-.839,3.873,3.873,0,0,1-.86-1.226,3.622,3.622,0,0,1-.312-1.494,3.747,3.747,0,0,1,.312-1.526,3.954,3.954,0,0,1,.86-1.247,4.037,4.037,0,0,1,1.258-.839,3.877,3.877,0,0,1,1.526-.3,4.173,4.173,0,0,1,1.581.3,4.07,4.07,0,0,1,1.3.839,4.017,4.017,0,0,1,.881,1.247A3.645,3.645,0,0,1,34.54,218.31Zm-.688,6.105v22.3H27.187v-22.3Z"/>
      <path class="cls-1" d="M52.685,229.3a1.717,1.717,0,0,1-.548.58,1.434,1.434,0,0,1-.742.173,2.359,2.359,0,0,1-.946-.205l-1.021-.44a11.163,11.163,0,0,0-1.236-.44,5.5,5.5,0,0,0-1.57-.2,3.319,3.319,0,0,0-1.945.483A1.559,1.559,0,0,0,44,230.586a1.346,1.346,0,0,0,.44,1.032,4.02,4.02,0,0,0,1.172.72,16.162,16.162,0,0,0,1.655.592q.924.28,1.892.623a16.792,16.792,0,0,1,1.892.807,7.071,7.071,0,0,1,1.655,1.14,5.079,5.079,0,0,1,1.172,1.645,5.567,5.567,0,0,1,.441,2.322,7.642,7.642,0,0,1-.6,3.053,6.487,6.487,0,0,1-1.8,2.408,8.493,8.493,0,0,1-2.945,1.569,13.289,13.289,0,0,1-4.031.559,12.242,12.242,0,0,1-2.279-.215,15.733,15.733,0,0,1-2.2-.58,12.043,12.043,0,0,1-1.967-.871,8.553,8.553,0,0,1-1.548-1.086l1.548-2.451a1.989,1.989,0,0,1,.656-.677,1.905,1.905,0,0,1,1.021-.247,2.1,2.1,0,0,1,1.042.258l1,.559a8.239,8.239,0,0,0,1.258.56,5.454,5.454,0,0,0,1.816.258A4.618,4.618,0,0,0,46.6,242.4a2.311,2.311,0,0,0,.86-.441,1.729,1.729,0,0,0,.624-1.333,1.448,1.448,0,0,0-.452-1.1,3.933,3.933,0,0,0-1.183-.742,14.476,14.476,0,0,0-1.666-.58q-.935-.27-1.9-.613a15.2,15.2,0,0,1-1.9-.827,6.561,6.561,0,0,1-1.666-1.226,5.692,5.692,0,0,1-1.183-1.817,6.7,6.7,0,0,1-.452-2.6,6.779,6.779,0,0,1,.548-2.7,6.258,6.258,0,0,1,1.645-2.246,8.069,8.069,0,0,1,2.752-1.537,11.9,11.9,0,0,1,3.87-.57,12.508,12.508,0,0,1,2.333.215,11.965,11.965,0,0,1,2.118.6,10.183,10.183,0,0,1,1.806.913,8.75,8.75,0,0,1,1.44,1.15Z"/>
      <path class="cls-1" d="M81.776,246.711H75.11V229.017h-9.33v11.072a2.09,2.09,0,0,0,.375,1.279,1.273,1.273,0,0,0,1.086.5,2.12,2.12,0,0,0,.613-.075,2.413,2.413,0,0,0,.43-.172c.121-.064.236-.121.344-.172a.886.886,0,0,1,.377-.075.775.775,0,0,1,.482.14,1.721,1.721,0,0,1,.377.44l2.021,3.161a9.2,9.2,0,0,1-2.9,1.451,11.546,11.546,0,0,1-3.332.483,7.873,7.873,0,0,1-2.807-.462,5.413,5.413,0,0,1-3.3-3.365,7.945,7.945,0,0,1-.43-2.687V229.017H57.222a1.2,1.2,0,0,1-1.247-1.312v-2.6l3.547-.71,1.312-5.418a1.324,1.324,0,0,1,1.462-1.031h3.484v6.514h16Zm.924-28.423a3.6,3.6,0,0,1-.322,1.5,3.9,3.9,0,0,1-.883,1.236,4.122,4.122,0,0,1-1.3.828,4.163,4.163,0,0,1-1.58.3,3.868,3.868,0,0,1-1.525-.3,4.128,4.128,0,0,1-1.258-.828,3.834,3.834,0,0,1-.859-1.236,3.68,3.68,0,0,1-.312-1.5,3.758,3.758,0,0,1,.313-1.516,3.8,3.8,0,0,1,.859-1.247,4.289,4.289,0,0,1,1.258-.839,3.758,3.758,0,0,1,1.525-.312,4.043,4.043,0,0,1,1.58.312,4.274,4.274,0,0,1,1.3.839,3.86,3.86,0,0,1,.883,1.247A3.671,3.671,0,0,1,82.7,218.288Z"/>
      <path class="cls-1" d="M92.589,226.823a16.393,16.393,0,0,1,1.333-1.118,7.809,7.809,0,0,1,1.473-.87,8.8,8.8,0,0,1,1.7-.56,9.131,9.131,0,0,1,1.988-.2,7.8,7.8,0,0,1,3.235.635,6.7,6.7,0,0,1,2.376,1.763,7.589,7.589,0,0,1,1.462,2.688,11.13,11.13,0,0,1,.5,3.386v14.169H99.986V232.542A3.9,3.9,0,0,0,99.233,230a2.7,2.7,0,0,0-2.214-.914,4.666,4.666,0,0,0-2.054.462,8.27,8.27,0,0,0-1.859,1.258v15.91H86.441v-22.3h4.128a1.567,1.567,0,0,1,1.634,1.118Z"/>
      <path class="cls-1" d="M127.333,229.7a3.7,3.7,0,0,1-.581.581,1.277,1.277,0,0,1-.795.215,1.718,1.718,0,0,1-.893-.236c-.266-.158-.562-.333-.892-.527a6.872,6.872,0,0,0-1.161-.526,5.015,5.015,0,0,0-1.656-.236,4.64,4.64,0,0,0-2.117.451,3.922,3.922,0,0,0-1.473,1.29,5.9,5.9,0,0,0-.86,2.054,12.254,12.254,0,0,0-.279,2.741,8.351,8.351,0,0,0,1.236,4.923,3.966,3.966,0,0,0,3.407,1.721,4.75,4.75,0,0,0,1.839-.291,5.584,5.584,0,0,0,1.15-.645l.87-.656a1.614,1.614,0,0,1,1-.3,1.377,1.377,0,0,1,1.2.581l1.935,2.386a10.536,10.536,0,0,1-2.171,1.925,10.941,10.941,0,0,1-2.333,1.161,12.055,12.055,0,0,1-2.4.58,17.667,17.667,0,0,1-2.344.161,10.057,10.057,0,0,1-3.9-.773,9.556,9.556,0,0,1-3.269-2.247,10.761,10.761,0,0,1-2.236-3.623,13.565,13.565,0,0,1-.827-4.9,13.765,13.765,0,0,1,.72-4.5,10.216,10.216,0,0,1,2.129-3.633,9.885,9.885,0,0,1,3.483-2.419,12.2,12.2,0,0,1,4.8-.882,11.708,11.708,0,0,1,4.6.839,11.031,11.031,0,0,1,3.568,2.451Z"/>
      <path class="cls-1" d="M155.971,246.711h-6.665V229.017h-9.331v11.072a2.084,2.084,0,0,0,.376,1.279,1.27,1.27,0,0,0,1.086.5,2.112,2.112,0,0,0,.612-.075,2.425,2.425,0,0,0,.431-.172c.121-.064.236-.121.344-.172a.885.885,0,0,1,.376-.075.777.777,0,0,1,.483.14,1.741,1.741,0,0,1,.377.44l2.021,3.161a9.193,9.193,0,0,1-2.9,1.451,11.541,11.541,0,0,1-3.332.483,7.867,7.867,0,0,1-2.806-.462,5.412,5.412,0,0,1-3.3-3.365,7.933,7.933,0,0,1-.43-2.687V229.017h-1.893a1.2,1.2,0,0,1-1.247-1.312v-2.6l3.548-.71,1.312-5.418a1.324,1.324,0,0,1,1.462-1.031h3.483v6.514h16Zm.924-28.423a3.6,3.6,0,0,1-.322,1.5,3.9,3.9,0,0,1-.882,1.236,4.183,4.183,0,0,1-2.881,1.129,3.873,3.873,0,0,1-1.526-.3,4.128,4.128,0,0,1-1.258-.828,3.834,3.834,0,0,1-.859-1.236,3.7,3.7,0,0,1-.312-1.5,3.853,3.853,0,0,1,1.172-2.763,4.289,4.289,0,0,1,1.258-.839,3.763,3.763,0,0,1,1.526-.312,4.047,4.047,0,0,1,1.58.312,4.3,4.3,0,0,1,1.3.839,3.857,3.857,0,0,1,.882,1.247A3.671,3.671,0,0,1,156.895,218.288Z"/>
      <path class="cls-1" d="M170.912,224.071a12.882,12.882,0,0,1,4.623.8,10.149,10.149,0,0,1,3.579,2.278,10.276,10.276,0,0,1,2.322,3.6,12.994,12.994,0,0,1,.828,4.763,13.224,13.224,0,0,1-.828,4.8,10.333,10.333,0,0,1-2.322,3.634,10.2,10.2,0,0,1-3.579,2.3,12.735,12.735,0,0,1-4.623.806,12.876,12.876,0,0,1-4.654-.806,10.4,10.4,0,0,1-3.612-2.3,10.179,10.179,0,0,1-2.344-3.634,13.224,13.224,0,0,1-.827-4.8,13,13,0,0,1,.827-4.763,10.123,10.123,0,0,1,2.344-3.6,10.35,10.35,0,0,1,3.612-2.278A13.025,13.025,0,0,1,170.912,224.071Zm0,18.039a3.784,3.784,0,0,0,3.387-1.624,11.728,11.728,0,0,0,0-9.857,3.793,3.793,0,0,0-3.387-1.612,3.886,3.886,0,0,0-3.461,1.612,11.624,11.624,0,0,0,0,9.857A3.876,3.876,0,0,0,170.912,242.11Z"/>
      <path class="cls-1" d="M191.767,226.823a16.393,16.393,0,0,1,1.333-1.118,7.809,7.809,0,0,1,1.473-.87,8.8,8.8,0,0,1,1.7-.56,9.131,9.131,0,0,1,1.988-.2,7.8,7.8,0,0,1,3.235.635,6.7,6.7,0,0,1,2.376,1.763,7.589,7.589,0,0,1,1.462,2.688,11.13,11.13,0,0,1,.5,3.386v14.169h-6.665V232.542A3.9,3.9,0,0,0,198.41,230a2.7,2.7,0,0,0-2.214-.914,4.666,4.666,0,0,0-2.054.462,8.27,8.27,0,0,0-1.859,1.258v15.91h-6.665v-22.3h4.128a1.567,1.567,0,0,1,1.634,1.118Z"/>
    </g>
    <g>
      <rect class="cls-2" y="284.754" width="168.477" height="41.306"/>
      <g>
        <path class="cls-1" d="M134.765,312.812a.677.677,0,0,1-.487-.2.684.684,0,0,1-.215-.5.7.7,0,0,1,.208-.5l5.439-5.437-5.434-5.428a.708.708,0,0,1,0-.995.7.7,0,0,1,.5-.207.675.675,0,0,1,.489.2l5.93,5.925a.7.7,0,0,1,.163.736.729.729,0,0,1-.165.273l-5.929,5.924A.68.68,0,0,1,134.765,312.812Z"/>
        <g>
          <path class="cls-1" d="M34.091,311.761H32.026a.905.905,0,0,1-.85-.459l-2.584-3.936a.911.911,0,0,0-.319-.314,1.112,1.112,0,0,0-.514-.094h-.978v4.8H24.495V299.47h3.749a7.837,7.837,0,0,1,2.146.259,4.117,4.117,0,0,1,1.47.728,2.83,2.83,0,0,1,.846,1.117,3.882,3.882,0,0,1,.09,2.605,3.4,3.4,0,0,1-.527,1,3.545,3.545,0,0,1-.85.791,4.266,4.266,0,0,1-1.152.535,2.239,2.239,0,0,1,.408.3,2.13,2.13,0,0,1,.34.412Zm-5.882-6.443a3.545,3.545,0,0,0,1.126-.161,2.168,2.168,0,0,0,.791-.446,1.792,1.792,0,0,0,.463-.676,2.326,2.326,0,0,0,.153-.858,1.747,1.747,0,0,0-.616-1.437,2.952,2.952,0,0,0-1.883-.5H26.782v4.08Z"/>
          <path class="cls-1" d="M37.72,301.289V304.7h4.3v1.76h-4.3v3.477h5.457v1.827H35.425V299.47h7.752v1.819Z"/>
          <path class="cls-1" d="M55.733,311.761H53.965a.758.758,0,0,1-.484-.148.928.928,0,0,1-.28-.37l-.918-2.508H47.19l-.918,2.508a.81.81,0,0,1-.264.357.736.736,0,0,1-.484.161H43.739l4.837-12.291H50.9ZM51.7,307.12l-1.5-4.089c-.073-.182-.15-.4-.229-.646s-.158-.518-.237-.807q-.111.434-.229.812t-.229.658l-1.488,4.072Z"/>
          <path class="cls-1" d="M67.922,305.615a6.659,6.659,0,0,1-.45,2.482,5.574,5.574,0,0,1-3.23,3.213,6.93,6.93,0,0,1-2.55.45H57.008V299.47h4.684a6.851,6.851,0,0,1,2.55.455,5.74,5.74,0,0,1,1.964,1.267,5.666,5.666,0,0,1,1.267,1.941A6.659,6.659,0,0,1,67.922,305.615Zm-2.346,0a5.716,5.716,0,0,0-.268-1.814,3.763,3.763,0,0,0-.773-1.36,3.378,3.378,0,0,0-1.225-.854,4.2,4.2,0,0,0-1.619-.3H59.3v8.652h2.389a4.2,4.2,0,0,0,1.619-.3,3.378,3.378,0,0,0,1.225-.854,3.763,3.763,0,0,0,.773-1.36A5.712,5.712,0,0,0,65.576,305.615Z"/>
          <path class="cls-1" d="M87.4,299.47v12.291H85.381v-7.939q0-.475.052-1.028l-3.715,6.979a.859.859,0,0,1-.808.5h-.323a.859.859,0,0,1-.808-.5l-3.757-7c.018.188.031.371.043.553s.017.349.017.5v7.939H74.067V299.47h1.726q.154,0,.264.009a.735.735,0,0,1,.2.042.429.429,0,0,1,.161.11,1,1,0,0,1,.141.2l3.68,6.826c.1.181.186.368.269.561s.162.391.242.595c.079-.209.161-.412.246-.607s.176-.384.272-.565l3.629-6.809a.9.9,0,0,1,.145-.2.47.47,0,0,1,.166-.11.727.727,0,0,1,.2-.042q.111-.009.264-.009Z"/>
          <path class="cls-1" d="M101.853,305.615a6.859,6.859,0,0,1-.446,2.5,5.855,5.855,0,0,1-1.262,1.993,5.732,5.732,0,0,1-1.964,1.313,7.107,7.107,0,0,1-5.092,0,5.776,5.776,0,0,1-1.968-1.313,5.891,5.891,0,0,1-1.271-1.993,7.183,7.183,0,0,1,0-5.006,5.891,5.891,0,0,1,1.271-1.993,5.776,5.776,0,0,1,1.968-1.313,6.628,6.628,0,0,1,2.542-.472,6.9,6.9,0,0,1,1.76.217,6.22,6.22,0,0,1,1.513.611,5.588,5.588,0,0,1,1.236.961,5.83,5.83,0,0,1,.931,1.262,6.187,6.187,0,0,1,.583,1.514A7.215,7.215,0,0,1,101.853,305.615Zm-2.337,0a5.631,5.631,0,0,0-.272-1.814,3.894,3.894,0,0,0-.773-1.364,3.31,3.31,0,0,0-1.22-.858,4.55,4.55,0,0,0-3.238,0,3.352,3.352,0,0,0-1.225.858,3.856,3.856,0,0,0-.777,1.364,6.178,6.178,0,0,0,0,3.629,3.813,3.813,0,0,0,.777,1.36,3.378,3.378,0,0,0,1.225.854,4.564,4.564,0,0,0,3.238,0,3.335,3.335,0,0,0,1.22-.854,3.85,3.85,0,0,0,.773-1.36A5.627,5.627,0,0,0,99.516,305.615Z"/>
          <path class="cls-1" d="M113.465,311.761H111.4a.905.905,0,0,1-.85-.459l-2.584-3.936a.911.911,0,0,0-.319-.314,1.112,1.112,0,0,0-.514-.094h-.978v4.8h-2.287V299.47h3.749a7.837,7.837,0,0,1,2.146.259,4.117,4.117,0,0,1,1.47.728,2.83,2.83,0,0,1,.846,1.117,3.882,3.882,0,0,1,.09,2.605,3.4,3.4,0,0,1-.527,1,3.545,3.545,0,0,1-.85.791,4.266,4.266,0,0,1-1.152.535,2.239,2.239,0,0,1,.408.3,2.13,2.13,0,0,1,.34.412Zm-5.882-6.443a3.545,3.545,0,0,0,1.126-.161,2.168,2.168,0,0,0,.791-.446,1.792,1.792,0,0,0,.463-.676,2.326,2.326,0,0,0,.153-.858,1.747,1.747,0,0,0-.616-1.437,2.952,2.952,0,0,0-1.883-.5h-1.462v4.08Z"/>
          <path class="cls-1" d="M117.093,301.289V304.7h4.3v1.76h-4.3v3.477h5.457v1.827H114.8V299.47h7.752v1.819Z"/>
        </g>
      </g>
    </g>
  </g>
</svg>
