<svg id="Layer_1" data-name="Layer 1" xmlns="http://www.w3.org/2000/svg" viewBox="0 0 197.24 21.666">
  <defs>
    <style>
      .cls-1 {
        fill: #6690b7;
      }
    </style>
  </defs>
  <title>516a0907-667a-4e33-af6b-b540c97fc350</title>
  <g>
    <g>
      <path class="cls-1" d="M10.115,12.615a5.478,5.478,0,0,1-.371,2.044,4.715,4.715,0,0,1-1.043,1.6,4.663,4.663,0,0,1-1.617,1.043,5.7,5.7,0,0,1-2.1.371H1.127V7.554H4.985a5.657,5.657,0,0,1,2.1.375A4.749,4.749,0,0,1,8.7,8.972a4.681,4.681,0,0,1,1.043,1.6A5.478,5.478,0,0,1,10.115,12.615Zm-1.933,0a4.732,4.732,0,0,0-.22-1.495A3.109,3.109,0,0,0,7.325,10a2.771,2.771,0,0,0-1.008-.7,3.452,3.452,0,0,0-1.333-.245H3.017v7.126H4.985a3.452,3.452,0,0,0,1.333-.245,2.77,2.77,0,0,0,1.008-.7,3.111,3.111,0,0,0,.638-1.12A4.728,4.728,0,0,0,8.183,12.615Z"/>
      <path class="cls-1" d="M21.077,12.615a5.655,5.655,0,0,1-.368,2.062,4.836,4.836,0,0,1-1.039,1.642A4.733,4.733,0,0,1,18.053,17.4a5.856,5.856,0,0,1-4.193,0,4.764,4.764,0,0,1-1.62-1.082,4.87,4.87,0,0,1-1.047-1.642,5.926,5.926,0,0,1,0-4.123,4.875,4.875,0,0,1,1.047-1.642A4.764,4.764,0,0,1,13.86,7.83a5.465,5.465,0,0,1,2.094-.388A5.691,5.691,0,0,1,17.4,7.62a5.075,5.075,0,0,1,1.246.5,4.6,4.6,0,0,1,1.019.791,4.828,4.828,0,0,1,.767,1.04,5.091,5.091,0,0,1,.479,1.246A5.945,5.945,0,0,1,21.077,12.615Zm-1.926,0a4.647,4.647,0,0,0-.224-1.495A3.2,3.2,0,0,0,18.291,10a2.735,2.735,0,0,0-1-.707,3.757,3.757,0,0,0-2.667,0A2.762,2.762,0,0,0,13.612,10a3.182,3.182,0,0,0-.641,1.124,4.647,4.647,0,0,0-.224,1.495,4.643,4.643,0,0,0,.224,1.495,3.145,3.145,0,0,0,.641,1.12,2.77,2.77,0,0,0,1.008.7,3.75,3.75,0,0,0,2.667,0,2.743,2.743,0,0,0,1-.7,3.168,3.168,0,0,0,.637-1.12A4.643,4.643,0,0,0,19.152,12.615Z"/>
      <path class="cls-1" d="M35.644,7.554,32.5,17.676H30.8L28.588,10.76a4.631,4.631,0,0,1-.168-.616c-.028.117-.057.227-.084.329s-.059.2-.091.287l-2.233,6.916H24.3L21.168,7.554h1.575a.693.693,0,0,1,.409.116.56.56,0,0,1,.221.312l1.722,6.055q.056.224.108.487t.108.549q.056-.294.123-.553t.144-.483l1.987-6.055a.669.669,0,0,1,.221-.294.619.619,0,0,1,.4-.133h.554a.631.631,0,0,1,.4.119.733.733,0,0,1,.231.308l1.98,6.055a8.771,8.771,0,0,1,.267,1q.091-.553.2-1l1.723-6.055a.521.521,0,0,1,.213-.3.673.673,0,0,1,.41-.126Z"/>
      <path class="cls-1" d="M45.072,7.554V17.676h-.966a.848.848,0,0,1-.375-.074.863.863,0,0,1-.29-.248l-5.285-6.748c.027.308.042.592.042.854v6.216H36.539V7.554h.987a1.686,1.686,0,0,1,.206.011.5.5,0,0,1,.154.042.511.511,0,0,1,.129.091,1.488,1.488,0,0,1,.141.158l5.306,6.776c-.014-.164-.025-.324-.035-.483s-.014-.306-.014-.441V7.554Z"/>
      <path class="cls-1" d="M52.905,16.122v1.554H46.977V7.554H48.86v8.568Z"/>
      <path class="cls-1" d="M63.2,12.615a5.655,5.655,0,0,1-.368,2.062,4.836,4.836,0,0,1-1.039,1.642A4.733,4.733,0,0,1,60.171,17.4a5.856,5.856,0,0,1-4.193,0,4.764,4.764,0,0,1-1.62-1.082,4.87,4.87,0,0,1-1.047-1.642,5.926,5.926,0,0,1,0-4.123,4.875,4.875,0,0,1,1.047-1.642,4.764,4.764,0,0,1,1.62-1.082,5.465,5.465,0,0,1,2.094-.388,5.691,5.691,0,0,1,1.448.178,5.075,5.075,0,0,1,1.246.5,4.6,4.6,0,0,1,1.019.791,4.828,4.828,0,0,1,.767,1.04A5.091,5.091,0,0,1,63.03,11.2,5.945,5.945,0,0,1,63.2,12.615Zm-1.926,0a4.647,4.647,0,0,0-.224-1.495A3.2,3.2,0,0,0,60.409,10a2.735,2.735,0,0,0-1-.707,3.757,3.757,0,0,0-2.667,0A2.762,2.762,0,0,0,55.73,10a3.182,3.182,0,0,0-.641,1.124,4.647,4.647,0,0,0-.224,1.495,4.643,4.643,0,0,0,.224,1.495,3.145,3.145,0,0,0,.641,1.12,2.77,2.77,0,0,0,1.008.7,3.75,3.75,0,0,0,2.667,0,2.743,2.743,0,0,0,1-.7,3.168,3.168,0,0,0,.637-1.12A4.643,4.643,0,0,0,61.27,12.615Z"/>
      <path class="cls-1" d="M72.869,17.676H71.413a.621.621,0,0,1-.4-.123.76.76,0,0,1-.231-.3l-.756-2.065H65.834l-.756,2.065a.671.671,0,0,1-.217.294.607.607,0,0,1-.4.133h-1.47L66.976,7.554h1.918Zm-3.325-3.822-1.231-3.367q-.091-.224-.189-.532t-.2-.665c-.062.238-.124.461-.189.669s-.128.388-.189.542l-1.225,3.353Z"/>
      <path class="cls-1" d="M82.557,12.615a5.478,5.478,0,0,1-.371,2.044,4.715,4.715,0,0,1-1.043,1.6,4.663,4.663,0,0,1-1.617,1.043,5.7,5.7,0,0,1-2.1.371H73.569V7.554h3.857a5.657,5.657,0,0,1,2.1.375,4.749,4.749,0,0,1,1.617,1.043,4.681,4.681,0,0,1,1.043,1.6A5.478,5.478,0,0,1,82.557,12.615Zm-1.933,0a4.732,4.732,0,0,0-.22-1.495A3.109,3.109,0,0,0,79.767,10a2.771,2.771,0,0,0-1.008-.7,3.452,3.452,0,0,0-1.333-.245H75.458v7.126h1.968a3.452,3.452,0,0,0,1.333-.245,2.77,2.77,0,0,0,1.008-.7,3.111,3.111,0,0,0,.638-1.12A4.728,4.728,0,0,0,80.624,12.615Z"/>
      <path class="cls-1" d="M95.451,7.554V17.676h-.966a.848.848,0,0,1-.375-.074.863.863,0,0,1-.29-.248l-5.285-6.748c.027.308.042.592.042.854v6.216H86.918V7.554h.987a1.686,1.686,0,0,1,.206.011.5.5,0,0,1,.154.042.511.511,0,0,1,.129.091,1.488,1.488,0,0,1,.141.158l5.306,6.776c-.014-.164-.025-.324-.035-.483s-.014-.306-.014-.441V7.554Z"/>
      <path class="cls-1" d="M106.028,17.676h-1.456a.621.621,0,0,1-.4-.123.76.76,0,0,1-.231-.3l-.756-2.065H98.992l-.756,2.065a.671.671,0,0,1-.217.294.607.607,0,0,1-.4.133h-1.47l3.983-10.122h1.918ZM102.7,13.854l-1.231-3.367q-.091-.224-.189-.532t-.2-.665c-.062.238-.124.461-.189.669s-.128.388-.189.542l-1.225,3.353Z"/>
      <path class="cls-1" d="M113.377,15.289a.375.375,0,0,1,.272.119l.742.805a4.069,4.069,0,0,1-1.516,1.169,5.224,5.224,0,0,1-2.159.406,5.1,5.1,0,0,1-2.026-.385,4.458,4.458,0,0,1-1.536-1.071,4.671,4.671,0,0,1-.977-1.638,6.143,6.143,0,0,1-.34-2.079,5.775,5.775,0,0,1,.364-2.089,4.792,4.792,0,0,1,1.025-1.635,4.639,4.639,0,0,1,1.578-1.067,5.235,5.235,0,0,1,2.03-.381,4.982,4.982,0,0,1,1.963.364,4.672,4.672,0,0,1,1.46.952l-.63.875a.561.561,0,0,1-.144.147.407.407,0,0,1-.241.063.467.467,0,0,1-.218-.06c-.074-.04-.156-.088-.244-.147s-.191-.123-.309-.192a2.5,2.5,0,0,0-.406-.192,3.249,3.249,0,0,0-.535-.147,3.668,3.668,0,0,0-.7-.06,3.131,3.131,0,0,0-1.243.241,2.7,2.7,0,0,0-.969.7,3.214,3.214,0,0,0-.631,1.12,4.691,4.691,0,0,0-.224,1.508A4.455,4.455,0,0,0,108,14.134a3.341,3.341,0,0,0,.655,1.12,2.8,2.8,0,0,0,.973.7,3,3,0,0,0,1.2.242,5.272,5.272,0,0,0,.7-.042,2.946,2.946,0,0,0,.574-.133,2.542,2.542,0,0,0,.5-.234,3.065,3.065,0,0,0,.465-.354.669.669,0,0,1,.147-.1A.356.356,0,0,1,113.377,15.289Z"/>
      <path class="cls-1" d="M126.593,17.676h-1.456a.621.621,0,0,1-.4-.123.76.76,0,0,1-.231-.3l-.756-2.065h-4.193l-.756,2.065a.671.671,0,0,1-.217.294.607.607,0,0,1-.4.133h-1.47L120.7,7.554h1.918Zm-3.325-3.822-1.231-3.367q-.091-.224-.189-.532t-.2-.665c-.062.238-.124.461-.189.669s-.128.388-.189.542l-1.225,3.353Z"/>
      <path class="cls-1" d="M130.583,7.554a5.771,5.771,0,0,1,1.757.238,3.377,3.377,0,0,1,1.225.665,2.637,2.637,0,0,1,.718,1.022,3.521,3.521,0,0,1,.234,1.3,3.582,3.582,0,0,1-.245,1.348,2.8,2.8,0,0,1-.734,1.053,3.42,3.42,0,0,1-1.229.686,5.479,5.479,0,0,1-1.726.245h-1.407v3.563h-1.883V7.554Zm0,5.089a2.836,2.836,0,0,0,.9-.129,1.71,1.71,0,0,0,.64-.371,1.494,1.494,0,0,0,.382-.588,2.25,2.25,0,0,0,.126-.773,2.041,2.041,0,0,0-.126-.735,1.452,1.452,0,0,0-.378-.56,1.673,1.673,0,0,0-.637-.354,3.021,3.021,0,0,0-.91-.123h-1.407v3.633Z"/>
      <path class="cls-1" d="M138.9,7.554a5.771,5.771,0,0,1,1.757.238,3.377,3.377,0,0,1,1.225.665,2.637,2.637,0,0,1,.718,1.022,3.521,3.521,0,0,1,.234,1.3,3.582,3.582,0,0,1-.245,1.348,2.8,2.8,0,0,1-.734,1.053,3.42,3.42,0,0,1-1.229.686,5.479,5.479,0,0,1-1.726.245h-1.407v3.563h-1.883V7.554Zm0,5.089a2.836,2.836,0,0,0,.9-.129,1.71,1.71,0,0,0,.64-.371,1.494,1.494,0,0,0,.382-.588,2.25,2.25,0,0,0,.126-.773,2.041,2.041,0,0,0-.126-.735,1.452,1.452,0,0,0-.378-.56,1.673,1.673,0,0,0-.637-.354,3.021,3.021,0,0,0-.91-.123h-1.407v3.633Z"/>
    </g>
    <g>
      <g id="_5mtoDT" data-name="5mtoDT">
        <g>
          <path class="cls-1" d="M163.619,19.974h-.8a4.9,4.9,0,0,1-2.512-2.066,13.447,13.447,0,0,1-2.243-5.212,8.406,8.406,0,0,1,.488-5.211,4.442,4.442,0,0,1,3.621-2.839,7.215,7.215,0,0,1,3,.454,4.011,4.011,0,0,0,2.606-.044,13.455,13.455,0,0,1,1.748-.478,4.456,4.456,0,0,1,4.451,1.963,4.7,4.7,0,0,0-2.091,4.211,4.469,4.469,0,0,0,2.664,3.873,10.687,10.687,0,0,1-2.969,4.718,2.441,2.441,0,0,1-2.25.482c-.4-.111-.8-.223-1.187-.354a4.194,4.194,0,0,0-2.779-.1Z"/>
          <path class="cls-1" d="M170.011,0c.429,1.683-1.257,4.748-3.536,4.809-.1,0-.2.025-.379.048.02-.283.023-.553.061-.818A4.427,4.427,0,0,1,169.634.1c.1-.026.192-.066.288-.1Z"/>
        </g>
      </g>
      <g id="YiWdhM.tif">
        <g>
          <path class="cls-1" d="M186.174,20.954a.73.73,0,0,0-.09-.042,1.258,1.258,0,0,1-.944-1.271c-.005-.845-.009-1.69,0-2.535,0-.164-.045-.228-.215-.22-.241.012-.483,0-.724,0a1.246,1.246,0,0,1-1.24-1.226c0-2.729,0-5.459-.005-8.188,0-.163.057-.2.21-.2q5.422.005,10.843,0c.157,0,.208.045.208.2,0,2.709,0,5.418-.005,8.127a1.257,1.257,0,0,1-1.31,1.283c-.215,0-.429,0-.644,0-.425,0-.368-.045-.369.38,0,.778,0,1.556,0,2.334a1.235,1.235,0,0,1-.938,1.311.409.409,0,0,0-.068.04H190.4a.267.267,0,0,0-.051-.031,1.233,1.233,0,0,1-.963-1.326c0-.83-.017-1.66-.017-2.49,0-.164-.049-.224-.217-.22-.415.009-.83.012-1.245,0-.19-.006-.254.047-.252.245.011.85.006,1.7.005,2.551a1.244,1.244,0,0,1-.821,1.194c-.061.023-.121.052-.181.078Z"/>
          <path class="cls-1" d="M192.17.351a.233.233,0,0,1,0,.308c-.279.474-.551.952-.825,1.428-.04.069-.078.139-.125.224a5.672,5.672,0,0,1,2.937,4.5H182.963a5.679,5.679,0,0,1,2.9-4.476l-.588-1.022c-.127-.221-.251-.444-.383-.661-.069-.114-.079-.21.035-.3h.04a1.774,1.774,0,0,1,.16.2c.285.485.571.97.843,1.463.089.162.165.2.34.116a5.321,5.321,0,0,1,2.3-.476,5.421,5.421,0,0,1,2.222.483c.122.055.178.025.238-.082q.34-.6.691-1.2c.1-.172.216-.336.325-.5Zm-1.611,3.969a.523.523,0,0,0,1.046.016.523.523,0,1,0-1.046-.016Zm-5.16,0a.521.521,0,0,0,.525.522.52.52,0,1,0-.525-.522Z"/>
          <path class="cls-1" d="M197.24,13.952c-.016.036-.036.071-.048.109a1.262,1.262,0,0,1-2.473-.385c-.008-1.313-.007-2.626-.009-3.939,0-.456,0-.911,0-1.367a1.256,1.256,0,0,1,2.487-.264c.01.045.028.088.042.133Z"/>
          <path class="cls-1" d="M179.9,8.117a.462.462,0,0,0,.038-.07,1.257,1.257,0,0,1,1.462-.928,1.276,1.276,0,0,1,1.022,1.33q.008,2.2.008,4.4c0,.288,0,.576,0,.864a1.259,1.259,0,0,1-2.479.307c-.014-.051-.034-.1-.051-.15Z"/>
        </g>
      </g>
    </g>
  </g>
</svg>
