<svg id="Layer_1" data-name="Layer 1" xmlns="http://www.w3.org/2000/svg" viewBox="0 0 523.307 198.774">
  <defs>
    <style>
      .cls-1 {
        fill: #fff;
      }

      .cls-2 {
        fill: #c9232a;
      }
    </style>
  </defs>
  <title>570edb0b-0805-40ae-8ab0-81e9b60f63ea</title>
  <g>
    <g>
      <path class="cls-1" d="M42.7,6.288,33.131,36.711H31.153l-8.987-26.4q-.172-.536-.3-1.117-.13.58-.3,1.117l-9.008,26.4H10.6L1.011,6.288H2.838a.752.752,0,0,1,.8.581l7.676,25q.237.861.43,1.957.108-.56.215-1.043a7.97,7.97,0,0,1,.258-.914l8.6-25a.925.925,0,0,1,.3-.409.8.8,0,0,1,.516-.172h.6a.747.747,0,0,1,.495.161,1.081,1.081,0,0,1,.3.42l8.6,25a8.054,8.054,0,0,1,.269.9q.118.5.226,1.032.107-.538.2-1.021t.2-.914l7.676-25a.765.765,0,0,1,.29-.409.847.847,0,0,1,.527-.172Z"/>
      <path class="cls-1" d="M45.817,25.165v.409a14.494,14.494,0,0,0,.559,4.235,8.672,8.672,0,0,0,1.591,3.063,6.565,6.565,0,0,0,2.494,1.86,8.262,8.262,0,0,0,3.268.623A9.784,9.784,0,0,0,56.524,35a10.407,10.407,0,0,0,1.989-.8,10.95,10.95,0,0,0,1.279-.795,1.444,1.444,0,0,1,.688-.355.5.5,0,0,1,.43.215l.559.688a5.86,5.86,0,0,1-1.365,1.2,9.766,9.766,0,0,1-1.892.957,13.789,13.789,0,0,1-2.236.634,12.332,12.332,0,0,1-2.4.236,10.192,10.192,0,0,1-4-.763A8.481,8.481,0,0,1,46.483,34a10.131,10.131,0,0,1-1.989-3.58,15.45,15.45,0,0,1-.7-4.848,13.221,13.221,0,0,1,.656-4.246,9.723,9.723,0,0,1,1.892-3.354,8.636,8.636,0,0,1,3.032-2.2,9.973,9.973,0,0,1,4.074-.795A8.908,8.908,0,0,1,56.8,15.6a7.6,7.6,0,0,1,2.688,1.817,8.544,8.544,0,0,1,1.795,2.935,11.307,11.307,0,0,1,.656,4,1.14,1.14,0,0,1-.129.645.5.5,0,0,1-.43.172Zm14.276-1.312a9.205,9.205,0,0,0-.484-3.085,6.558,6.558,0,0,0-1.365-2.312,5.971,5.971,0,0,0-2.1-1.451,6.921,6.921,0,0,0-2.677-.5,8.055,8.055,0,0,0-2.967.516A6.5,6.5,0,0,0,48.236,18.5,7.419,7.419,0,0,0,46.7,20.822a10.822,10.822,0,0,0-.774,3.031Z"/>
      <path class="cls-1" d="M87.656,14.975a10.3,10.3,0,0,1,4.117.784,8.4,8.4,0,0,1,3.063,2.226,9.876,9.876,0,0,1,1.9,3.473A14.78,14.78,0,0,1,97.4,26a14.674,14.674,0,0,1-.655,4.536A9.877,9.877,0,0,1,94.837,34a8.3,8.3,0,0,1-3.063,2.215,11.345,11.345,0,0,1-8.234,0A8.382,8.382,0,0,1,80.465,34a9.774,9.774,0,0,1-1.914-3.462A14.645,14.645,0,0,1,77.9,26a14.75,14.75,0,0,1,.655-4.547,9.773,9.773,0,0,1,1.914-3.473,8.487,8.487,0,0,1,3.074-2.226A10.3,10.3,0,0,1,87.656,14.975Zm0,20.4A7.959,7.959,0,0,0,91,34.723a6.331,6.331,0,0,0,2.387-1.882,8.291,8.291,0,0,0,1.43-2.956A14.715,14.715,0,0,0,95.289,26a14.752,14.752,0,0,0-.474-3.87,8.4,8.4,0,0,0-1.43-2.978A6.382,6.382,0,0,0,91,17.254a8.712,8.712,0,0,0-6.687,0,6.379,6.379,0,0,0-2.386,1.9,8.52,8.52,0,0,0-1.44,2.978A14.416,14.416,0,0,0,80,26a14.38,14.38,0,0,0,.484,3.881,8.4,8.4,0,0,0,1.44,2.956,6.328,6.328,0,0,0,2.386,1.882A7.961,7.961,0,0,0,87.656,35.378Z"/>
      <path class="cls-1" d="M104.083,36.711V17.555l-3.011-.193q-.6-.064-.6-.538v-.838h3.612v-2.43a9.954,9.954,0,0,1,.473-3.215,6.352,6.352,0,0,1,1.333-2.311,5.435,5.435,0,0,1,2.063-1.387,7.374,7.374,0,0,1,2.666-.463,8.6,8.6,0,0,1,1.344.107,4.922,4.922,0,0,1,1.215.345l-.064.988a.286.286,0,0,1-.183.237,1.261,1.261,0,0,1-.4.032q-.258-.012-.667-.064a7.27,7.27,0,0,0-.945-.055,5.857,5.857,0,0,0-1.946.313,3.8,3.8,0,0,0-1.537,1,4.662,4.662,0,0,0-1,1.807,9.12,9.12,0,0,0-.354,2.73v2.365h11.094V13.168a9.951,9.951,0,0,1,.474-3.214,6.329,6.329,0,0,1,1.333-2.312,5.447,5.447,0,0,1,2.063-1.387,7.4,7.4,0,0,1,2.666-.462,7.868,7.868,0,0,1,1.344.118,5.669,5.669,0,0,1,1.193.333l-.064.989a.269.269,0,0,1-.161.247,1.055,1.055,0,0,1-.408.043c-.18-.007-.4-.028-.667-.064a7.405,7.405,0,0,0-.957-.054,5.787,5.787,0,0,0-1.935.312,3.808,3.808,0,0,0-1.526,1,4.652,4.652,0,0,0-1,1.8,9.014,9.014,0,0,0-.354,2.72v2.752H126.1v1.526h-6.88v19.2h-2.043v-19.2H106.146v19.2Z"/>
      <path class="cls-1" d="M130.4,25.165v.409a14.493,14.493,0,0,0,.56,4.235,8.656,8.656,0,0,0,1.591,3.063,6.555,6.555,0,0,0,2.494,1.86,8.26,8.26,0,0,0,3.268.623A9.784,9.784,0,0,0,141.1,35a10.426,10.426,0,0,0,1.989-.8,10.992,10.992,0,0,0,1.279-.795,1.441,1.441,0,0,1,.688-.355.493.493,0,0,1,.43.215l.56.688a5.86,5.86,0,0,1-1.365,1.2,9.757,9.757,0,0,1-1.893.957,13.805,13.805,0,0,1-2.235.634,12.341,12.341,0,0,1-2.4.236,10.192,10.192,0,0,1-4-.763,8.471,8.471,0,0,1-3.1-2.226,10.124,10.124,0,0,1-1.989-3.58,15.451,15.451,0,0,1-.7-4.848,13.208,13.208,0,0,1,.655-4.246,9.716,9.716,0,0,1,1.893-3.354,8.625,8.625,0,0,1,3.031-2.2,9.973,9.973,0,0,1,4.074-.795,8.9,8.9,0,0,1,3.354.623,7.6,7.6,0,0,1,2.688,1.817,8.546,8.546,0,0,1,1.8,2.935,11.318,11.318,0,0,1,.655,4,1.14,1.14,0,0,1-.129.645.5.5,0,0,1-.43.172Zm14.276-1.312a9.18,9.18,0,0,0-.484-3.085,6.544,6.544,0,0,0-1.365-2.312,5.97,5.97,0,0,0-2.1-1.451,6.923,6.923,0,0,0-2.677-.5,8.05,8.05,0,0,0-2.967.516,6.5,6.5,0,0,0-2.269,1.483,7.427,7.427,0,0,0-1.537,2.322,10.822,10.822,0,0,0-.774,3.031Z"/>
      <path class="cls-1" d="M154.048,20.479a13.361,13.361,0,0,1,1.129-2.333,7.39,7.39,0,0,1,1.462-1.73,6.023,6.023,0,0,1,1.849-1.086,6.519,6.519,0,0,1,2.269-.376,7.231,7.231,0,0,1,1.312.118,3.344,3.344,0,0,1,1.14.419l-.172,1.419a.416.416,0,0,1-.409.345,3.18,3.18,0,0,1-.784-.151,5.232,5.232,0,0,0-1.387-.15,5.987,5.987,0,0,0-2.2.377,5.092,5.092,0,0,0-1.72,1.128,7.237,7.237,0,0,0-1.333,1.86,17.574,17.574,0,0,0-1.043,2.548V36.711h-2.063V15.318h1.1a.721.721,0,0,1,.517.15.876.876,0,0,1,.193.517Z"/>
      <path class="cls-1" d="M177.44,18.35a12.459,12.459,0,0,1,3.526-2.537,9.843,9.843,0,0,1,4.192-.859,7.651,7.651,0,0,1,3.01.548,5.56,5.56,0,0,1,2.14,1.569,6.894,6.894,0,0,1,1.279,2.473,11.4,11.4,0,0,1,.43,3.236V36.711H191.2a.735.735,0,0,1-.795-.6l-.3-2.752a22.471,22.471,0,0,1-1.753,1.548,10.472,10.472,0,0,1-1.816,1.161,9.312,9.312,0,0,1-2.043.73,10.513,10.513,0,0,1-2.407.258,7.1,7.1,0,0,1-2.129-.322,5.363,5.363,0,0,1-1.838-.989,4.774,4.774,0,0,1-1.29-1.709,5.9,5.9,0,0,1-.484-2.5,4.451,4.451,0,0,1,.774-2.516,6.338,6.338,0,0,1,2.43-2.021,16.124,16.124,0,0,1,4.246-1.376,36.776,36.776,0,0,1,6.225-.6V22.779a7.169,7.169,0,0,0-1.279-4.569,4.568,4.568,0,0,0-3.795-1.6,7.173,7.173,0,0,0-2.634.43,9.356,9.356,0,0,0-1.839.946,11.357,11.357,0,0,0-1.225.946,1.326,1.326,0,0,1-.8.43.643.643,0,0,1-.387-.107.976.976,0,0,1-.259-.279Zm12.578,8.02a40.185,40.185,0,0,0-5.257.484,15.171,15.171,0,0,0-3.634,1.021,5.438,5.438,0,0,0-2.118,1.538,3.235,3.235,0,0,0-.687,2.031,4.483,4.483,0,0,0,.354,1.859,3.62,3.62,0,0,0,.946,1.29,3.756,3.756,0,0,0,1.365.742,5.468,5.468,0,0,0,1.612.236,9.146,9.146,0,0,0,2.29-.269,8.44,8.44,0,0,0,1.935-.753,9.419,9.419,0,0,0,1.666-1.149q.775-.667,1.527-1.441Z"/>
      <path class="cls-1" d="M237.9,15.318,230.76,36.711h-1.526c-.244,0-.408-.15-.494-.451l-5.849-17.372c-.071-.215-.136-.431-.193-.646s-.107-.43-.15-.645a8.447,8.447,0,0,1-.322,1.29L216.291,36.26a.523.523,0,0,1-.517.451h-1.462l-7.138-21.393h1.548a.746.746,0,0,1,.494.161.8.8,0,0,1,.259.354l5.4,16.878q.129.5.236.957c.071.309.129.612.172.913q.129-.451.258-.913t.3-.957l5.72-17.028a.594.594,0,0,1,.6-.473H223a.608.608,0,0,1,.623.473L229.3,32.712q.151.5.279.946c.087.3.165.6.237.9.057-.3.118-.6.183-.9s.146-.616.247-.946l5.439-16.878a.781.781,0,0,1,.279-.376.753.753,0,0,1,.452-.14Z"/>
      <path class="cls-1" d="M245.659,7.944a1.63,1.63,0,0,1-.161.72,2.169,2.169,0,0,1-.419.592,1.962,1.962,0,0,1-.6.408,1.852,1.852,0,0,1-1.462,0,1.946,1.946,0,0,1-.6-.408A1.982,1.982,0,0,1,242,8.664a1.722,1.722,0,0,1-.15-.72A1.874,1.874,0,0,1,242,7.2a1.9,1.9,0,0,1,.409-.612,1.932,1.932,0,0,1,.6-.409,1.852,1.852,0,0,1,1.462,0,1.947,1.947,0,0,1,.6.409,2.064,2.064,0,0,1,.419.612A1.773,1.773,0,0,1,245.659,7.944Zm-.882,7.374V36.711h-2.042V15.318Z"/>
      <path class="cls-1" d="M268.707,5.429V36.711h-1.118a.588.588,0,0,1-.645-.559l-.215-3.376a11.389,11.389,0,0,1-3.312,3.074,8.09,8.09,0,0,1-4.257,1.14,7.441,7.441,0,0,1-6.149-2.73q-2.193-2.73-2.192-8.191a15.092,15.092,0,0,1,.612-4.375,10.51,10.51,0,0,1,1.795-3.526,8.493,8.493,0,0,1,2.914-2.354,8.863,8.863,0,0,1,3.988-.859,8.332,8.332,0,0,1,3.762.795,7.893,7.893,0,0,1,2.773,2.365V5.429ZM266.664,19.92a7.316,7.316,0,0,0-2.72-2.6,8.194,8.194,0,0,0-6.719-.064,6.509,6.509,0,0,0-2.375,1.945,8.751,8.751,0,0,0-1.44,3.01,14.453,14.453,0,0,0-.484,3.859q0,4.772,1.753,7.02a6.035,6.035,0,0,0,5.063,2.247,7.074,7.074,0,0,0,3.849-1.1,10.456,10.456,0,0,0,3.074-3.074Z"/>
      <path class="cls-1" d="M276.489,25.165v.409a14.493,14.493,0,0,0,.56,4.235,8.656,8.656,0,0,0,1.591,3.063,6.555,6.555,0,0,0,2.494,1.86,8.26,8.26,0,0,0,3.268.623A9.784,9.784,0,0,0,287.2,35a10.426,10.426,0,0,0,1.989-.8,10.992,10.992,0,0,0,1.279-.795,1.441,1.441,0,0,1,.688-.355.493.493,0,0,1,.43.215l.56.688a5.86,5.86,0,0,1-1.365,1.2,9.757,9.757,0,0,1-1.893.957,13.805,13.805,0,0,1-2.235.634,12.341,12.341,0,0,1-2.4.236,10.192,10.192,0,0,1-4-.763,8.471,8.471,0,0,1-3.1-2.226,10.124,10.124,0,0,1-1.989-3.58,15.451,15.451,0,0,1-.7-4.848,13.208,13.208,0,0,1,.655-4.246,9.716,9.716,0,0,1,1.893-3.354,8.625,8.625,0,0,1,3.031-2.2,9.973,9.973,0,0,1,4.074-.795,8.9,8.9,0,0,1,3.354.623,7.6,7.6,0,0,1,2.688,1.817,8.546,8.546,0,0,1,1.8,2.935,11.318,11.318,0,0,1,.655,4,1.14,1.14,0,0,1-.129.645.5.5,0,0,1-.43.172Zm14.276-1.312a9.18,9.18,0,0,0-.484-3.085,6.544,6.544,0,0,0-1.365-2.312,5.97,5.97,0,0,0-2.1-1.451,6.923,6.923,0,0,0-2.677-.5,8.05,8.05,0,0,0-2.967.516,6.5,6.5,0,0,0-2.269,1.483,7.427,7.427,0,0,0-1.537,2.322,10.822,10.822,0,0,0-.774,3.031Z"/>
      <path class="cls-1" d="M5.482,62.479a13.326,13.326,0,0,1,1.129-2.333,7.378,7.378,0,0,1,1.462-1.73,6.02,6.02,0,0,1,1.849-1.086,6.514,6.514,0,0,1,2.268-.376,7.235,7.235,0,0,1,1.312.118,3.341,3.341,0,0,1,1.14.419l-.172,1.419a.416.416,0,0,1-.409.345,3.187,3.187,0,0,1-.785-.151,5.235,5.235,0,0,0-1.387-.15,5.989,5.989,0,0,0-2.2.377,5.087,5.087,0,0,0-1.72,1.128,7.225,7.225,0,0,0-1.333,1.86A17.574,17.574,0,0,0,5.59,64.865V78.711H3.526V57.318h1.1a.72.72,0,0,1,.516.15.87.87,0,0,1,.193.517Z"/>
      <path class="cls-1" d="M17.672,60.35A12.466,12.466,0,0,1,21.2,57.813a9.843,9.843,0,0,1,4.192-.859,7.653,7.653,0,0,1,3.01.548,5.56,5.56,0,0,1,2.14,1.569,6.878,6.878,0,0,1,1.279,2.473,11.378,11.378,0,0,1,.43,3.236V78.711h-.817a.736.736,0,0,1-.8-.6l-.3-2.752a22.643,22.643,0,0,1-1.752,1.548,10.513,10.513,0,0,1-1.817,1.161,9.317,9.317,0,0,1-2.042.73,10.525,10.525,0,0,1-2.408.258,7.1,7.1,0,0,1-2.128-.322,5.365,5.365,0,0,1-1.838-.989,4.791,4.791,0,0,1-1.29-1.709,5.92,5.92,0,0,1-.483-2.5,4.446,4.446,0,0,1,.774-2.516,6.348,6.348,0,0,1,2.429-2.021,16.134,16.134,0,0,1,4.247-1.376,36.78,36.78,0,0,1,6.224-.6V64.779A7.169,7.169,0,0,0,28.97,60.21a4.566,4.566,0,0,0-3.794-1.6,7.173,7.173,0,0,0-2.634.43,9.351,9.351,0,0,0-1.838.946,11.429,11.429,0,0,0-1.226.946,1.325,1.325,0,0,1-.8.43.645.645,0,0,1-.387-.107.966.966,0,0,1-.258-.279Zm12.578,8.02a40.2,40.2,0,0,0-5.257.484,15.173,15.173,0,0,0-3.633,1.021,5.429,5.429,0,0,0-2.118,1.538,3.235,3.235,0,0,0-.688,2.031,4.483,4.483,0,0,0,.354,1.859,3.626,3.626,0,0,0,.946,1.29,3.764,3.764,0,0,0,1.365.742,5.466,5.466,0,0,0,1.612.236,9.142,9.142,0,0,0,2.29-.269,8.426,8.426,0,0,0,1.935-.753A9.441,9.441,0,0,0,28.723,75.4q.774-.667,1.526-1.441Z"/>
      <path class="cls-1" d="M41.042,61.06a12.126,12.126,0,0,1,3.429-2.967A8.542,8.542,0,0,1,48.8,56.975a8.05,8.05,0,0,1,3.106.559,5.711,5.711,0,0,1,2.226,1.612,7.16,7.16,0,0,1,1.333,2.537,11.523,11.523,0,0,1,.451,3.354V78.711H53.856V65.037a7.332,7.332,0,0,0-1.376-4.72,5.06,5.06,0,0,0-4.192-1.709,7.586,7.586,0,0,0-3.9,1.064,11.023,11.023,0,0,0-3.236,2.956V78.711H39.085V57.318h1.14a.571.571,0,0,1,.624.537Z"/>
      <path class="cls-1" d="M79.956,58.265v.709q0,.473-.6.581l-3.268.236a6.3,6.3,0,0,1,.924,1.827,7.186,7.186,0,0,1,.322,2.193,6.955,6.955,0,0,1-.548,2.806,6.123,6.123,0,0,1-1.548,2.15,7.119,7.119,0,0,1-2.408,1.387,9.337,9.337,0,0,1-3.106.494,9.524,9.524,0,0,1-3.333-.559A4.645,4.645,0,0,0,64.96,71.3a2.305,2.305,0,0,0-.527,1.388,1.67,1.67,0,0,0,.656,1.419,4.317,4.317,0,0,0,1.72.72,15.254,15.254,0,0,0,2.429.29q1.365.064,2.785.14t2.784.27a8.849,8.849,0,0,1,2.429.677,4.376,4.376,0,0,1,1.721,1.354,3.753,3.753,0,0,1,.655,2.312,5.3,5.3,0,0,1-.666,2.559A6.78,6.78,0,0,1,77.021,84.6a10.17,10.17,0,0,1-3.042,1.517,13.141,13.141,0,0,1-4,.569,15.166,15.166,0,0,1-3.956-.462,9.44,9.44,0,0,1-2.849-1.247,5.462,5.462,0,0,1-1.731-1.817,4.406,4.406,0,0,1-.581-2.192,4.149,4.149,0,0,1,1.118-2.913,7.442,7.442,0,0,1,3.053-1.9A4.146,4.146,0,0,1,63.3,75.088a2.665,2.665,0,0,1-.656-1.9,2.88,2.88,0,0,1,.172-.946,3.929,3.929,0,0,1,.516-.979,5.249,5.249,0,0,1,.838-.913,6.387,6.387,0,0,1,1.119-.774,6.355,6.355,0,0,1-2.376-2.344,6.676,6.676,0,0,1-.85-3.418,6.951,6.951,0,0,1,.548-2.806,6.17,6.17,0,0,1,1.559-2.161,7.142,7.142,0,0,1,2.418-1.4,10.128,10.128,0,0,1,5.741-.15,7.772,7.772,0,0,1,2.139.968ZM77.721,80.151a2.4,2.4,0,0,0-.527-1.623,3.483,3.483,0,0,0-1.408-.957,8.39,8.39,0,0,0-2.031-.483q-1.151-.139-2.408-.2l-2.526-.129a19.956,19.956,0,0,1-2.387-.259,9.87,9.87,0,0,0-1.5.742,5.423,5.423,0,0,0-1.183.957,4.246,4.246,0,0,0-.774,1.171,3.44,3.44,0,0,0,.2,3.118,4.275,4.275,0,0,0,1.419,1.4,7.931,7.931,0,0,0,2.29.936A12.755,12.755,0,0,0,70,85.161a12.1,12.1,0,0,0,3.042-.365A8.493,8.493,0,0,0,75.5,83.764a5.274,5.274,0,0,0,1.634-1.591A3.678,3.678,0,0,0,77.721,80.151Zm-8-10.9a7.048,7.048,0,0,0,2.451-.4,5.1,5.1,0,0,0,1.806-1.107,4.747,4.747,0,0,0,1.118-1.7,6.361,6.361,0,0,0-.011-4.4,4.784,4.784,0,0,0-1.14-1.709,5.093,5.093,0,0,0-1.806-1.1,7.759,7.759,0,0,0-4.838,0,5.084,5.084,0,0,0-1.806,1.1,4.654,4.654,0,0,0-1.129,1.709,6.054,6.054,0,0,0-.387,2.2,5.966,5.966,0,0,0,.387,2.193,4.677,4.677,0,0,0,1.129,1.7A5.22,5.22,0,0,0,67.3,68.854,6.889,6.889,0,0,0,69.723,69.251Z"/>
      <path class="cls-1" d="M85.139,67.165v.409a14.493,14.493,0,0,0,.56,4.235,8.656,8.656,0,0,0,1.591,3.063,6.555,6.555,0,0,0,2.494,1.86,8.26,8.26,0,0,0,3.268.623A9.784,9.784,0,0,0,95.846,77a10.426,10.426,0,0,0,1.989-.8,10.992,10.992,0,0,0,1.279-.795,1.441,1.441,0,0,1,.688-.355.493.493,0,0,1,.43.215l.56.688a5.86,5.86,0,0,1-1.365,1.2,9.757,9.757,0,0,1-1.893.957,13.805,13.805,0,0,1-2.235.634,12.341,12.341,0,0,1-2.4.236,10.192,10.192,0,0,1-4-.763A8.471,8.471,0,0,1,85.806,76a10.124,10.124,0,0,1-1.989-3.58,15.451,15.451,0,0,1-.7-4.848,13.208,13.208,0,0,1,.655-4.246,9.716,9.716,0,0,1,1.893-3.354,8.625,8.625,0,0,1,3.031-2.2,9.973,9.973,0,0,1,4.074-.795,8.9,8.9,0,0,1,3.354.623,7.6,7.6,0,0,1,2.688,1.817,8.546,8.546,0,0,1,1.8,2.935,11.318,11.318,0,0,1,.655,4,1.14,1.14,0,0,1-.129.645.5.5,0,0,1-.43.172Zm14.276-1.312a9.18,9.18,0,0,0-.484-3.085,6.544,6.544,0,0,0-1.365-2.312,5.97,5.97,0,0,0-2.1-1.451,6.923,6.923,0,0,0-2.677-.5,8.05,8.05,0,0,0-2.967.516A6.5,6.5,0,0,0,87.558,60.5a7.427,7.427,0,0,0-1.537,2.322,10.822,10.822,0,0,0-.774,3.031Z"/>
      <path class="cls-1" d="M126.979,56.975a10.3,10.3,0,0,1,4.117.784,8.4,8.4,0,0,1,3.063,2.226,9.876,9.876,0,0,1,1.9,3.473,16.066,16.066,0,0,1,0,9.083,9.877,9.877,0,0,1-1.9,3.462,8.3,8.3,0,0,1-3.063,2.215,11.345,11.345,0,0,1-8.234,0A8.382,8.382,0,0,1,119.787,76a9.774,9.774,0,0,1-1.914-3.462,16.066,16.066,0,0,1,0-9.083,9.773,9.773,0,0,1,1.914-3.473,8.487,8.487,0,0,1,3.074-2.226A10.3,10.3,0,0,1,126.979,56.975Zm0,20.4a7.959,7.959,0,0,0,3.343-.655,6.331,6.331,0,0,0,2.387-1.882,8.291,8.291,0,0,0,1.43-2.956,16.092,16.092,0,0,0,0-7.751,8.4,8.4,0,0,0-1.43-2.978,6.382,6.382,0,0,0-2.387-1.9,8.712,8.712,0,0,0-6.687,0,6.379,6.379,0,0,0-2.386,1.9,8.52,8.52,0,0,0-1.44,2.978,15.746,15.746,0,0,0,0,7.751,8.4,8.4,0,0,0,1.44,2.956,6.328,6.328,0,0,0,2.386,1.882A7.961,7.961,0,0,0,126.979,77.378Z"/>
      <path class="cls-1" d="M143.405,78.711V59.555l-3.011-.193q-.6-.064-.6-.538v-.838h3.612V55.276a9.954,9.954,0,0,1,.473-3.215,6.357,6.357,0,0,1,1.333-2.312,5.458,5.458,0,0,1,2.063-1.387,7.4,7.4,0,0,1,2.666-.462,7.868,7.868,0,0,1,1.344.118,6.154,6.154,0,0,1,1.215.333l-.064.989a.311.311,0,0,1-.183.247,1.011,1.011,0,0,1-.4.043q-.258-.01-.667-.064a7.461,7.461,0,0,0-.945-.054,5.857,5.857,0,0,0-1.946.313,3.786,3.786,0,0,0-1.537,1,4.664,4.664,0,0,0-1,1.8,9.014,9.014,0,0,0-.354,2.72v2.645h6.944v1.526h-6.88v19.2Z"/>
      <path class="cls-1" d="M172.581,58.823a16.393,16.393,0,0,1,1.333-1.118,7.809,7.809,0,0,1,1.473-.87,8.8,8.8,0,0,1,1.7-.56,9.131,9.131,0,0,1,1.988-.2,7.8,7.8,0,0,1,3.235.635,6.7,6.7,0,0,1,2.376,1.763,7.589,7.589,0,0,1,1.462,2.688,11.13,11.13,0,0,1,.5,3.386V78.711h-6.665V64.542A3.9,3.9,0,0,0,179.225,62a2.7,2.7,0,0,0-2.214-.914,4.666,4.666,0,0,0-2.054.462A8.27,8.27,0,0,0,173.1,62.8v15.91h-6.665v-22.3h4.128a1.567,1.567,0,0,1,1.634,1.118Z"/>
      <path class="cls-1" d="M196.425,68.757a6.287,6.287,0,0,0,1.7,4.053,5.056,5.056,0,0,0,3.548,1.258,6.341,6.341,0,0,0,2-.28,9.975,9.975,0,0,0,1.494-.623q.656-.344,1.2-.624a2.509,2.509,0,0,1,1.15-.279,1.377,1.377,0,0,1,1.2.581l1.935,2.386a9.906,9.906,0,0,1-2.225,1.925,11.645,11.645,0,0,1-2.451,1.161,13.3,13.3,0,0,1-2.516.58,18.9,18.9,0,0,1-2.4.161,12.513,12.513,0,0,1-4.4-.763,10.09,10.09,0,0,1-3.591-2.269,10.7,10.7,0,0,1-2.43-3.741,13.978,13.978,0,0,1-.892-5.2,11.776,11.776,0,0,1,.763-4.235,10.293,10.293,0,0,1,5.655-5.891,12.333,12.333,0,0,1,8.643-.193,8.81,8.81,0,0,1,3.16,2,9.125,9.125,0,0,1,2.064,3.215,11.8,11.8,0,0,1,.741,4.311,9.416,9.416,0,0,1-.064,1.226,1.922,1.922,0,0,1-.236.752.9.9,0,0,1-.462.388,2.174,2.174,0,0,1-.742.107Zm8.385-3.87a5.9,5.9,0,0,0-.2-1.548A3.749,3.749,0,0,0,203.938,62a3.386,3.386,0,0,0-1.215-.957,4.144,4.144,0,0,0-1.827-.365,3.986,3.986,0,0,0-2.967,1.085,5.653,5.653,0,0,0-1.419,3.129Z"/>
      <path class="cls-1" d="M246.541,56.415l-6.923,22.3H234.2a1.087,1.087,0,0,1-.731-.258,1.739,1.739,0,0,1-.473-.86l-3.182-11.115q-.237-.753-.42-1.483t-.333-1.483q-.151.753-.333,1.5t-.419,1.5l-3.226,11.072a1.37,1.37,0,0,1-1.419,1.118H218.5l-6.923-22.3h5.332a2.051,2.051,0,0,1,1.193.334,1.657,1.657,0,0,1,.655.827l2.236,10q.28,1.14.494,2.2t.388,2.14q.278-1.075.591-2.14t.678-2.2l2.795-10.02a1.672,1.672,0,0,1,.645-.827,1.89,1.89,0,0,1,1.118-.334h2.967a2.048,2.048,0,0,1,1.193.334,1.664,1.664,0,0,1,.656.827l2.666,10.02q.322,1.14.634,2.214t.57,2.172q.171-1.075.408-2.15t.537-2.235l2.365-10a1.672,1.672,0,0,1,.645-.827,1.89,1.89,0,0,1,1.118-.334Z"/>
      <path class="cls-1" d="M257.484,59.512a13.551,13.551,0,0,1,4.483-2.655,15.7,15.7,0,0,1,5.278-.871,9.645,9.645,0,0,1,3.644.656,7.828,7.828,0,0,1,2.752,1.827,7.98,7.98,0,0,1,1.731,2.784,10.028,10.028,0,0,1,.6,3.526V78.711h-3.053a3.123,3.123,0,0,1-1.43-.258,1.966,1.966,0,0,1-.807-1.075l-.473-1.226q-.839.709-1.612,1.247a10.266,10.266,0,0,1-1.6.914,7.9,7.9,0,0,1-1.763.559,10.829,10.829,0,0,1-2.074.183,9.119,9.119,0,0,1-2.774-.4,5.781,5.781,0,0,1-2.117-1.172,5.144,5.144,0,0,1-1.344-1.924,6.938,6.938,0,0,1-.473-2.655,5.542,5.542,0,0,1,.6-2.44,6.021,6.021,0,0,1,2.086-2.258,13.251,13.251,0,0,1,4-1.709,26.824,26.824,0,0,1,6.342-.774v-.945a4.088,4.088,0,0,0-.806-2.827,2.965,2.965,0,0,0-2.29-.871,6.084,6.084,0,0,0-1.936.258,8.652,8.652,0,0,0-1.344.581q-.59.322-1.149.58a3.164,3.164,0,0,1-1.333.258,1.917,1.917,0,0,1-1.161-.344,3,3,0,0,1-.774-.817Zm12,10.126a22.023,22.023,0,0,0-3.289.345,8,8,0,0,0-2.043.645,2.472,2.472,0,0,0-1.043.882,2.084,2.084,0,0,0-.29,1.074,1.868,1.868,0,0,0,.624,1.6,3.043,3.043,0,0,0,1.827.462,5.294,5.294,0,0,0,2.258-.451,6.891,6.891,0,0,0,1.956-1.462Z"/>
      <path class="cls-1" d="M286.38,58.823a16.393,16.393,0,0,1,1.333-1.118,7.809,7.809,0,0,1,1.473-.87,8.8,8.8,0,0,1,1.7-.56,9.131,9.131,0,0,1,1.988-.2,7.8,7.8,0,0,1,3.235.635,6.7,6.7,0,0,1,2.376,1.763,7.589,7.589,0,0,1,1.462,2.688,11.13,11.13,0,0,1,.5,3.386V78.711h-6.665V64.542A3.9,3.9,0,0,0,293.023,62a2.7,2.7,0,0,0-2.214-.914,4.666,4.666,0,0,0-2.054.462A8.27,8.27,0,0,0,286.9,62.8v15.91h-6.665v-22.3h4.128a1.567,1.567,0,0,1,1.634,1.118Z"/>
      <path class="cls-1" d="M324.93,46.525V78.711H320.8a1.568,1.568,0,0,1-1.635-1.118l-.516-1.7a13.08,13.08,0,0,1-1.4,1.29,8.873,8.873,0,0,1-1.58,1,8.368,8.368,0,0,1-1.828.645,9.411,9.411,0,0,1-2.117.226,6.874,6.874,0,0,1-3.226-.773,7.436,7.436,0,0,1-2.558-2.236,11.273,11.273,0,0,1-1.688-3.58,17.391,17.391,0,0,1-.612-4.826A15.049,15.049,0,0,1,304.332,63a11.358,11.358,0,0,1,1.946-3.7,9.029,9.029,0,0,1,3.021-2.44,8.575,8.575,0,0,1,3.892-.882,7.606,7.606,0,0,1,2.924.494,7.972,7.972,0,0,1,2.15,1.333V46.525Zm-6.665,15.867a4.22,4.22,0,0,0-1.634-1.172,5.2,5.2,0,0,0-1.85-.333,3.932,3.932,0,0,0-1.7.365,3.463,3.463,0,0,0-1.344,1.172,6.235,6.235,0,0,0-.893,2.1,13.038,13.038,0,0,0-.322,3.118,14.453,14.453,0,0,0,.258,2.967,6.092,6.092,0,0,0,.721,1.945,2.784,2.784,0,0,0,1.107,1.064,3.174,3.174,0,0,0,1.44.322,5.736,5.736,0,0,0,1.322-.14,4.63,4.63,0,0,0,1.085-.4,4.513,4.513,0,0,0,.936-.655,9.033,9.033,0,0,0,.871-.914Z"/>
      <path class="cls-1" d="M8.514,101.167a11.526,11.526,0,0,1,2.978-2.289,8.292,8.292,0,0,1,3.967-.893,6.861,6.861,0,0,1,3.225.774A7.434,7.434,0,0,1,21.242,101a11.3,11.3,0,0,1,1.688,3.58,17.294,17.294,0,0,1,.613,4.806,14.811,14.811,0,0,1-.7,4.644,11.668,11.668,0,0,1-1.957,3.7,9.022,9.022,0,0,1-3.01,2.451,8.523,8.523,0,0,1-3.881.881,7.61,7.61,0,0,1-2.924-.494,7.962,7.962,0,0,1-2.15-1.333v8.557H2.257V98.415H6.386A1.567,1.567,0,0,1,8.02,99.533Zm.408,13.48a4.4,4.4,0,0,0,1.634,1.161,5.037,5.037,0,0,0,1.849.345,3.922,3.922,0,0,0,1.7-.366,3.452,3.452,0,0,0,1.344-1.172,6.236,6.236,0,0,0,.892-2.1,13.113,13.113,0,0,0,.323-3.139,14.425,14.425,0,0,0-.258-2.968,6.113,6.113,0,0,0-.72-1.945,2.8,2.8,0,0,0-1.107-1.064,3.18,3.18,0,0,0-1.44-.322,4.838,4.838,0,0,0-2.408.537,6.7,6.7,0,0,0-1.806,1.569Z"/>
      <path class="cls-1" d="M33.218,101.855a9.363,9.363,0,0,1,2.375-2.838,4.924,4.924,0,0,1,3.085-1.032,3.974,3.974,0,0,1,2.451.71l-.43,4.9a1.034,1.034,0,0,1-.355.646,1.173,1.173,0,0,1-.677.172c-.115,0-.265-.007-.451-.021s-.38-.032-.581-.054l-.613-.064a5.584,5.584,0,0,0-.57-.032,3.384,3.384,0,0,0-2.333.773,6.1,6.1,0,0,0-1.473,2.15v13.545H26.982v-22.3h3.956a3.407,3.407,0,0,1,.828.086,1.453,1.453,0,0,1,.559.27,1.15,1.15,0,0,1,.344.483,4.42,4.42,0,0,1,.2.731Z"/>
      <path class="cls-1" d="M48.483,110.757a6.285,6.285,0,0,0,1.7,4.053,5.055,5.055,0,0,0,3.547,1.258,6.344,6.344,0,0,0,2-.28,10,10,0,0,0,1.495-.623q.656-.344,1.2-.624a2.511,2.511,0,0,1,1.15-.279,1.377,1.377,0,0,1,1.2.581l1.935,2.386a9.9,9.9,0,0,1-2.226,1.925,11.618,11.618,0,0,1-2.451,1.161,13.3,13.3,0,0,1-2.516.58,18.891,18.891,0,0,1-2.4.161,12.517,12.517,0,0,1-4.4-.763,10.088,10.088,0,0,1-3.59-2.269,10.686,10.686,0,0,1-2.43-3.741,13.968,13.968,0,0,1-.892-5.2,11.766,11.766,0,0,1,.763-4.235,10.291,10.291,0,0,1,5.654-5.891,12.334,12.334,0,0,1,8.643-.193,8.82,8.82,0,0,1,3.161,2,9.138,9.138,0,0,1,2.064,3.215,11.787,11.787,0,0,1,.742,4.311,9.416,9.416,0,0,1-.064,1.226,1.93,1.93,0,0,1-.237.752.9.9,0,0,1-.462.388,2.176,2.176,0,0,1-.742.107Zm8.385-3.87a5.9,5.9,0,0,0-.2-1.548A3.756,3.756,0,0,0,56,104a3.4,3.4,0,0,0-1.215-.957,4.149,4.149,0,0,0-1.828-.365,3.986,3.986,0,0,0-2.967,1.085,5.657,5.657,0,0,0-1.419,3.129Z"/>
      <path class="cls-1" d="M66.155,104.951H77.765v5.375H66.155Z"/>
      <path class="cls-1" d="M92.534,98.071a12.882,12.882,0,0,1,4.623.8,10.149,10.149,0,0,1,3.579,2.278,10.276,10.276,0,0,1,2.322,3.6,12.994,12.994,0,0,1,.828,4.763,13.224,13.224,0,0,1-.828,4.8,10.333,10.333,0,0,1-2.322,3.634,10.2,10.2,0,0,1-3.579,2.3,12.735,12.735,0,0,1-4.623.806,12.876,12.876,0,0,1-4.654-.806,10.4,10.4,0,0,1-3.612-2.3,10.179,10.179,0,0,1-2.344-3.634,13.224,13.224,0,0,1-.827-4.8,13,13,0,0,1,.827-4.763,10.123,10.123,0,0,1,2.344-3.6,10.35,10.35,0,0,1,3.612-2.278A13.025,13.025,0,0,1,92.534,98.071Zm0,18.039a3.784,3.784,0,0,0,3.387-1.624,8.977,8.977,0,0,0,1.086-4.934,8.924,8.924,0,0,0-1.086-4.924,3.793,3.793,0,0,0-3.387-1.612,3.886,3.886,0,0,0-3.461,1.612,8.848,8.848,0,0,0-1.1,4.924,8.9,8.9,0,0,0,1.1,4.934A3.876,3.876,0,0,0,92.534,116.11Z"/>
      <path class="cls-1" d="M139.641,98.415l-6.923,22.3H127.3a1.087,1.087,0,0,1-.731-.258,1.739,1.739,0,0,1-.473-.86l-3.182-11.115q-.237-.753-.42-1.483t-.333-1.483q-.151.753-.333,1.5t-.419,1.5l-3.226,11.072a1.37,1.37,0,0,1-1.419,1.118H111.6l-6.923-22.3h5.332a2.051,2.051,0,0,1,1.193.334,1.657,1.657,0,0,1,.655.827l2.236,10q.28,1.14.494,2.2t.388,2.14q.278-1.075.591-2.14t.678-2.2l2.795-10.02a1.672,1.672,0,0,1,.645-.827,1.89,1.89,0,0,1,1.118-.334h2.967a2.048,2.048,0,0,1,1.193.334,1.664,1.664,0,0,1,.656.827l2.666,10.02q.322,1.14.634,2.214t.57,2.172q.171-1.075.408-2.15t.537-2.235l2.365-10a1.672,1.672,0,0,1,.645-.827,1.89,1.89,0,0,1,1.118-.334Z"/>
      <path class="cls-1" d="M148.154,100.823a16.393,16.393,0,0,1,1.333-1.118,7.809,7.809,0,0,1,1.473-.87,8.8,8.8,0,0,1,1.7-.56,9.131,9.131,0,0,1,1.988-.2,7.8,7.8,0,0,1,3.235.635,6.7,6.7,0,0,1,2.376,1.763,7.589,7.589,0,0,1,1.462,2.688,11.13,11.13,0,0,1,.5,3.386v14.169h-6.665V106.542A3.9,3.9,0,0,0,154.8,104a2.7,2.7,0,0,0-2.214-.914,4.666,4.666,0,0,0-2.054.462,8.27,8.27,0,0,0-1.859,1.258v15.91h-6.665v-22.3h4.128a1.567,1.567,0,0,1,1.634,1.118Z"/>
      <path class="cls-1" d="M172,110.757a6.287,6.287,0,0,0,1.7,4.053,5.056,5.056,0,0,0,3.548,1.258,6.341,6.341,0,0,0,2-.28,9.975,9.975,0,0,0,1.494-.623q.656-.344,1.2-.624a2.509,2.509,0,0,1,1.15-.279,1.377,1.377,0,0,1,1.2.581l1.935,2.386a9.906,9.906,0,0,1-2.225,1.925,11.645,11.645,0,0,1-2.451,1.161,13.3,13.3,0,0,1-2.516.58,18.9,18.9,0,0,1-2.4.161,12.513,12.513,0,0,1-4.4-.763,10.09,10.09,0,0,1-3.591-2.269,10.7,10.7,0,0,1-2.43-3.741,13.978,13.978,0,0,1-.892-5.2,11.776,11.776,0,0,1,.763-4.235,10.293,10.293,0,0,1,5.655-5.891,12.333,12.333,0,0,1,8.643-.193,8.81,8.81,0,0,1,3.16,2,9.125,9.125,0,0,1,2.064,3.215,11.8,11.8,0,0,1,.741,4.311,9.416,9.416,0,0,1-.064,1.226,1.922,1.922,0,0,1-.236.752.9.9,0,0,1-.462.388,2.174,2.174,0,0,1-.742.107Zm8.385-3.87a5.9,5.9,0,0,0-.2-1.548,3.749,3.749,0,0,0-.667-1.344,3.386,3.386,0,0,0-1.215-.957,4.144,4.144,0,0,0-1.827-.365,3.986,3.986,0,0,0-2.967,1.085,5.653,5.653,0,0,0-1.419,3.129Z"/>
      <path class="cls-1" d="M209.881,88.525v32.186h-4.128a1.568,1.568,0,0,1-1.635-1.118l-.516-1.7a13.08,13.08,0,0,1-1.4,1.29,8.873,8.873,0,0,1-1.58,1,8.368,8.368,0,0,1-1.828.645,9.411,9.411,0,0,1-2.117.226,6.874,6.874,0,0,1-3.226-.773,7.436,7.436,0,0,1-2.558-2.236,11.273,11.273,0,0,1-1.688-3.58,17.391,17.391,0,0,1-.612-4.826,15.049,15.049,0,0,1,.688-4.634,11.358,11.358,0,0,1,1.946-3.7,9.029,9.029,0,0,1,3.021-2.44,8.575,8.575,0,0,1,3.892-.882,7.606,7.606,0,0,1,2.924.494,7.972,7.972,0,0,1,2.15,1.333V88.525Zm-6.665,15.867a4.22,4.22,0,0,0-1.634-1.172,5.2,5.2,0,0,0-1.85-.333,3.932,3.932,0,0,0-1.7.365,3.463,3.463,0,0,0-1.344,1.172,6.235,6.235,0,0,0-.893,2.1,13.038,13.038,0,0,0-.322,3.118,14.453,14.453,0,0,0,.258,2.967,6.092,6.092,0,0,0,.721,1.945,2.784,2.784,0,0,0,1.107,1.064,3.174,3.174,0,0,0,1.44.322,5.736,5.736,0,0,0,1.322-.14,4.63,4.63,0,0,0,1.085-.4,4.513,4.513,0,0,0,.936-.655,9.033,9.033,0,0,0,.871-.914Z"/>
      <path class="cls-1" d="M230.993,100.372a10.794,10.794,0,0,1,2.612-1.666,8.143,8.143,0,0,1,3.364-.635,7.8,7.8,0,0,1,3.235.635,6.7,6.7,0,0,1,2.376,1.763,7.589,7.589,0,0,1,1.462,2.688,11.13,11.13,0,0,1,.5,3.386v14.169h-6.665V106.542A3.9,3.9,0,0,0,237.12,104a2.7,2.7,0,0,0-2.214-.914,4.666,4.666,0,0,0-2.054.462,8.27,8.27,0,0,0-1.859,1.258v15.91h-6.665V88.525h6.665Z"/>
      <path class="cls-1" d="M254.32,110.757a6.287,6.287,0,0,0,1.7,4.053,5.056,5.056,0,0,0,3.548,1.258,6.341,6.341,0,0,0,2-.28,9.975,9.975,0,0,0,1.494-.623q.656-.344,1.2-.624a2.509,2.509,0,0,1,1.15-.279,1.377,1.377,0,0,1,1.2.581l1.935,2.386a9.906,9.906,0,0,1-2.225,1.925,11.645,11.645,0,0,1-2.451,1.161,13.3,13.3,0,0,1-2.516.58,18.9,18.9,0,0,1-2.4.161,12.513,12.513,0,0,1-4.4-.763,10.09,10.09,0,0,1-3.591-2.269,10.7,10.7,0,0,1-2.43-3.741,13.978,13.978,0,0,1-.892-5.2,11.776,11.776,0,0,1,.763-4.235,10.293,10.293,0,0,1,5.655-5.891,12.333,12.333,0,0,1,8.643-.193,8.81,8.81,0,0,1,3.16,2,9.125,9.125,0,0,1,2.064,3.215,11.8,11.8,0,0,1,.741,4.311,9.416,9.416,0,0,1-.064,1.226,1.922,1.922,0,0,1-.236.752.9.9,0,0,1-.462.388,2.174,2.174,0,0,1-.742.107Zm8.385-3.87a5.9,5.9,0,0,0-.2-1.548,3.749,3.749,0,0,0-.667-1.344,3.386,3.386,0,0,0-1.215-.957,4.144,4.144,0,0,0-1.827-.365,3.986,3.986,0,0,0-2.967,1.085,5.653,5.653,0,0,0-1.419,3.129Z"/>
      <path class="cls-1" d="M278.68,88.525v32.186h-6.665V88.525Z"/>
      <path class="cls-1" d="M290.7,92.31a3.524,3.524,0,0,1-.322,1.494,3.931,3.931,0,0,1-.882,1.226,4.3,4.3,0,0,1-1.3.839,4.047,4.047,0,0,1-1.58.312,3.763,3.763,0,0,1-1.526-.312,4.289,4.289,0,0,1-1.258-.839,3.864,3.864,0,0,1-.859-1.226,3.623,3.623,0,0,1-.312-1.494,3.747,3.747,0,0,1,.313-1.526,3.944,3.944,0,0,1,.859-1.247,4.037,4.037,0,0,1,1.258-.839,3.873,3.873,0,0,1,1.526-.3,4.167,4.167,0,0,1,1.58.3,4.054,4.054,0,0,1,1.3.839,4.01,4.01,0,0,1,.882,1.247A3.645,3.645,0,0,1,290.7,92.31Zm-.687,6.105v22.3h-6.665v-22.3Z"/>
      <path class="cls-1" d="M311.058,103.7a3.7,3.7,0,0,1-.581.581,1.277,1.277,0,0,1-.795.215,1.718,1.718,0,0,1-.893-.236c-.266-.158-.562-.333-.892-.527a6.872,6.872,0,0,0-1.161-.526,5.015,5.015,0,0,0-1.656-.236,4.64,4.64,0,0,0-2.117.451,3.922,3.922,0,0,0-1.473,1.29,5.9,5.9,0,0,0-.86,2.054,12.254,12.254,0,0,0-.279,2.741,8.351,8.351,0,0,0,1.236,4.923,3.966,3.966,0,0,0,3.407,1.721,4.75,4.75,0,0,0,1.839-.291,5.584,5.584,0,0,0,1.15-.645l.87-.656a1.614,1.614,0,0,1,1-.3,1.377,1.377,0,0,1,1.2.581l1.935,2.386a10.536,10.536,0,0,1-2.171,1.925,10.941,10.941,0,0,1-2.333,1.161,12.055,12.055,0,0,1-2.4.58,17.667,17.667,0,0,1-2.344.161,10.057,10.057,0,0,1-3.9-.773,9.556,9.556,0,0,1-3.269-2.247,10.761,10.761,0,0,1-2.236-3.623,13.565,13.565,0,0,1-.827-4.9,13.765,13.765,0,0,1,.72-4.5,10.216,10.216,0,0,1,2.129-3.633,9.885,9.885,0,0,1,3.483-2.419,12.2,12.2,0,0,1,4.8-.882,11.708,11.708,0,0,1,4.6.839,11.031,11.031,0,0,1,3.568,2.451Z"/>
      <path class="cls-1" d="M325.484,98.071a12.882,12.882,0,0,1,4.623.8,10.149,10.149,0,0,1,3.579,2.278,10.276,10.276,0,0,1,2.322,3.6,12.994,12.994,0,0,1,.828,4.763,13.224,13.224,0,0,1-.828,4.8,10.333,10.333,0,0,1-2.322,3.634,10.2,10.2,0,0,1-3.579,2.3,12.735,12.735,0,0,1-4.623.806,12.876,12.876,0,0,1-4.654-.806,10.4,10.4,0,0,1-3.612-2.3,10.179,10.179,0,0,1-2.344-3.634,13.224,13.224,0,0,1-.827-4.8,13,13,0,0,1,.827-4.763,10.123,10.123,0,0,1,2.344-3.6,10.35,10.35,0,0,1,3.612-2.278A13.025,13.025,0,0,1,325.484,98.071Zm0,18.039a3.784,3.784,0,0,0,3.387-1.624,8.977,8.977,0,0,0,1.086-4.934,8.924,8.924,0,0,0-1.086-4.924,3.793,3.793,0,0,0-3.387-1.612,3.886,3.886,0,0,0-3.461,1.612,8.848,8.848,0,0,0-1.1,4.924,8.9,8.9,0,0,0,1.1,4.934A3.876,3.876,0,0,0,325.484,116.11Z"/>
      <path class="cls-1" d="M346.446,101.167a11.523,11.523,0,0,1,2.979-2.289,8.29,8.29,0,0,1,3.967-.893,6.862,6.862,0,0,1,3.225.774A7.425,7.425,0,0,1,359.175,101a11.293,11.293,0,0,1,1.688,3.58,17.312,17.312,0,0,1,.613,4.806,14.811,14.811,0,0,1-.7,4.644,11.677,11.677,0,0,1-1.956,3.7,9.03,9.03,0,0,1-3.011,2.451,8.521,8.521,0,0,1-3.881.881,7.609,7.609,0,0,1-2.924-.494,7.952,7.952,0,0,1-2.149-1.333v8.557H340.19V98.415h4.128a1.567,1.567,0,0,1,1.634,1.118Zm.409,13.48a4.395,4.395,0,0,0,1.634,1.161,5.039,5.039,0,0,0,1.849.345,3.919,3.919,0,0,0,1.7-.366,3.449,3.449,0,0,0,1.344-1.172,6.227,6.227,0,0,0,.893-2.1,13.14,13.14,0,0,0,.322-3.139,14.463,14.463,0,0,0-.258-2.968,6.125,6.125,0,0,0-.72-1.945,2.8,2.8,0,0,0-1.107-1.064,3.177,3.177,0,0,0-1.44-.322,4.838,4.838,0,0,0-2.408.537,6.7,6.7,0,0,0-1.806,1.569Z"/>
      <path class="cls-1" d="M372.569,121.055a7.867,7.867,0,0,1-2.806-.462,5.412,5.412,0,0,1-3.3-3.365,7.933,7.933,0,0,1-.43-2.687V103.017h-1.893a1.2,1.2,0,0,1-1.247-1.312V99.1l3.548-.688,1.312-5.439a1.324,1.324,0,0,1,1.462-1.031H372.7v6.514h5.525v4.559H372.7v11.072a2.084,2.084,0,0,0,.376,1.279,1.27,1.27,0,0,0,1.086.5,2.112,2.112,0,0,0,.612-.075,2.425,2.425,0,0,0,.431-.172c.121-.064.236-.121.344-.172a.885.885,0,0,1,.376-.075.777.777,0,0,1,.483.14,1.741,1.741,0,0,1,.377.44l2.021,3.161a9.193,9.193,0,0,1-2.9,1.451A11.541,11.541,0,0,1,372.569,121.055Z"/>
      <path class="cls-1" d="M386.372,110.757a6.287,6.287,0,0,0,1.7,4.053,5.056,5.056,0,0,0,3.548,1.258,6.341,6.341,0,0,0,2-.28,9.975,9.975,0,0,0,1.494-.623q.656-.344,1.2-.624a2.509,2.509,0,0,1,1.15-.279,1.377,1.377,0,0,1,1.2.581l1.935,2.386a9.906,9.906,0,0,1-2.225,1.925,11.645,11.645,0,0,1-2.451,1.161,13.3,13.3,0,0,1-2.516.58,18.9,18.9,0,0,1-2.4.161,12.513,12.513,0,0,1-4.4-.763,10.09,10.09,0,0,1-3.591-2.269,10.7,10.7,0,0,1-2.43-3.741,13.978,13.978,0,0,1-.892-5.2,11.776,11.776,0,0,1,.763-4.235,10.293,10.293,0,0,1,5.655-5.891,12.333,12.333,0,0,1,8.643-.193,8.81,8.81,0,0,1,3.16,2,9.125,9.125,0,0,1,2.064,3.215,11.8,11.8,0,0,1,.741,4.311,9.416,9.416,0,0,1-.064,1.226,1.922,1.922,0,0,1-.236.752.9.9,0,0,1-.462.388,2.174,2.174,0,0,1-.742.107Zm8.385-3.87a5.9,5.9,0,0,0-.2-1.548,3.749,3.749,0,0,0-.667-1.344,3.386,3.386,0,0,0-1.215-.957,4.144,4.144,0,0,0-1.827-.365,3.986,3.986,0,0,0-2.967,1.085,5.653,5.653,0,0,0-1.419,3.129Z"/>
      <path class="cls-1" d="M410.3,101.855a9.378,9.378,0,0,1,2.376-2.838,4.925,4.925,0,0,1,3.085-1.032,3.974,3.974,0,0,1,2.451.71l-.43,4.9a1.038,1.038,0,0,1-.354.646,1.174,1.174,0,0,1-.678.172c-.115,0-.266-.007-.451-.021s-.38-.032-.581-.054l-.612-.064a5.578,5.578,0,0,0-.57-.032,3.382,3.382,0,0,0-2.332.773,6.078,6.078,0,0,0-1.473,2.15v13.545h-6.665v-22.3h3.956a3.4,3.4,0,0,1,.827.086,1.452,1.452,0,0,1,.56.27,1.153,1.153,0,0,1,.344.483,4.468,4.468,0,0,1,.2.731Z"/>
      <path class="cls-1" d="M434.639,103.3a1.717,1.717,0,0,1-.548.58,1.435,1.435,0,0,1-.742.173,2.355,2.355,0,0,1-.945-.205l-1.021-.44a11.163,11.163,0,0,0-1.236-.44,5.5,5.5,0,0,0-1.569-.2,3.325,3.325,0,0,0-1.946.483,1.559,1.559,0,0,0-.677,1.344,1.346,1.346,0,0,0,.44,1.032,4.026,4.026,0,0,0,1.172.72,16.162,16.162,0,0,0,1.655.592q.924.28,1.893.623a16.823,16.823,0,0,1,1.892.807,7.071,7.071,0,0,1,1.655,1.14,5.079,5.079,0,0,1,1.172,1.645,5.567,5.567,0,0,1,.44,2.322,7.634,7.634,0,0,1-.6,3.053,6.491,6.491,0,0,1-1.795,2.408,8.494,8.494,0,0,1-2.946,1.569,13.285,13.285,0,0,1-4.031.559,12.241,12.241,0,0,1-2.278-.215,15.768,15.768,0,0,1-2.2-.58,12.038,12.038,0,0,1-1.967-.871A8.519,8.519,0,0,1,418.9,118.3l1.548-2.451a1.979,1.979,0,0,1,.655-.677,1.907,1.907,0,0,1,1.021-.247,2.107,2.107,0,0,1,1.043.258l1,.559a8.26,8.26,0,0,0,1.258.56,5.461,5.461,0,0,0,1.817.258,4.62,4.62,0,0,0,1.312-.161,2.31,2.31,0,0,0,.859-.441,1.723,1.723,0,0,0,.624-1.333,1.445,1.445,0,0,0-.452-1.1,3.934,3.934,0,0,0-1.182-.742,14.529,14.529,0,0,0-1.667-.58q-.935-.27-1.9-.613a15.127,15.127,0,0,1-1.9-.827,6.566,6.566,0,0,1-1.667-1.226,5.716,5.716,0,0,1-1.183-1.817,6.709,6.709,0,0,1-.451-2.6,6.787,6.787,0,0,1,.548-2.7,6.266,6.266,0,0,1,1.646-2.246,8.055,8.055,0,0,1,2.752-1.537,11.9,11.9,0,0,1,3.87-.57,12.5,12.5,0,0,1,2.332.215,11.947,11.947,0,0,1,2.118.6,10.178,10.178,0,0,1,1.806.913,8.73,8.73,0,0,1,1.44,1.15Z"/>
    </g>
    <g>
      <rect class="cls-2" x="3.771" y="157.468" width="168.477" height="41.306"/>
      <g>
        <path class="cls-1" d="M138.536,185.526a.677.677,0,0,1-.487-.2.684.684,0,0,1-.215-.5.7.7,0,0,1,.208-.5l5.439-5.437-5.434-5.428a.708.708,0,0,1,0-.995.7.7,0,0,1,.5-.207.675.675,0,0,1,.489.2l5.93,5.925a.7.7,0,0,1,.163.736.729.729,0,0,1-.165.273l-5.929,5.924A.68.68,0,0,1,138.536,185.526Z"/>
        <g>
          <path class="cls-1" d="M37.862,184.474H35.8a.905.905,0,0,1-.85-.459l-2.584-3.936a.911.911,0,0,0-.319-.314,1.112,1.112,0,0,0-.514-.094h-.978v4.8H28.266V172.183h3.749a7.837,7.837,0,0,1,2.146.259,4.117,4.117,0,0,1,1.47.728,2.83,2.83,0,0,1,.846,1.117,3.882,3.882,0,0,1,.09,2.605,3.4,3.4,0,0,1-.527,1,3.545,3.545,0,0,1-.85.791,4.266,4.266,0,0,1-1.152.535,2.239,2.239,0,0,1,.408.3,2.13,2.13,0,0,1,.34.412Zm-5.882-6.443a3.545,3.545,0,0,0,1.126-.161,2.168,2.168,0,0,0,.791-.446,1.792,1.792,0,0,0,.463-.676,2.326,2.326,0,0,0,.153-.858,1.747,1.747,0,0,0-.616-1.437,2.952,2.952,0,0,0-1.883-.5H30.553v4.08Z"/>
          <path class="cls-1" d="M41.491,174v3.408h4.3v1.76h-4.3v3.477h5.457v1.827H39.2V172.183h7.752V174Z"/>
          <path class="cls-1" d="M59.5,184.474H57.735a.758.758,0,0,1-.484-.148.928.928,0,0,1-.28-.37l-.918-2.508H50.961l-.918,2.508a.81.81,0,0,1-.264.357.736.736,0,0,1-.484.161H47.51l4.837-12.291h2.329Zm-4.038-4.641-1.5-4.089c-.073-.182-.15-.4-.229-.646s-.158-.518-.237-.807q-.111.434-.229.812t-.229.658l-1.488,4.072Z"/>
          <path class="cls-1" d="M71.692,178.329a6.659,6.659,0,0,1-.45,2.482,5.574,5.574,0,0,1-3.23,3.213,6.93,6.93,0,0,1-2.55.45H60.778V172.183h4.684a6.851,6.851,0,0,1,2.55.455,5.74,5.74,0,0,1,1.964,1.267,5.666,5.666,0,0,1,1.267,1.941A6.659,6.659,0,0,1,71.692,178.329Zm-2.346,0a5.716,5.716,0,0,0-.268-1.814,3.763,3.763,0,0,0-.773-1.36,3.378,3.378,0,0,0-1.225-.854,4.2,4.2,0,0,0-1.619-.3H63.073v8.652h2.389a4.2,4.2,0,0,0,1.619-.3,3.378,3.378,0,0,0,1.225-.854,3.763,3.763,0,0,0,.773-1.36A5.712,5.712,0,0,0,69.347,178.329Z"/>
          <path class="cls-1" d="M91.166,172.183v12.291H89.151v-7.939q0-.475.052-1.028l-3.715,6.979a.859.859,0,0,1-.808.5h-.323a.859.859,0,0,1-.808-.5l-3.757-7c.018.188.031.371.043.553s.017.349.017.5v7.939H77.838V172.183h1.726q.154,0,.264.009a.735.735,0,0,1,.2.042.429.429,0,0,1,.161.11,1,1,0,0,1,.141.2l3.68,6.826c.1.181.186.368.269.561s.162.391.242.595c.079-.209.161-.412.246-.607s.176-.384.272-.565l3.629-6.809a.9.9,0,0,1,.145-.2.47.47,0,0,1,.166-.11.727.727,0,0,1,.2-.042q.111-.009.264-.009Z"/>
          <path class="cls-1" d="M105.624,178.329a6.859,6.859,0,0,1-.446,2.5,5.855,5.855,0,0,1-1.262,1.993,5.732,5.732,0,0,1-1.964,1.313,7.107,7.107,0,0,1-5.092,0,5.776,5.776,0,0,1-1.968-1.313,5.891,5.891,0,0,1-1.271-1.993,7.183,7.183,0,0,1,0-5.006,5.891,5.891,0,0,1,1.271-1.993,5.776,5.776,0,0,1,1.968-1.313,6.628,6.628,0,0,1,2.542-.472,6.9,6.9,0,0,1,1.76.217,6.22,6.22,0,0,1,1.513.611,5.588,5.588,0,0,1,1.236.961,5.83,5.83,0,0,1,.931,1.262,6.187,6.187,0,0,1,.583,1.514A7.215,7.215,0,0,1,105.624,178.329Zm-2.337,0a5.631,5.631,0,0,0-.272-1.814,3.894,3.894,0,0,0-.773-1.364,3.31,3.31,0,0,0-1.22-.858,4.55,4.55,0,0,0-3.238,0,3.352,3.352,0,0,0-1.225.858,3.856,3.856,0,0,0-.777,1.364,6.178,6.178,0,0,0,0,3.629,3.813,3.813,0,0,0,.777,1.36,3.378,3.378,0,0,0,1.225.854,4.564,4.564,0,0,0,3.238,0,3.335,3.335,0,0,0,1.22-.854,3.85,3.85,0,0,0,.773-1.36A5.627,5.627,0,0,0,103.287,178.329Z"/>
          <path class="cls-1" d="M117.235,184.474H115.17a.905.905,0,0,1-.85-.459l-2.584-3.936a.911.911,0,0,0-.319-.314,1.112,1.112,0,0,0-.514-.094h-.978v4.8h-2.287V172.183h3.749a7.837,7.837,0,0,1,2.146.259,4.117,4.117,0,0,1,1.47.728,2.83,2.83,0,0,1,.846,1.117,3.882,3.882,0,0,1,.09,2.605,3.4,3.4,0,0,1-.527,1,3.545,3.545,0,0,1-.85.791,4.266,4.266,0,0,1-1.152.535,2.239,2.239,0,0,1,.408.3,2.13,2.13,0,0,1,.34.412Zm-5.882-6.443a3.545,3.545,0,0,0,1.126-.161,2.168,2.168,0,0,0,.791-.446,1.792,1.792,0,0,0,.463-.676,2.326,2.326,0,0,0,.153-.858,1.747,1.747,0,0,0-.616-1.437,2.952,2.952,0,0,0-1.883-.5h-1.462v4.08Z"/>
          <path class="cls-1" d="M120.864,174v3.408h4.3v1.76h-4.3v3.477h5.457v1.827h-7.752V172.183h7.752V174Z"/>
        </g>
      </g>
    </g>
  </g>
</svg>
