<svg id="Layer_1" data-name="Layer 1" xmlns="http://www.w3.org/2000/svg" viewBox="0 0 162.239 55.896">
  <defs>
    <style>
      .cls-1 {
        fill: #6690b7;
      }

      .cls-2 {
        fill: #fff;
      }

      .cls-3 {
        fill: none;
        stroke: #fff;
        stroke-miterlimit: 10;
      }
    </style>
  </defs>
  <title>71220c3f-e312-427e-904e-48896b87b0cc</title>
  <g>
    <g>
      <path class="cls-1" d="M96.49,33.527h-1.7a.746.746,0,0,1-.7-.378L91.96,29.908a.746.746,0,0,0-.263-.259.918.918,0,0,0-.423-.077h-.806v3.955H88.586V23.405h3.087a6.425,6.425,0,0,1,1.768.213,3.4,3.4,0,0,1,1.211.6,2.339,2.339,0,0,1,.7.92,3.027,3.027,0,0,1,.225,1.18,3.075,3.075,0,0,1-.15.966,2.791,2.791,0,0,1-.435.826,2.9,2.9,0,0,1-.7.651,3.484,3.484,0,0,1-.948.441,1.88,1.88,0,0,1,.336.249,1.769,1.769,0,0,1,.28.34Zm-4.845-5.306a2.907,2.907,0,0,0,.928-.133,1.8,1.8,0,0,0,.651-.368,1.479,1.479,0,0,0,.381-.556,1.926,1.926,0,0,0,.126-.707,1.438,1.438,0,0,0-.507-1.183,2.429,2.429,0,0,0-1.551-.413h-1.2v3.36Z"/>
      <path class="cls-1" d="M99.478,24.9v2.807h3.542v1.449H99.478v2.863h4.494v1.5H97.588V23.405h6.384v1.5Z"/>
      <path class="cls-1" d="M113.765,28.452v4.1a5.377,5.377,0,0,1-1.642.83,6.44,6.44,0,0,1-1.865.262,6.217,6.217,0,0,1-2.243-.385,5.019,5.019,0,0,1-1.715-1.071,4.69,4.69,0,0,1-1.1-1.638,5.491,5.491,0,0,1-.385-2.079,5.72,5.72,0,0,1,.37-2.093,4.61,4.61,0,0,1,2.709-2.7,6,6,0,0,1,2.185-.378,6.442,6.442,0,0,1,1.151.1,5.836,5.836,0,0,1,.994.27,4.336,4.336,0,0,1,.836.417,5.029,5.029,0,0,1,.693.539l-.539.854a.512.512,0,0,1-.329.249.587.587,0,0,1-.44-.1l-.462-.266a3,3,0,0,0-.515-.231,4.274,4.274,0,0,0-.638-.161,4.683,4.683,0,0,0-.815-.063,3.5,3.5,0,0,0-1.354.252,2.873,2.873,0,0,0-1.032.721A3.265,3.265,0,0,0,106.975,27a4.431,4.431,0,0,0-.23,1.47,4.525,4.525,0,0,0,.248,1.55,3.27,3.27,0,0,0,.7,1.155,2.987,2.987,0,0,0,1.089.721,4.229,4.229,0,0,0,2.422.129,4.885,4.885,0,0,0,.86-.322V29.866H110.79a.382.382,0,0,1-.283-.1.335.335,0,0,1-.1-.249V28.452Z"/>
      <path class="cls-1" d="M117.475,33.527h-1.89V23.405h1.89Z"/>
      <path class="cls-1" d="M125.125,25.247a.655.655,0,0,1-.178.213.4.4,0,0,1-.235.066.605.605,0,0,1-.318-.108q-.171-.108-.409-.242a3.392,3.392,0,0,0-.557-.241,2.323,2.323,0,0,0-.752-.109,2.249,2.249,0,0,0-.687.095,1.437,1.437,0,0,0-.493.262,1.057,1.057,0,0,0-.3.4,1.319,1.319,0,0,0-.1.515.9.9,0,0,0,.2.595,1.674,1.674,0,0,0,.528.406,4.9,4.9,0,0,0,.749.3q.42.133.861.284a8.131,8.131,0,0,1,.861.35,2.974,2.974,0,0,1,.748.5,2.287,2.287,0,0,1,.529.745,2.594,2.594,0,0,1,.2,1.071,3.488,3.488,0,0,1-.234,1.284,2.952,2.952,0,0,1-.687,1.043,3.224,3.224,0,0,1-1.1.7,4.053,4.053,0,0,1-1.49.255,4.807,4.807,0,0,1-.952-.094,5.014,5.014,0,0,1-.9-.27,4.834,4.834,0,0,1-.809-.42,3.883,3.883,0,0,1-.672-.546l.553-.9a.6.6,0,0,1,.182-.165.465.465,0,0,1,.238-.066.67.67,0,0,1,.378.144q.2.144.483.318a3.782,3.782,0,0,0,.654.319,2.519,2.519,0,0,0,.9.143,1.847,1.847,0,0,0,1.246-.381,1.37,1.37,0,0,0,.44-1.1,1.019,1.019,0,0,0-.2-.651,1.6,1.6,0,0,0-.528-.423,3.972,3.972,0,0,0-.749-.291q-.42-.119-.854-.259a7.3,7.3,0,0,1-.854-.336,2.762,2.762,0,0,1-.749-.511,2.317,2.317,0,0,1-.528-.788,3.005,3.005,0,0,1-.2-1.166,2.768,2.768,0,0,1,.22-1.078,2.8,2.8,0,0,1,.641-.931,3.145,3.145,0,0,1,1.036-.651,3.8,3.8,0,0,1,1.414-.245,4.725,4.725,0,0,1,1.652.28,3.745,3.745,0,0,1,1.288.784Z"/>
      <path class="cls-1" d="M134.485,24.952h-3.053v8.575h-1.883V24.952H126.5V23.405h7.987Z"/>
      <path class="cls-1" d="M137.7,24.9v2.807h3.542v1.449H137.7v2.863H142.2v1.5h-6.384V23.405H142.2v1.5Z"/>
      <path class="cls-1" d="M151.768,33.527h-1.7a.746.746,0,0,1-.7-.378l-2.128-3.241a.746.746,0,0,0-.263-.259.918.918,0,0,0-.423-.077h-.806v3.955h-1.883V23.405h3.087a6.425,6.425,0,0,1,1.768.213,3.4,3.4,0,0,1,1.211.6,2.339,2.339,0,0,1,.7.92,3.027,3.027,0,0,1,.225,1.18,3.075,3.075,0,0,1-.15.966,2.791,2.791,0,0,1-.435.826,2.9,2.9,0,0,1-.7.651,3.484,3.484,0,0,1-.948.441,1.88,1.88,0,0,1,.336.249,1.769,1.769,0,0,1,.28.34Zm-4.845-5.306a2.907,2.907,0,0,0,.928-.133,1.8,1.8,0,0,0,.651-.368,1.479,1.479,0,0,0,.381-.556,1.926,1.926,0,0,0,.126-.707,1.438,1.438,0,0,0-.507-1.183,2.429,2.429,0,0,0-1.551-.413h-1.2v3.36Z"/>
    </g>
    <g>
      <path class="cls-2" d="M32.618,31.973v1.554H26.69V23.405h1.883v8.568Z"/>
      <path class="cls-2" d="M43.259,28.466a5.655,5.655,0,0,1-.368,2.062,4.836,4.836,0,0,1-1.039,1.642,4.733,4.733,0,0,1-1.617,1.082,5.856,5.856,0,0,1-4.193,0,4.764,4.764,0,0,1-1.62-1.082,4.87,4.87,0,0,1-1.047-1.642,5.926,5.926,0,0,1,0-4.123,4.875,4.875,0,0,1,1.047-1.642,4.764,4.764,0,0,1,1.62-1.082,5.465,5.465,0,0,1,2.094-.388,5.691,5.691,0,0,1,1.448.178,5.075,5.075,0,0,1,1.246.5,4.6,4.6,0,0,1,1.019.791,4.828,4.828,0,0,1,.767,1.04,5.091,5.091,0,0,1,.479,1.246A5.945,5.945,0,0,1,43.259,28.466Zm-1.926,0a4.647,4.647,0,0,0-.224-1.495,3.2,3.2,0,0,0-.637-1.124,2.735,2.735,0,0,0-1-.707,3.757,3.757,0,0,0-2.667,0,2.762,2.762,0,0,0-1.008.707,3.182,3.182,0,0,0-.641,1.124,5.106,5.106,0,0,0,0,2.989,3.145,3.145,0,0,0,.641,1.12,2.77,2.77,0,0,0,1.008.7,3.75,3.75,0,0,0,2.667,0,2.743,2.743,0,0,0,1-.7,3.168,3.168,0,0,0,.637-1.12A4.643,4.643,0,0,0,41.333,28.466Z"/>
      <path class="cls-2" d="M53.261,28.452v4.1a5.377,5.377,0,0,1-1.642.83,6.44,6.44,0,0,1-1.865.262,6.217,6.217,0,0,1-2.243-.385A5.019,5.019,0,0,1,45.8,32.183a4.69,4.69,0,0,1-1.1-1.638,5.491,5.491,0,0,1-.385-2.079,5.72,5.72,0,0,1,.37-2.093,4.61,4.61,0,0,1,2.709-2.7,6,6,0,0,1,2.185-.378,6.442,6.442,0,0,1,1.151.1,5.836,5.836,0,0,1,.994.27,4.336,4.336,0,0,1,.836.417,5.029,5.029,0,0,1,.693.539l-.539.854a.512.512,0,0,1-.329.249.587.587,0,0,1-.44-.1l-.462-.266a3,3,0,0,0-.515-.231,4.274,4.274,0,0,0-.638-.161,4.683,4.683,0,0,0-.815-.063,3.5,3.5,0,0,0-1.354.252,2.873,2.873,0,0,0-1.032.721A3.265,3.265,0,0,0,46.471,27a4.431,4.431,0,0,0-.23,1.47,4.525,4.525,0,0,0,.248,1.55,3.27,3.27,0,0,0,.7,1.155,2.987,2.987,0,0,0,1.089.721,4.229,4.229,0,0,0,2.422.129,4.885,4.885,0,0,0,.86-.322V29.866H50.286a.382.382,0,0,1-.283-.1.335.335,0,0,1-.1-.249V28.452Z"/>
      <path class="cls-2" d="M56.971,33.527h-1.89V23.405h1.89Z"/>
      <path class="cls-2" d="M67.765,23.405V33.527H66.8a.848.848,0,0,1-.375-.074.863.863,0,0,1-.29-.248l-5.285-6.748c.027.308.042.592.042.854v6.216H59.232V23.405h.987a1.686,1.686,0,0,1,.206.011.5.5,0,0,1,.154.042.511.511,0,0,1,.129.091,1.488,1.488,0,0,1,.141.158l5.306,6.776c-.014-.164-.025-.324-.035-.483s-.014-.306-.014-.441V23.405Z"/>
    </g>
    <line class="cls-3" x1="78.728" y1="55.896" x2="78.728"/>
    <line class="cls-3" x1="16.444" y1="55.896" x2="16.444"/>
    <line class="cls-3" x1="161.739" y1="55.896" x2="161.739"/>
  </g>
</svg>
