<svg id="Layer_1" data-name="Layer 1" xmlns="http://www.w3.org/2000/svg" xmlns:xlink="http://www.w3.org/1999/xlink" viewBox="0 0 42 98.449">
  <defs>
    <style>
      .cls-1 {
        fill: none;
      }

      .cls-2 {
        fill: #3b5a94;
      }

      .cls-3 {
        fill: #365185;
      }

      .cls-4 {
        fill: #fff;
      }

      .cls-5 {
        fill: #4699fa;
      }

      .cls-6 {
        fill: #3e8ae1;
      }

      .cls-7 {
        clip-path: url(#clip-path);
      }
    </style>
    <clipPath id="clip-path">
      <rect class="cls-1" x="8.45" y="68.501" width="25.77" height="20.94"/>
    </clipPath>
  </defs>
  <title>89251df0-6eb2-490f-aa26-0301e986f493</title>
  <g>
    <g>
      <g>
        <rect class="cls-2" width="42" height="42"/>
        <polygon class="cls-3" points="42 42 0 42 42 0 42 42"/>
      </g>
      <path class="cls-4" d="M27.628,6.8c-.005.09-.015.18-.015.271,0,1.459,0,2.918,0,4.377,0,.2-.06.254-.256.252-.794-.008-1.588-.007-2.381.008a4.893,4.893,0,0,0-.808.1,1.081,1.081,0,0,0-.887,1.064c-.039,1.027-.034,2.056-.052,3.083,0,.187.122.155.231.156h4.172L27.119,21H23.239c0,.115,0,.21,0,.306q0,6.827-.005,13.654c0,.083,0,.166-.007.249h-5.31c0-.083.005-.166.005-.249q0-6.807,0-13.614c0-.1,0-.208,0-.339H14.383c-.006-.1-.013-.173-.013-.246,0-1.467,0-2.935-.005-4.4,0-.2.06-.254.257-.253,1.013.009,2.027,0,3.04.008.216,0,.262-.07.263-.272.006-1.316,0-2.632.047-3.946A6.462,6.462,0,0,1,18.65,9.14,3.721,3.721,0,0,1,20.9,7.225c.558-.177,1.147-.253,1.722-.375l.24-.054Z"/>
    </g>
    <g>
      <g>
        <rect class="cls-5" y="56.449" width="42" height="42"/>
        <polygon class="cls-6" points="42 98.449 0 98.449 42 56.449 42 98.449"/>
      </g>
      <g class="cls-7">
        <path class="cls-4" d="M34.22,70.98a10.585,10.585,0,0,1-3.038.833,5.3,5.3,0,0,0,2.325-2.926,10.583,10.583,0,0,1-3.358,1.283,5.293,5.293,0,0,0-9.012,4.823,15.019,15.019,0,0,1-10.9-5.524,5.293,5.293,0,0,0,1.637,7.059,5.276,5.276,0,0,1-2.4-.66c0,.023,0,.044,0,.068A5.293,5.293,0,0,0,13.72,81.12a5.334,5.334,0,0,1-1.393.186,5.44,5.44,0,0,1-.995-.095,5.3,5.3,0,0,0,4.939,3.672A10.608,10.608,0,0,1,9.7,87.145a10.929,10.929,0,0,1-1.261-.072A15.041,15.041,0,0,0,31.6,74.4c0-.228-.006-.456-.016-.683A10.785,10.785,0,0,0,34.22,70.98"/>
      </g>
    </g>
  </g>
</svg>
