<svg id="Layer_1" data-name="Layer 1" xmlns="http://www.w3.org/2000/svg" viewBox="0 0 358.447 132.057">
  <defs>
    <style>
      .cls-1, .cls-3 {
        fill: #fff;
      }

      .cls-2 {
        fill: #6690b7;
      }

      .cls-2, .cls-3 {
        stroke: #292929;
        stroke-miterlimit: 10;
        stroke-width: 0.25px;
      }

      .cls-4 {
        fill: #444;
      }

      .cls-5 {
        fill: #414146;
      }
    </style>
  </defs>
  <title>9175ffd1-a611-45e6-9bf9-e81fef8fb73b</title>
  <g>
    <rect class="cls-1" width="358.447" height="132.057" rx="6.123" ry="6.123"/>
    <g>
      <g>
        <rect class="cls-2" x="15.458" y="15.006" width="326.539" height="42" rx="3.034" ry="3.034"/>
        <g>
          <path class="cls-1" d="M39.379,42.142H37.923a.621.621,0,0,1-.4-.123.769.769,0,0,1-.231-.3l-.756-2.065H32.344l-.756,2.065a.671.671,0,0,1-.217.294.607.607,0,0,1-.4.133H29.5L33.486,32.02H35.4ZM36.054,38.32l-1.231-3.367q-.091-.224-.189-.532t-.2-.665c-.062.238-.124.461-.189.669s-.128.388-.188.542L32.834,38.32Z"/>
          <path class="cls-1" d="M42.319,42.142h-1.89V32.02h1.89Z"/>
          <path class="cls-1" d="M52.484,42.142h-1.7a.746.746,0,0,1-.7-.378l-2.128-3.241a.746.746,0,0,0-.263-.259.918.918,0,0,0-.423-.077h-.806v3.955H44.58V32.02h3.087a6.425,6.425,0,0,1,1.768.213,3.387,3.387,0,0,1,1.211.6,2.339,2.339,0,0,1,.7.92,3.027,3.027,0,0,1,.225,1.18,3.075,3.075,0,0,1-.15.966,2.791,2.791,0,0,1-.435.826,2.9,2.9,0,0,1-.7.651,3.484,3.484,0,0,1-.948.441,1.88,1.88,0,0,1,.336.249,1.769,1.769,0,0,1,.28.34Zm-4.845-5.306a2.907,2.907,0,0,0,.928-.133,1.8,1.8,0,0,0,.651-.368,1.493,1.493,0,0,0,.382-.556,1.926,1.926,0,0,0,.126-.707,1.439,1.439,0,0,0-.508-1.183,2.429,2.429,0,0,0-1.551-.413h-1.2v3.36Z"/>
          <path class="cls-1" d="M60.394,39.755a.375.375,0,0,1,.272.119l.742.805a4.069,4.069,0,0,1-1.516,1.169,5.224,5.224,0,0,1-2.159.406,5.1,5.1,0,0,1-2.026-.385A4.458,4.458,0,0,1,54.171,40.8a4.671,4.671,0,0,1-.977-1.638,6.143,6.143,0,0,1-.34-2.079,5.775,5.775,0,0,1,.364-2.089,4.792,4.792,0,0,1,1.025-1.635,4.639,4.639,0,0,1,1.578-1.067,5.235,5.235,0,0,1,2.03-.381,4.99,4.99,0,0,1,1.964.364,4.679,4.679,0,0,1,1.459.952l-.63.875a.561.561,0,0,1-.144.147.407.407,0,0,1-.241.063.467.467,0,0,1-.218-.06c-.074-.04-.156-.088-.244-.147s-.191-.123-.309-.192a2.5,2.5,0,0,0-.406-.192,3.249,3.249,0,0,0-.535-.147,3.668,3.668,0,0,0-.7-.06,3.131,3.131,0,0,0-1.243.241,2.7,2.7,0,0,0-.969.7,3.2,3.2,0,0,0-.63,1.12,4.69,4.69,0,0,0-.225,1.508,4.455,4.455,0,0,0,.241,1.519,3.341,3.341,0,0,0,.655,1.12,2.8,2.8,0,0,0,.973.7,3,3,0,0,0,1.2.242,5.272,5.272,0,0,0,.7-.042,2.946,2.946,0,0,0,.574-.133,2.542,2.542,0,0,0,.5-.234,3.065,3.065,0,0,0,.465-.354.669.669,0,0,1,.147-.1A.362.362,0,0,1,60.394,39.755Z"/>
          <path class="cls-1" d="M70.607,42.142h-1.7a.746.746,0,0,1-.7-.378l-2.128-3.241a.746.746,0,0,0-.263-.259.918.918,0,0,0-.423-.077h-.806v3.955H62.7V32.02H65.79a6.425,6.425,0,0,1,1.768.213,3.387,3.387,0,0,1,1.211.6,2.339,2.339,0,0,1,.7.92,3.027,3.027,0,0,1,.225,1.18,3.075,3.075,0,0,1-.15.966,2.791,2.791,0,0,1-.435.826,2.9,2.9,0,0,1-.7.651,3.484,3.484,0,0,1-.948.441,1.88,1.88,0,0,1,.336.249,1.769,1.769,0,0,1,.28.34Zm-4.845-5.306a2.907,2.907,0,0,0,.928-.133,1.8,1.8,0,0,0,.651-.368,1.493,1.493,0,0,0,.382-.556,1.926,1.926,0,0,0,.126-.707,1.439,1.439,0,0,0-.508-1.183,2.429,2.429,0,0,0-1.551-.413h-1.2v3.36Z"/>
          <path class="cls-1" d="M80.378,42.142H78.922a.621.621,0,0,1-.4-.123.769.769,0,0,1-.231-.3l-.756-2.065H73.343l-.756,2.065a.671.671,0,0,1-.217.294.607.607,0,0,1-.4.133H70.5L74.485,32.02H76.4ZM77.053,38.32l-1.231-3.367q-.091-.224-.189-.532t-.2-.665c-.062.238-.124.461-.189.669s-.128.388-.188.542L73.833,38.32Z"/>
          <path class="cls-1" d="M83.318,33.518v3h3.794v1.5H83.318v4.123h-1.89V32.02h6.384v1.5Z"/>
          <path class="cls-1" d="M96.422,33.567H93.369v8.575H91.487V33.567H88.435V32.02h7.987Z"/>
          <path class="cls-1" d="M106.655,40.588v1.554h-5.929V32.02h1.883v8.568Z"/>
          <path class="cls-1" d="M109.889,33.518v2.807h3.542v1.449h-3.542v2.863h4.494v1.5H108V32.02h6.384v1.5Z"/>
          <path class="cls-1" d="M124.722,42.142h-1.456a.621.621,0,0,1-.4-.123.769.769,0,0,1-.231-.3l-.756-2.065h-4.193l-.756,2.065a.671.671,0,0,1-.217.294.607.607,0,0,1-.4.133h-1.47l3.983-10.122h1.918ZM121.4,38.32l-1.231-3.367q-.091-.224-.189-.532t-.2-.665c-.062.238-.124.461-.189.669s-.128.388-.188.542l-1.226,3.353Z"/>
          <path class="cls-1" d="M131.161,33.861a.655.655,0,0,1-.178.213.4.4,0,0,1-.235.066.605.605,0,0,1-.318-.108q-.171-.108-.409-.242a3.355,3.355,0,0,0-.557-.241,2.323,2.323,0,0,0-.752-.109,2.249,2.249,0,0,0-.687.095,1.437,1.437,0,0,0-.493.262,1.057,1.057,0,0,0-.3.4,1.319,1.319,0,0,0-.1.515.9.9,0,0,0,.2.595,1.674,1.674,0,0,0,.528.406,4.941,4.941,0,0,0,.749.3q.42.133.861.284a8.131,8.131,0,0,1,.861.35,3,3,0,0,1,.749.5,2.285,2.285,0,0,1,.528.745,2.594,2.594,0,0,1,.2,1.071,3.488,3.488,0,0,1-.234,1.284,2.952,2.952,0,0,1-.687,1.043,3.224,3.224,0,0,1-1.1.7,4.053,4.053,0,0,1-1.49.255,4.807,4.807,0,0,1-.952-.094,5.014,5.014,0,0,1-.9-.27,4.834,4.834,0,0,1-.809-.42,3.883,3.883,0,0,1-.672-.546l.553-.9a.6.6,0,0,1,.182-.165.465.465,0,0,1,.238-.066.67.67,0,0,1,.378.144q.2.144.483.318a3.782,3.782,0,0,0,.654.319,2.519,2.519,0,0,0,.9.143,1.845,1.845,0,0,0,1.246-.381,1.37,1.37,0,0,0,.441-1.1,1.019,1.019,0,0,0-.2-.651,1.6,1.6,0,0,0-.528-.423,3.972,3.972,0,0,0-.749-.291q-.42-.119-.854-.259a7.3,7.3,0,0,1-.854-.336,2.762,2.762,0,0,1-.749-.511,2.317,2.317,0,0,1-.528-.788,3.005,3.005,0,0,1-.2-1.166,2.768,2.768,0,0,1,.22-1.078,2.8,2.8,0,0,1,.641-.931,3.145,3.145,0,0,1,1.036-.651,3.8,3.8,0,0,1,1.414-.245,4.725,4.725,0,0,1,1.652.28,3.745,3.745,0,0,1,1.288.784Z"/>
          <path class="cls-1" d="M135.34,42.142h-1.89V32.02h1.89Z"/>
          <path class="cls-1" d="M146.135,32.02V42.142h-.966a.848.848,0,0,1-.375-.074.863.863,0,0,1-.29-.248l-5.285-6.748q.042.461.042.854v6.216H137.6V32.02h.987a1.686,1.686,0,0,1,.206.011.5.5,0,0,1,.154.042.511.511,0,0,1,.129.091,1.387,1.387,0,0,1,.141.158l5.306,6.776c-.014-.164-.025-.324-.035-.483s-.014-.306-.014-.441V32.02Z"/>
          <path class="cls-1" d="M156.733,37.067v4.1a5.366,5.366,0,0,1-1.642.83,6.44,6.44,0,0,1-1.865.262,6.217,6.217,0,0,1-2.243-.385,5.019,5.019,0,0,1-1.715-1.071,4.69,4.69,0,0,1-1.1-1.638,5.491,5.491,0,0,1-.385-2.079,5.7,5.7,0,0,1,.371-2.093,4.6,4.6,0,0,1,2.709-2.7,5.987,5.987,0,0,1,2.184-.378,6.434,6.434,0,0,1,1.151.1,5.836,5.836,0,0,1,.994.27,4.373,4.373,0,0,1,.837.417,5.019,5.019,0,0,1,.692.539l-.539.854a.512.512,0,0,1-.329.249.587.587,0,0,1-.44-.1l-.462-.266a3,3,0,0,0-.515-.231,4.274,4.274,0,0,0-.638-.161,4.683,4.683,0,0,0-.815-.063,3.5,3.5,0,0,0-1.354.252,2.873,2.873,0,0,0-1.032.721,3.265,3.265,0,0,0-.658,1.127,4.431,4.431,0,0,0-.23,1.47,4.525,4.525,0,0,0,.248,1.55,3.27,3.27,0,0,0,.7,1.155,2.987,2.987,0,0,0,1.089.721,4.229,4.229,0,0,0,2.422.129,4.885,4.885,0,0,0,.86-.322V38.481h-1.273a.382.382,0,0,1-.283-.1.335.335,0,0,1-.1-.249V37.067Z"/>
        </g>
        <path class="cls-1" d="M314.092,33.9a.481.481,0,0,1,.143-.346.487.487,0,0,1,.356-.153.5.5,0,0,1,.354.148l3.868,3.87,3.862-3.866a.5.5,0,0,1,.708,0,.5.5,0,0,1,.147.353.48.48,0,0,1-.144.348l-4.215,4.219a.5.5,0,0,1-.524.116.518.518,0,0,1-.194-.118l-4.215-4.218A.484.484,0,0,1,314.092,33.9Z"/>
      </g>
      <g>
        <rect class="cls-3" x="15.458" y="73.397" width="326.539" height="42" rx="3.034" ry="3.034"/>
        <g>
          <path class="cls-4" d="M310.7,93.063a8.6,8.6,0,1,1,8.595,8.6A8.6,8.6,0,0,1,310.7,93.063Zm3,0a5.6,5.6,0,1,0,5.595-5.6A5.6,5.6,0,0,0,313.7,93.063Z"/>
          <path class="cls-4" d="M329.895,105.163a1.5,1.5,0,0,0,1.061-2.561l-5.583-5.583a1.5,1.5,0,0,0-2.121,2.121l5.583,5.583A1.5,1.5,0,0,0,329.895,105.163Z"/>
        </g>
        <g>
          <path class="cls-5" d="M36.2,92.411a.9.9,0,0,1-.221.252.492.492,0,0,1-.3.084.724.724,0,0,1-.346-.1l-.42-.228a3.533,3.533,0,0,0-.536-.228,2.145,2.145,0,0,0-.686-.1,1.475,1.475,0,0,0-.99.284.962.962,0,0,0-.326.767.7.7,0,0,0,.2.511,1.682,1.682,0,0,0,.515.35,5.476,5.476,0,0,0,.728.27c.273.082.552.173.837.273a7.531,7.531,0,0,1,.836.354,2.794,2.794,0,0,1,.729.518,2.425,2.425,0,0,1,.515.767,2.739,2.739,0,0,1,.2,1.088,3.551,3.551,0,0,1-.244,1.323,3.105,3.105,0,0,1-.711,1.074,3.306,3.306,0,0,1-1.148.721,4.3,4.3,0,0,1-1.55.262,5,5,0,0,1-.97-.1,5.736,5.736,0,0,1-.955-.277,5.459,5.459,0,0,1-.868-.423,3.638,3.638,0,0,1-.707-.546l.7-1.106a.694.694,0,0,1,.22-.2.575.575,0,0,1,.3-.081.8.8,0,0,1,.424.133q.212.133.482.294a3.9,3.9,0,0,0,.62.294,2.31,2.31,0,0,0,.825.133,1.571,1.571,0,0,0,1-.283,1.079,1.079,0,0,0,.357-.9.849.849,0,0,0-.2-.581,1.512,1.512,0,0,0-.515-.371,4.707,4.707,0,0,0-.724-.259q-.407-.111-.833-.249A6,6,0,0,1,31.6,95.8a2.6,2.6,0,0,1-.725-.525,2.445,2.445,0,0,1-.515-.812,3.219,3.219,0,0,1-.2-1.2,2.843,2.843,0,0,1,.231-1.12,2.876,2.876,0,0,1,.679-.973,3.344,3.344,0,0,1,1.1-.683,4.072,4.072,0,0,1,1.491-.255,5.569,5.569,0,0,1,.914.074,4.777,4.777,0,0,1,.843.217,4.651,4.651,0,0,1,.746.343,3.457,3.457,0,0,1,.619.452Z"/>
          <path class="cls-5" d="M40.7,92.159v2.38h3.206v1.75H40.7v2.429h4.186v1.82H38.323v-10.2h6.565v1.82Z"/>
          <path class="cls-5" d="M55.494,100.538H53.66a.8.8,0,0,1-.5-.144.913.913,0,0,1-.287-.368l-.6-1.778H48.4l-.6,1.778a.838.838,0,0,1-.276.354.77.77,0,0,1-.493.158H45.177l3.947-10.2h2.423Zm-3.759-3.9-.945-2.793c-.069-.177-.145-.386-.224-.626s-.159-.5-.238-.781c-.069.285-.145.548-.224.791s-.154.453-.224.63l-.938,2.779Z"/>
          <path class="cls-5" d="M64.644,100.538H62.5a.909.909,0,0,1-.854-.448l-1.694-2.961a.687.687,0,0,0-.686-.364h-.6v3.773H56.3v-10.2h3.317a6.823,6.823,0,0,1,1.887.228,3.549,3.549,0,0,1,1.274.634,2.4,2.4,0,0,1,.717.959,3.176,3.176,0,0,1,.225,1.2,3.26,3.26,0,0,1-.133.938,2.893,2.893,0,0,1-.393.815,2.992,2.992,0,0,1-.641.668,3.419,3.419,0,0,1-.878.483,2.193,2.193,0,0,1,.434.3,2.073,2.073,0,0,1,.364.424Zm-5.026-5.4a2.442,2.442,0,0,0,.823-.123,1.482,1.482,0,0,0,.556-.34,1.294,1.294,0,0,0,.315-.507,1.943,1.943,0,0,0,.1-.626,1.312,1.312,0,0,0-.437-1.05,2.035,2.035,0,0,0-1.354-.378h-.952v3.024Z"/>
          <path class="cls-5" d="M72.2,97.9a.48.48,0,0,1,.168.032.464.464,0,0,1,.161.108l.938.987a3.886,3.886,0,0,1-1.543,1.215,5.409,5.409,0,0,1-2.2.409,5.225,5.225,0,0,1-2.082-.4,4.5,4.5,0,0,1-1.562-1.092,4.812,4.812,0,0,1-.983-1.652,6.106,6.106,0,0,1-.343-2.076,5.752,5.752,0,0,1,.371-2.1A4.862,4.862,0,0,1,66.17,91.69a4.69,4.69,0,0,1,1.61-1.078,5.382,5.382,0,0,1,2.064-.385,5.54,5.54,0,0,1,1.082.1,5.338,5.338,0,0,1,.948.28,4.333,4.333,0,0,1,.812.431,4.242,4.242,0,0,1,.658.546l-.8,1.071a1.048,1.048,0,0,1-.182.178.474.474,0,0,1-.294.081.522.522,0,0,1-.238-.056,2.5,2.5,0,0,1-.238-.136l-.276-.175a2.166,2.166,0,0,0-.356-.175,2.925,2.925,0,0,0-.483-.136,3.278,3.278,0,0,0-.647-.056,2.607,2.607,0,0,0-1.074.217,2.346,2.346,0,0,0-.841.634,2.94,2.94,0,0,0-.546,1.022,4.57,4.57,0,0,0-.192,1.382,4.193,4.193,0,0,0,.214,1.393,3.06,3.06,0,0,0,.581,1.025,2.465,2.465,0,0,0,.857.634,2.564,2.564,0,0,0,1.05.217,5.013,5.013,0,0,0,.588-.032,2.647,2.647,0,0,0,.5-.1,2.029,2.029,0,0,0,.435-.2,2.738,2.738,0,0,0,.412-.312.852.852,0,0,1,.183-.115A.471.471,0,0,1,72.2,97.9Z"/>
          <path class="cls-5" d="M83.4,90.339v10.2h-2.38V96.226H76.88v4.312H74.5v-10.2h2.38V94.6h4.144V90.339Z"/>
        </g>
        <line class="cls-3" x1="301.173" y1="73.397" x2="301.173" y2="115.397"/>
      </g>
    </g>
  </g>
</svg>
