<svg id="Layer_1" data-name="Layer 1" xmlns="http://www.w3.org/2000/svg" viewBox="0 0 960.654 197.165">
  <defs>
    <style>
      .cls-1 {
        fill: #6690b7;
      }

      .cls-2 {
        fill: #fff;
      }

      .cls-3 {
        fill: #3377a2;
      }

      .cls-4 {
        fill: #00558d;
      }

      .cls-5 {
        fill: #c9232a;
      }

      .cls-6 {
        fill: #414146;
      }

      .cls-7 {
        fill: none;
        stroke: #c9232a;
        stroke-miterlimit: 10;
        stroke-width: 2.063px;
      }
    </style>
  </defs>
  <title>bb397a9e-de4d-4fff-90b5-f96c02210031</title>
  <g>
    <g>
      <g>
        <g>
          <rect class="cls-1" x="192.165" width="192.165" height="192.165"/>
          <rect class="cls-2" width="192.165" height="192.165"/>
          <rect class="cls-3" x="384.329" width="192.165" height="192.165"/>
          <rect class="cls-4" x="576.325" width="192.165" height="192.165"/>
          <rect class="cls-5" x="768.49" width="192.165" height="192.165"/>
        </g>
        <g>
          <path class="cls-6" d="M34.422,46.75v.83H27.051V34.086h.982V46.75Z"/>
          <path class="cls-6" d="M44.807,46.769l-.019.811H36.7V34.086h8.086V34.9h-7.1v5.455H43.6v.792H37.683v5.626Z"/>
          <path class="cls-6" d="M58.023,47.58H57.27a.33.33,0,0,1-.219-.071.479.479,0,0,1-.133-.187L55.335,43.4H48.707l-1.583,3.919a.408.408,0,0,1-.133.182.356.356,0,0,1-.229.076h-.744l5.521-13.494H52.5Zm-2.985-4.9L52.293,35.86a6.672,6.672,0,0,1-.277-.8c-.038.153-.08.3-.124.435a3.873,3.873,0,0,1-.143.376L49,42.679Z"/>
          <path class="cls-6" d="M69.572,47.58h-.839a.624.624,0,0,1-.272-.053.526.526,0,0,1-.205-.2l-4.33-5.474a1.307,1.307,0,0,0-.157-.182.633.633,0,0,0-.181-.119.946.946,0,0,0-.238-.062,2.532,2.532,0,0,0-.339-.02H61.247v6.1h-.982V34.086h3.452a5.627,5.627,0,0,1,3.485.9,3.149,3.149,0,0,1,1.159,2.646,3.63,3.63,0,0,1-.267,1.411,3.323,3.323,0,0,1-.768,1.121,4.021,4.021,0,0,1-1.211.786,5.7,5.7,0,0,1-1.6.41,1.542,1.542,0,0,1,.41.382Zm-5.989-6.828a5.537,5.537,0,0,0,1.607-.215,3.46,3.46,0,0,0,1.2-.614,2.66,2.66,0,0,0,.749-.964,3.009,3.009,0,0,0,.257-1.268,2.487,2.487,0,0,0-.939-2.137,4.563,4.563,0,0,0-2.742-.7h-2.47v5.894Z"/>
          <path class="cls-6" d="M82.255,34.086V47.58H81.8a.44.44,0,0,1-.205-.043.487.487,0,0,1-.157-.147L72.671,35.679c.019.19.029.372.029.544V47.58h-.858V34.086h.486a.5.5,0,0,1,.205.034.462.462,0,0,1,.157.147l8.745,11.682c-.019-.19-.028-.372-.028-.543V34.086Z"/>
          <path class="cls-6" d="M104.751,34.086V47.58H103.9v-11.5a5.117,5.117,0,0,1,.028-.524l-5.312,9.432a.417.417,0,0,1-.381.248h-.153a.417.417,0,0,1-.381-.248l-5.455-9.45c.019.19.029.372.029.543v11.5h-.858V34.086H92.1a.6.6,0,0,1,.21.029.343.343,0,0,1,.153.152L97.9,43.651a3.794,3.794,0,0,1,.248.572c.038-.1.08-.2.124-.3s.092-.192.143-.281l5.292-9.374a.333.333,0,0,1,.157-.152.647.647,0,0,1,.215-.029Z"/>
          <path class="cls-6" d="M120.723,40.828a8.182,8.182,0,0,1-.467,2.837,6.276,6.276,0,0,1-1.316,2.175,5.824,5.824,0,0,1-2.036,1.393,7.221,7.221,0,0,1-5.23,0,5.831,5.831,0,0,1-2.031-1.393,6.276,6.276,0,0,1-1.316-2.175,8.816,8.816,0,0,1,0-5.664,6.281,6.281,0,0,1,1.316-2.174,5.87,5.87,0,0,1,2.031-1.4,6.7,6.7,0,0,1,2.613-.5,6.789,6.789,0,0,1,2.618.491,5.772,5.772,0,0,1,2.036,1.4A6.33,6.33,0,0,1,120.256,38,8.153,8.153,0,0,1,120.723,40.828Zm-1.011,0a7.7,7.7,0,0,0-.391-2.536,5.428,5.428,0,0,0-1.106-1.907,4.769,4.769,0,0,0-1.717-1.2,6.092,6.092,0,0,0-4.415,0,4.811,4.811,0,0,0-1.721,1.2,5.432,5.432,0,0,0-1.116,1.907,8.338,8.338,0,0,0,0,5.078,5.436,5.436,0,0,0,1.116,1.9,4.748,4.748,0,0,0,1.721,1.191,6.146,6.146,0,0,0,4.415,0,4.707,4.707,0,0,0,1.717-1.191,5.432,5.432,0,0,0,1.106-1.9A7.69,7.69,0,0,0,119.712,40.828Z"/>
          <path class="cls-6" d="M133.139,47.58H132.3a.624.624,0,0,1-.272-.053.526.526,0,0,1-.205-.2l-4.33-5.474a1.307,1.307,0,0,0-.157-.182.633.633,0,0,0-.181-.119.946.946,0,0,0-.238-.062,2.532,2.532,0,0,0-.339-.02h-1.764v6.1h-.982V34.086h3.452a5.627,5.627,0,0,1,3.485.9,3.149,3.149,0,0,1,1.159,2.646,3.63,3.63,0,0,1-.267,1.411,3.323,3.323,0,0,1-.768,1.121,4.021,4.021,0,0,1-1.211.786,5.7,5.7,0,0,1-1.6.41,1.542,1.542,0,0,1,.41.382Zm-5.989-6.828a5.537,5.537,0,0,0,1.607-.215,3.46,3.46,0,0,0,1.2-.614,2.66,2.66,0,0,0,.749-.964,3.009,3.009,0,0,0,.257-1.268,2.487,2.487,0,0,0-.939-2.137,4.563,4.563,0,0,0-2.742-.7h-2.47v5.894Z"/>
          <path class="cls-6" d="M143.514,46.769l-.019.811h-8.086V34.086H143.5V34.9h-7.1v5.455H142.3v.792h-5.913v5.626Z"/>
          <path class="cls-6" d="M37.312,68.58h-.753a.33.33,0,0,1-.219-.071.479.479,0,0,1-.133-.187L34.623,64.4H27.995l-1.583,3.919a.408.408,0,0,1-.133.182.356.356,0,0,1-.229.076h-.744l5.521-13.494h.963Zm-2.985-4.9L31.581,56.86a6.672,6.672,0,0,1-.277-.8c-.038.153-.08.3-.124.435a3.873,3.873,0,0,1-.143.376l-2.746,6.81Z"/>
          <path class="cls-6" d="M43.434,55.086a7.757,7.757,0,0,1,2,.229,3.8,3.8,0,0,1,1.4.672,2.7,2.7,0,0,1,.82,1.083,3.724,3.724,0,0,1,.267,1.449,2.9,2.9,0,0,1-.186,1.029,3.152,3.152,0,0,1-.534.916,3.416,3.416,0,0,1-.858.729,4.116,4.116,0,0,1-1.168.472,4.306,4.306,0,0,1,2.446,1.054,2.883,2.883,0,0,1,.854,2.17,3.763,3.763,0,0,1-.305,1.545,3.121,3.121,0,0,1-.887,1.163,4.037,4.037,0,0,1-1.431.729,6.735,6.735,0,0,1-1.926.253H39.553V55.086Zm-2.9.772V61.4h2.918a4.732,4.732,0,0,0,1.6-.238,3.16,3.16,0,0,0,1.087-.63,2.442,2.442,0,0,0,.625-.887,2.7,2.7,0,0,0,.2-1.021,2.5,2.5,0,0,0-.863-2.064,4.191,4.191,0,0,0-2.665-.7ZM43.92,67.8A4.072,4.072,0,0,0,46.6,67.03a2.668,2.668,0,0,0,.911-2.16,2.635,2.635,0,0,0-.243-1.148,2.4,2.4,0,0,0-.7-.868,3.259,3.259,0,0,0-1.125-.548,5.491,5.491,0,0,0-1.516-.191h-3.4V67.8Z"/>
          <path class="cls-6" d="M63.593,61.828a8.182,8.182,0,0,1-.467,2.837A6.276,6.276,0,0,1,61.81,66.84a5.824,5.824,0,0,1-2.036,1.393,7.221,7.221,0,0,1-5.23,0,5.831,5.831,0,0,1-2.031-1.393A6.276,6.276,0,0,1,51.2,64.665,8.816,8.816,0,0,1,51.2,59a6.281,6.281,0,0,1,1.316-2.174,5.87,5.87,0,0,1,2.031-1.4,6.7,6.7,0,0,1,2.613-.5,6.789,6.789,0,0,1,2.618.491,5.772,5.772,0,0,1,2.036,1.4A6.33,6.33,0,0,1,63.126,59,8.153,8.153,0,0,1,63.593,61.828Zm-1.011,0a7.7,7.7,0,0,0-.391-2.536,5.428,5.428,0,0,0-1.106-1.907,4.769,4.769,0,0,0-1.717-1.2,6.092,6.092,0,0,0-4.415,0,4.811,4.811,0,0,0-1.721,1.2,5.432,5.432,0,0,0-1.116,1.907,8.338,8.338,0,0,0,0,5.078,5.436,5.436,0,0,0,1.116,1.9,4.748,4.748,0,0,0,1.721,1.191,6.146,6.146,0,0,0,4.415,0,4.707,4.707,0,0,0,1.717-1.191,5.432,5.432,0,0,0,1.106-1.9A7.69,7.69,0,0,0,62.583,61.828Z"/>
          <path class="cls-6" d="M71.642,67.884a4.26,4.26,0,0,0,1.741-.339,3.734,3.734,0,0,0,1.3-.938A4.146,4.146,0,0,0,75.5,65.19a5.366,5.366,0,0,0,.282-1.76V55.086h.973v8.345a6.036,6.036,0,0,1-.353,2.084A4.992,4.992,0,0,1,75.385,67.2a4.679,4.679,0,0,1-1.612,1.13,5.743,5.743,0,0,1-4.263,0A4.681,4.681,0,0,1,67.9,67.2a4.984,4.984,0,0,1-1.016-1.687,6.036,6.036,0,0,1-.353-2.084V55.086h.982v8.335a5.362,5.362,0,0,0,.281,1.76A4.176,4.176,0,0,0,68.6,66.6a3.748,3.748,0,0,0,1.3.944A4.225,4.225,0,0,0,71.642,67.884Z"/>
          <path class="cls-6" d="M89.341,55.916H84.6V68.58h-.982V55.916H78.851v-.83h10.49Z"/>
          <path class="cls-6" d="M38.532,75.685V89.58H36.854a1.467,1.467,0,0,1-.625-.119,1.52,1.52,0,0,1-.5-.415l-6.551-8.287q.038.372.052.721t.015.652V89.58H26.4V75.685h1.7a2.739,2.739,0,0,1,.353.02.893.893,0,0,1,.257.071.865.865,0,0,1,.219.147,2.572,2.572,0,0,1,.238.258l6.609,8.345q-.048-.4-.067-.777t-.019-.711V75.685Z"/>
          <path class="cls-6" d="M53.685,89.58h-2.5a1.092,1.092,0,0,1-.677-.2,1.239,1.239,0,0,1-.391-.5l-.82-2.422H44.015l-.82,2.422a1.156,1.156,0,0,1-.376.481,1.048,1.048,0,0,1-.672.215H39.628l5.378-13.895h3.3Zm-5.121-5.312-1.288-3.8q-.143-.363-.305-.854t-.324-1.063q-.143.582-.305,1.077t-.305.858l-1.278,3.786Z"/>
          <path class="cls-6" d="M63.412,78.241H59.5V89.58H56.279V78.241h-3.91V75.685H63.412Z"/>
          <path class="cls-6" d="M68.285,89.58H65.043V75.685h3.242Z"/>
          <path class="cls-6" d="M84.61,82.628a7.461,7.461,0,0,1-.52,2.8,6.625,6.625,0,0,1-3.738,3.758,8.3,8.3,0,0,1-5.907,0,6.629,6.629,0,0,1-3.752-3.758,7.818,7.818,0,0,1,0-5.607,6.669,6.669,0,0,1,1.468-2.25,6.791,6.791,0,0,1,2.284-1.5,7.769,7.769,0,0,1,2.956-.544,7.662,7.662,0,0,1,2.951.549,6.8,6.8,0,0,1,2.274,1.5,6.709,6.709,0,0,1,1.464,2.25A7.439,7.439,0,0,1,84.61,82.628Zm-3.3,0a6,6,0,0,0-.267-1.854,3.927,3.927,0,0,0-.768-1.4,3.312,3.312,0,0,0-1.225-.877,4.225,4.225,0,0,0-1.65-.3,4.285,4.285,0,0,0-1.664.3,3.3,3.3,0,0,0-1.23.877,3.935,3.935,0,0,0-.768,1.4,6.617,6.617,0,0,0,0,3.719,3.927,3.927,0,0,0,.768,1.4,3.247,3.247,0,0,0,1.23.872,4.34,4.34,0,0,0,1.664.3,4.279,4.279,0,0,0,1.65-.3,3.257,3.257,0,0,0,1.225-.872,3.918,3.918,0,0,0,.768-1.4A6.032,6.032,0,0,0,81.311,82.628Z"/>
          <path class="cls-6" d="M98.638,75.685V89.58H96.96a1.467,1.467,0,0,1-.625-.119,1.52,1.52,0,0,1-.5-.415l-6.551-8.287q.038.372.052.721t.015.652V89.58H86.508V75.685h1.7a2.739,2.739,0,0,1,.353.02.893.893,0,0,1,.257.071.865.865,0,0,1,.219.147,2.572,2.572,0,0,1,.238.258l6.609,8.345q-.048-.4-.067-.777t-.019-.711V75.685Z"/>
          <path class="cls-6" d="M113.79,89.58h-2.5a1.092,1.092,0,0,1-.677-.2,1.239,1.239,0,0,1-.391-.5l-.82-2.422h-5.283l-.82,2.422a1.156,1.156,0,0,1-.376.481,1.048,1.048,0,0,1-.672.215H99.734l5.378-13.895h3.3Zm-5.121-5.312-1.288-3.8q-.143-.363-.305-.854t-.324-1.063q-.143.582-.305,1.077t-.305.858l-1.278,3.786Z"/>
          <path class="cls-6" d="M123.26,87V89.58h-8.373V75.685h3.223V87Z"/>
          <path class="cls-6" d="M38.866,110.58h-2.5a1.092,1.092,0,0,1-.677-.2,1.239,1.239,0,0,1-.391-.5l-.82-2.422H29.2l-.82,2.422a1.156,1.156,0,0,1-.376.481,1.048,1.048,0,0,1-.672.215H24.81l5.378-13.895h3.3Zm-5.121-5.312-1.288-3.8q-.143-.363-.305-.854t-.324-1.063q-.143.582-.305,1.077t-.305.858l-1.278,3.786Z"/>
          <path class="cls-6" d="M43.205,110.58H39.963V96.685h3.242Z"/>
          <path class="cls-6" d="M57.261,110.58H54.343a1.236,1.236,0,0,1-1.163-.61l-2.308-4.034a.938.938,0,0,0-.935-.5h-.82v5.14H45.894V96.685h4.52a9.258,9.258,0,0,1,2.57.311,4.825,4.825,0,0,1,1.736.862,3.273,3.273,0,0,1,.978,1.307,4.337,4.337,0,0,1,.3,1.641,4.39,4.39,0,0,1-.181,1.277,3.945,3.945,0,0,1-.534,1.111,4.1,4.1,0,0,1-.873.911,4.653,4.653,0,0,1-1.2.657,2.945,2.945,0,0,1,.591.405,2.85,2.85,0,0,1,.5.577Zm-6.847-7.362a3.317,3.317,0,0,0,1.121-.167,2.008,2.008,0,0,0,.758-.462,1.76,1.76,0,0,0,.429-.691,2.659,2.659,0,0,0,.134-.854,1.791,1.791,0,0,0-.6-1.431,2.778,2.778,0,0,0-1.845-.515h-1.3v4.119Z"/>
          <path class="cls-6" d="M76.981,96.685,72.69,110.58H69.772l-2.613-8.611q-.077-.2-.143-.443t-.134-.51q-.067.267-.133.51t-.143.443l-2.651,8.611H61.037L56.746,96.685h2.708a1.216,1.216,0,0,1,.7.191.871.871,0,0,1,.367.5l1.907,7.248c.057.229.114.479.172.748s.114.552.171.844a10.875,10.875,0,0,1,.419-1.592l2.25-7.248a1,1,0,0,1,.367-.481,1.1,1.1,0,0,1,.682-.215h.954a1.092,1.092,0,0,1,.677.2,1.246,1.246,0,0,1,.391.5l2.231,7.248a10.08,10.08,0,0,1,.419,1.516q.076-.429.158-.806t.167-.71L73.4,97.382a.9.9,0,0,1,.363-.486,1.13,1.13,0,0,1,.687-.21Z"/>
          <path class="cls-6" d="M89.836,110.58h-2.5a1.092,1.092,0,0,1-.677-.2,1.239,1.239,0,0,1-.391-.5l-.82-2.422H80.167l-.82,2.422a1.156,1.156,0,0,1-.376.481,1.048,1.048,0,0,1-.672.215H75.78l5.378-13.895h3.3Zm-5.121-5.312-1.288-3.8q-.143-.363-.305-.854T82.8,99.547q-.143.582-.305,1.077t-.305.858l-1.278,3.786Z"/>
          <path class="cls-6" d="M96.073,105.3v5.283H92.85V105.3l-5.035-8.611h2.842a1.032,1.032,0,0,1,.663.2,1.6,1.6,0,0,1,.405.5l1.964,4.044q.248.476.448.892t.353.814c.1-.272.205-.548.329-.824s.269-.57.434-.882L97.2,97.382a1.9,1.9,0,0,1,.162-.248,1.246,1.246,0,0,1,.224-.224,1.08,1.08,0,0,1,.3-.162,1.029,1.029,0,0,1,.367-.062h2.861Z"/>
          <path class="cls-6" d="M109.309,99.509a1.206,1.206,0,0,1-.3.343.673.673,0,0,1-.405.114.994.994,0,0,1-.472-.138q-.253-.138-.572-.31a4.761,4.761,0,0,0-.729-.311,2.931,2.931,0,0,0-.935-.138,2.01,2.01,0,0,0-1.35.386,1.315,1.315,0,0,0-.443,1.044.961.961,0,0,0,.267.7,2.284,2.284,0,0,0,.7.477,7.379,7.379,0,0,0,.992.367q.558.167,1.14.372a10.366,10.366,0,0,1,1.14.481,3.8,3.8,0,0,1,.992.706,3.3,3.3,0,0,1,.7,1.044,3.719,3.719,0,0,1,.267,1.483,4.834,4.834,0,0,1-.333,1.8,4.223,4.223,0,0,1-.968,1.464,4.486,4.486,0,0,1-1.564.982,5.856,5.856,0,0,1-2.112.357A6.778,6.778,0,0,1,104,110.6a7.921,7.921,0,0,1-1.3-.377,7.541,7.541,0,0,1-1.183-.577,5.016,5.016,0,0,1-.963-.744l.954-1.507a.961.961,0,0,1,.3-.271.781.781,0,0,1,.405-.109,1.092,1.092,0,0,1,.577.181q.291.182.658.4a5.423,5.423,0,0,0,.844.4,3.177,3.177,0,0,0,1.125.181,2.146,2.146,0,0,0,1.364-.386,1.471,1.471,0,0,0,.486-1.226,1.162,1.162,0,0,0-.267-.792,2.073,2.073,0,0,0-.7-.5,6.43,6.43,0,0,0-.987-.353q-.553-.154-1.135-.339a8.254,8.254,0,0,1-1.135-.458,3.581,3.581,0,0,1-.987-.715,3.345,3.345,0,0,1-.7-1.106,4.4,4.4,0,0,1-.267-1.636,3.879,3.879,0,0,1,.314-1.525,3.938,3.938,0,0,1,.925-1.325,4.558,4.558,0,0,1,1.5-.931,5.539,5.539,0,0,1,2.031-.348,7.548,7.548,0,0,1,1.245.1,6.56,6.56,0,0,1,1.149.295,6.307,6.307,0,0,1,1.015.468,4.626,4.626,0,0,1,.844.615Z"/>
          <path class="cls-6" d="M35.767,127.985a.634.634,0,0,1,.229.043.612.612,0,0,1,.219.147l1.278,1.345a5.312,5.312,0,0,1-2.1,1.654,7.359,7.359,0,0,1-2.99.558,7.136,7.136,0,0,1-2.837-.538,6.139,6.139,0,0,1-2.126-1.488,6.552,6.552,0,0,1-1.34-2.25,8.314,8.314,0,0,1-.467-2.828,7.822,7.822,0,0,1,.505-2.855,6.625,6.625,0,0,1,1.421-2.246,6.39,6.39,0,0,1,2.193-1.469,7.339,7.339,0,0,1,2.813-.524,7.457,7.457,0,0,1,1.473.139,7.17,7.17,0,0,1,1.292.381,5.925,5.925,0,0,1,2,1.33l-1.087,1.46a1.412,1.412,0,0,1-.248.243.651.651,0,0,1-.4.109.715.715,0,0,1-.324-.076,3.481,3.481,0,0,1-.324-.187l-.377-.238a2.9,2.9,0,0,0-.486-.238,4,4,0,0,0-.658-.186,4.5,4.5,0,0,0-.882-.076,3.566,3.566,0,0,0-1.464.295,3.194,3.194,0,0,0-1.144.863,3.987,3.987,0,0,0-.744,1.393,6.212,6.212,0,0,0-.262,1.883,5.73,5.73,0,0,0,.291,1.9,4.16,4.16,0,0,0,.792,1.4,3.365,3.365,0,0,0,1.168.863,3.49,3.49,0,0,0,1.431.3,6.912,6.912,0,0,0,.8-.043,3.731,3.731,0,0,0,.677-.144,2.739,2.739,0,0,0,.591-.267,3.748,3.748,0,0,0,.563-.425,1.109,1.109,0,0,1,.248-.157A.653.653,0,0,1,35.767,127.985Z"/>
          <path class="cls-6" d="M52.216,124.628a7.461,7.461,0,0,1-.52,2.8,6.625,6.625,0,0,1-3.738,3.758,8.3,8.3,0,0,1-5.907,0,6.629,6.629,0,0,1-3.752-3.758,7.818,7.818,0,0,1,0-5.607,6.669,6.669,0,0,1,1.468-2.25,6.791,6.791,0,0,1,2.284-1.5,7.769,7.769,0,0,1,2.956-.544,7.662,7.662,0,0,1,2.951.549,6.8,6.8,0,0,1,2.274,1.5,6.709,6.709,0,0,1,1.464,2.25A7.439,7.439,0,0,1,52.216,124.628Zm-3.3,0a6,6,0,0,0-.267-1.854,3.927,3.927,0,0,0-.768-1.4,3.312,3.312,0,0,0-1.225-.877,4.225,4.225,0,0,0-1.65-.3,4.285,4.285,0,0,0-1.664.3,3.3,3.3,0,0,0-1.23.877,3.935,3.935,0,0,0-.768,1.4,6.617,6.617,0,0,0,0,3.719,3.927,3.927,0,0,0,.768,1.4,3.247,3.247,0,0,0,1.23.872,4.34,4.34,0,0,0,1.664.3,4.279,4.279,0,0,0,1.65-.3,3.257,3.257,0,0,0,1.225-.872,3.918,3.918,0,0,0,.768-1.4A6.032,6.032,0,0,0,48.917,124.628Z"/>
          <path class="cls-6" d="M65.481,131.58H62.563a1.236,1.236,0,0,1-1.163-.61l-2.308-4.034a.938.938,0,0,0-.935-.5h-.82v5.14H54.114V117.685h4.52A9.258,9.258,0,0,1,61.2,118a4.825,4.825,0,0,1,1.736.862,3.273,3.273,0,0,1,.978,1.307,4.337,4.337,0,0,1,.3,1.641,4.39,4.39,0,0,1-.181,1.277,3.945,3.945,0,0,1-.534,1.111,4.1,4.1,0,0,1-.873.911,4.653,4.653,0,0,1-1.2.657,2.945,2.945,0,0,1,.591.405,2.85,2.85,0,0,1,.5.577Zm-6.847-7.362a3.317,3.317,0,0,0,1.121-.167,2.008,2.008,0,0,0,.758-.462,1.76,1.76,0,0,0,.429-.691,2.659,2.659,0,0,0,.134-.854,1.791,1.791,0,0,0-.6-1.431,2.778,2.778,0,0,0-1.845-.515h-1.3v4.119Z"/>
          <path class="cls-6" d="M71.555,117.685a8.073,8.073,0,0,1,2.522.349,4.843,4.843,0,0,1,1.735.958,3.738,3.738,0,0,1,1.006,1.44,4.885,4.885,0,0,1,.324,1.792,5.265,5.265,0,0,1-.334,1.907,3.823,3.823,0,0,1-1.021,1.488,4.812,4.812,0,0,1-1.74.968,7.967,7.967,0,0,1-2.494.348H69.876v4.645H66.653V117.685Zm0,6.818a2.045,2.045,0,0,0,2.365-2.279,2.512,2.512,0,0,0-.143-.867,1.78,1.78,0,0,0-.434-.673,1.947,1.947,0,0,0-.734-.434,3.252,3.252,0,0,0-1.054-.152H69.876V124.5Z"/>
          <path class="cls-6" d="M92.42,124.628a7.461,7.461,0,0,1-.52,2.8,6.625,6.625,0,0,1-3.738,3.758,8.3,8.3,0,0,1-5.907,0,6.629,6.629,0,0,1-3.752-3.758,7.818,7.818,0,0,1,0-5.607,6.669,6.669,0,0,1,1.468-2.25,6.791,6.791,0,0,1,2.284-1.5,7.769,7.769,0,0,1,2.956-.544,7.662,7.662,0,0,1,2.951.549,6.8,6.8,0,0,1,2.274,1.5,6.709,6.709,0,0,1,1.464,2.25A7.439,7.439,0,0,1,92.42,124.628Zm-3.3,0a6,6,0,0,0-.267-1.854,3.927,3.927,0,0,0-.768-1.4,3.312,3.312,0,0,0-1.225-.877,4.225,4.225,0,0,0-1.65-.3,4.285,4.285,0,0,0-1.664.3,3.3,3.3,0,0,0-1.23.877,3.935,3.935,0,0,0-.768,1.4,6.617,6.617,0,0,0,0,3.719,3.927,3.927,0,0,0,.768,1.4,3.247,3.247,0,0,0,1.23.872,4.34,4.34,0,0,0,1.664.3,4.279,4.279,0,0,0,1.65-.3,3.257,3.257,0,0,0,1.225-.872,3.918,3.918,0,0,0,.768-1.4A6.032,6.032,0,0,0,89.12,124.628Z"/>
          <path class="cls-6" d="M105.684,131.58h-2.918a1.236,1.236,0,0,1-1.163-.61l-2.308-4.034a.938.938,0,0,0-.935-.5h-.82v5.14H94.317V117.685h4.52a9.258,9.258,0,0,1,2.57.311,4.825,4.825,0,0,1,1.736.862,3.273,3.273,0,0,1,.978,1.307,4.337,4.337,0,0,1,.3,1.641,4.39,4.39,0,0,1-.181,1.277,3.945,3.945,0,0,1-.534,1.111,4.1,4.1,0,0,1-.873.911,4.653,4.653,0,0,1-1.2.657,2.945,2.945,0,0,1,.591.405,2.85,2.85,0,0,1,.5.577Zm-6.847-7.362a3.317,3.317,0,0,0,1.121-.167,2.008,2.008,0,0,0,.758-.462,1.76,1.76,0,0,0,.429-.691,2.659,2.659,0,0,0,.134-.854,1.791,1.791,0,0,0-.6-1.431,2.778,2.778,0,0,0-1.845-.515h-1.3v4.119Z"/>
          <path class="cls-6" d="M119.32,131.58h-2.5a1.092,1.092,0,0,1-.677-.2,1.239,1.239,0,0,1-.391-.5l-.82-2.422h-5.283l-.82,2.422a1.156,1.156,0,0,1-.376.481,1.048,1.048,0,0,1-.672.215h-2.518l5.378-13.895h3.3Zm-5.121-5.312-1.288-3.8q-.143-.363-.305-.854t-.324-1.063q-.143.582-.305,1.077t-.305.858l-1.278,3.786Z"/>
          <path class="cls-6" d="M129.048,120.241h-3.91V131.58h-3.223V120.241H118v-2.556h11.043Z"/>
          <path class="cls-6" d="M133.92,131.58h-3.242V117.685h3.242Z"/>
          <path class="cls-6" d="M150.246,124.628a7.461,7.461,0,0,1-.52,2.8,6.625,6.625,0,0,1-3.738,3.758,8.3,8.3,0,0,1-5.907,0,6.629,6.629,0,0,1-3.752-3.758,7.818,7.818,0,0,1,0-5.607,6.669,6.669,0,0,1,1.468-2.25,6.791,6.791,0,0,1,2.284-1.5,7.769,7.769,0,0,1,2.956-.544,7.662,7.662,0,0,1,2.951.549,6.8,6.8,0,0,1,2.274,1.5,6.709,6.709,0,0,1,1.464,2.25A7.439,7.439,0,0,1,150.246,124.628Zm-3.3,0a6,6,0,0,0-.267-1.854,3.927,3.927,0,0,0-.768-1.4,3.312,3.312,0,0,0-1.225-.877,4.225,4.225,0,0,0-1.65-.3,4.285,4.285,0,0,0-1.664.3,3.3,3.3,0,0,0-1.23.877,3.935,3.935,0,0,0-.768,1.4,6.617,6.617,0,0,0,0,3.719,3.927,3.927,0,0,0,.768,1.4,3.247,3.247,0,0,0,1.23.872,4.34,4.34,0,0,0,1.664.3,4.279,4.279,0,0,0,1.65-.3,3.257,3.257,0,0,0,1.225-.872,3.918,3.918,0,0,0,.768-1.4A6.032,6.032,0,0,0,146.946,124.628Z"/>
          <path class="cls-6" d="M164.273,117.685V131.58H162.6a1.467,1.467,0,0,1-.625-.119,1.52,1.52,0,0,1-.5-.415l-6.551-8.287q.038.372.052.721t.015.652v7.448h-2.842V117.685h1.7a2.739,2.739,0,0,1,.353.02.893.893,0,0,1,.257.071.865.865,0,0,1,.219.147,2.572,2.572,0,0,1,.238.258l6.609,8.345q-.048-.4-.067-.777t-.019-.711v-7.353Z"/>
        </g>
        <g>
          <path class="cls-2" d="M235.876,136.853l-.61,4.942h4.877l-.1.686h-4.86l-.66,5.372H233.7l1.436-11.677h6.454l-.091.677Z"/>
          <path class="cls-2" d="M248.411,147.152l-.091.7h-5.892l1.436-11.677h.817l-1.354,10.976Z"/>
          <path class="cls-2" d="M252.652,143.042l-.6,4.812h-.817l.6-4.819-3.144-6.857h.726a.27.27,0,0,1,.281.206l2.467,5.513c.033.094.063.186.091.276a2.321,2.321,0,0,1,.066.276c.044-.094.091-.186.141-.276s.1-.183.165-.276l3.829-5.513a.567.567,0,0,1,.132-.148.3.3,0,0,1,.19-.058h.685Z"/>
          <path class="cls-2" d="M268.752,147.853H266.59a.947.947,0,0,1-.586-.169,1.083,1.083,0,0,1-.338-.434l-.709-2.1h-4.572l-.71,2.1a1,1,0,0,1-.326.417.908.908,0,0,1-.582.186h-2.178l4.654-12.023H264.1Zm-4.431-4.6-1.114-3.293q-.124-.313-.264-.738t-.28-.92q-.124.5-.264.933t-.264.742l-1.106,3.276Z"/>
          <path class="cls-2" d="M285.225,135.83l-3.713,12.023h-2.525l-2.261-7.452c-.044-.115-.085-.243-.124-.384s-.077-.287-.116-.441c-.039.154-.077.3-.116.441s-.08.269-.124.384l-2.294,7.452h-2.525l-3.713-12.023h2.343a1.056,1.056,0,0,1,.607.165.753.753,0,0,1,.317.438l1.65,6.271q.075.3.149.647t.148.73a9.344,9.344,0,0,1,.363-1.378l1.947-6.271a.862.862,0,0,1,.318-.417.942.942,0,0,1,.59-.186h.825a.946.946,0,0,1,.586.169,1.07,1.07,0,0,1,.338.434l1.931,6.271a8.762,8.762,0,0,1,.363,1.313q.066-.372.136-.7t.145-.614l1.65-6.271a.783.783,0,0,1,.314-.421.976.976,0,0,1,.594-.182Z"/>
          <path class="cls-2" d="M289.227,137.976v2.806h3.78v2.063h-3.78v2.863h4.935v2.146h-7.741V135.83h7.741v2.146Z"/>
          <path class="cls-2" d="M302.521,138.272a1.04,1.04,0,0,1-.26.3.58.58,0,0,1-.351.1.854.854,0,0,1-.408-.12l-.5-.269a4.2,4.2,0,0,0-.631-.268,2.519,2.519,0,0,0-.809-.12,1.736,1.736,0,0,0-1.168.335,1.136,1.136,0,0,0-.384.9.833.833,0,0,0,.231.6,1.987,1.987,0,0,0,.606.412,6.441,6.441,0,0,0,.858.318q.483.144.986.321a8.876,8.876,0,0,1,.986.417,3.285,3.285,0,0,1,.858.61,2.854,2.854,0,0,1,.607.9,3.215,3.215,0,0,1,.231,1.283,4.175,4.175,0,0,1-.289,1.56,3.648,3.648,0,0,1-.837,1.267,3.885,3.885,0,0,1-1.354.85,5.046,5.046,0,0,1-1.828.31,5.845,5.845,0,0,1-1.143-.115,6.778,6.778,0,0,1-1.126-.326,6.581,6.581,0,0,1-1.023-.5,4.366,4.366,0,0,1-.833-.644l.825-1.3a.83.83,0,0,1,.26-.235.675.675,0,0,1,.351-.095.937.937,0,0,1,.5.156q.252.157.57.347a4.581,4.581,0,0,0,.73.347,2.741,2.741,0,0,0,.974.156,1.854,1.854,0,0,0,1.18-.334,1.272,1.272,0,0,0,.421-1.061,1,1,0,0,0-.231-.685,1.785,1.785,0,0,0-.606-.437,5.727,5.727,0,0,0-.854-.306q-.479-.132-.982-.293a7.144,7.144,0,0,1-.982-.4,3.114,3.114,0,0,1-.854-.619,2.894,2.894,0,0,1-.606-.957,3.8,3.8,0,0,1-.231-1.415,3.371,3.371,0,0,1,.272-1.321,3.416,3.416,0,0,1,.8-1.146,3.934,3.934,0,0,1,1.3-.8,4.778,4.778,0,0,1,1.758-.3,6.612,6.612,0,0,1,1.077.087,5.69,5.69,0,0,1,.994.256,5.563,5.563,0,0,1,.879.4,4.07,4.07,0,0,1,.73.532Z"/>
          <path class="cls-2" d="M316.822,141.838a6.46,6.46,0,0,1-.45,2.426,5.732,5.732,0,0,1-3.235,3.252,7.19,7.19,0,0,1-5.112,0,5.739,5.739,0,0,1-3.248-3.252,6.77,6.77,0,0,1,0-4.853,5.769,5.769,0,0,1,1.271-1.947,5.877,5.877,0,0,1,1.977-1.3,6.726,6.726,0,0,1,2.558-.471,6.642,6.642,0,0,1,2.554.475,5.9,5.9,0,0,1,1.968,1.3,5.816,5.816,0,0,1,1.267,1.948A6.438,6.438,0,0,1,316.822,141.838Zm-2.855,0a5.2,5.2,0,0,0-.231-1.605,3.4,3.4,0,0,0-.664-1.209,2.865,2.865,0,0,0-1.061-.759,3.637,3.637,0,0,0-1.428-.265,3.69,3.69,0,0,0-1.44.265,2.851,2.851,0,0,0-1.064.759,3.4,3.4,0,0,0-.665,1.209,5.723,5.723,0,0,0,0,3.219,3.4,3.4,0,0,0,.665,1.209,2.821,2.821,0,0,0,1.064.755,3.763,3.763,0,0,0,1.44.26,3.709,3.709,0,0,0,1.428-.26,2.833,2.833,0,0,0,1.061-.755,3.4,3.4,0,0,0,.664-1.209A5.238,5.238,0,0,0,313.967,141.838Z"/>
          <path class="cls-2" d="M331.981,135.83v12.023h-2.459v-6.915c0-.16,0-.333.012-.521s.023-.377.045-.569l-3.193,6.181a1.042,1.042,0,0,1-.4.438,1.1,1.1,0,0,1-.574.148h-.379a1.1,1.1,0,0,1-.574-.148,1.045,1.045,0,0,1-.4-.437l-3.194-6.2q.025.3.042.582t.016.524v6.915h-2.459V135.83h2.129c.121,0,.227,0,.318.008a.832.832,0,0,1,.244.05.554.554,0,0,1,.194.128,1,1,0,0,1,.169.243l3.095,6.1q.165.313.318.652t.293.692c.093-.241.191-.479.293-.709s.21-.451.326-.66l3.086-6.074a1,1,0,0,1,.169-.243.55.55,0,0,1,.194-.128.826.826,0,0,1,.243-.05c.091,0,.2-.008.318-.008Z"/>
          <path class="cls-2" d="M337.114,137.976v2.806h3.78v2.063h-3.78v2.863h4.935v2.146h-7.741V135.83h7.741v2.146Z"/>
        </g>
        <g>
          <path class="cls-2" d="M453.994,147.507h-.652a.286.286,0,0,1-.189-.062.417.417,0,0,1-.116-.161l-1.37-3.392h-5.735l-1.37,3.392a.351.351,0,0,1-.116.156.3.3,0,0,1-.2.066H443.6l4.778-11.677h.833Zm-2.583-4.242-2.377-5.9a5.883,5.883,0,0,1-.239-.692q-.05.2-.107.375c-.039.118-.08.227-.124.326l-2.377,5.892Z"/>
          <path class="cls-2" d="M456.783,147.507h-.85V135.83h.85Z"/>
          <path class="cls-2" d="M468.286,147.507h-.726a.544.544,0,0,1-.235-.045.466.466,0,0,1-.177-.17l-3.747-4.736a1.1,1.1,0,0,0-.136-.157.53.53,0,0,0-.157-.1.767.767,0,0,0-.206-.054,2.083,2.083,0,0,0-.293-.017h-1.527v5.281h-.85V135.83h2.987a4.872,4.872,0,0,1,3.017.779,2.725,2.725,0,0,1,1,2.29,3.146,3.146,0,0,1-.231,1.222,2.875,2.875,0,0,1-.665.97,3.469,3.469,0,0,1-1.048.681,4.979,4.979,0,0,1-1.382.354,1.361,1.361,0,0,1,.355.33ZM463.1,141.6a4.8,4.8,0,0,0,1.39-.186,2.972,2.972,0,0,0,1.04-.532,2.3,2.3,0,0,0,.648-.833,2.612,2.612,0,0,0,.223-1.1,2.15,2.15,0,0,0-.813-1.849,3.949,3.949,0,0,0-2.373-.6h-2.137v5.1Z"/>
          <path class="cls-2" d="M478.618,145.543a.193.193,0,0,1,.14.058l.33.354a5.548,5.548,0,0,1-.788.7,4.758,4.758,0,0,1-.933.528,5.463,5.463,0,0,1-1.114.339,6.954,6.954,0,0,1-1.333.119,5.683,5.683,0,0,1-2.224-.425,4.966,4.966,0,0,1-1.737-1.205,5.438,5.438,0,0,1-1.126-1.886,7.176,7.176,0,0,1-.4-2.459,6.847,6.847,0,0,1,.413-2.426A5.563,5.563,0,0,1,471,137.352a5.126,5.126,0,0,1,1.782-1.222,5.9,5.9,0,0,1,2.294-.434,5.646,5.646,0,0,1,2.121.372,5.71,5.71,0,0,1,1.684,1.048l-.256.371a.23.23,0,0,1-.207.1.665.665,0,0,1-.322-.182,4.252,4.252,0,0,0-.619-.4,5.293,5.293,0,0,0-.986-.4,4.848,4.848,0,0,0-1.416-.182,5.018,5.018,0,0,0-1.935.363,4.268,4.268,0,0,0-1.51,1.04,4.781,4.781,0,0,0-.986,1.65,6.954,6.954,0,0,0,0,4.4,4.819,4.819,0,0,0,.986,1.646,4.253,4.253,0,0,0,1.481,1.031,4.712,4.712,0,0,0,1.844.359,6.833,6.833,0,0,0,1.118-.083,4.416,4.416,0,0,0,.9-.247,4.054,4.054,0,0,0,.767-.405,5.708,5.708,0,0,0,.7-.561.424.424,0,0,1,.083-.054A.182.182,0,0,1,478.618,145.543Z"/>
          <path class="cls-2" d="M489.4,147.507h-.726a.544.544,0,0,1-.235-.045.466.466,0,0,1-.177-.17l-3.747-4.736a1.1,1.1,0,0,0-.136-.157.53.53,0,0,0-.157-.1.767.767,0,0,0-.206-.054,2.083,2.083,0,0,0-.293-.017H482.2v5.281h-.85V135.83h2.987a4.872,4.872,0,0,1,3.017.779,2.725,2.725,0,0,1,1,2.29,3.146,3.146,0,0,1-.231,1.222,2.875,2.875,0,0,1-.665.97,3.469,3.469,0,0,1-1.048.681,4.979,4.979,0,0,1-1.382.354,1.361,1.361,0,0,1,.355.33Zm-5.182-5.909a4.8,4.8,0,0,0,1.39-.186,2.972,2.972,0,0,0,1.04-.532,2.3,2.3,0,0,0,.648-.833,2.612,2.612,0,0,0,.223-1.1,2.15,2.15,0,0,0-.813-1.849,3.949,3.949,0,0,0-2.373-.6H482.2v5.1Z"/>
          <path class="cls-2" d="M500.247,147.507H499.6a.286.286,0,0,1-.189-.062.417.417,0,0,1-.116-.161l-1.37-3.392h-5.735l-1.37,3.392a.351.351,0,0,1-.116.156.3.3,0,0,1-.2.066h-.644l4.778-11.677h.833Zm-2.583-4.242-2.377-5.9a5.883,5.883,0,0,1-.239-.692q-.05.2-.107.375c-.039.118-.08.227-.124.326l-2.377,5.892Z"/>
          <path class="cls-2" d="M503.036,136.531v4.91h5.323v.7h-5.323v5.364h-.85V135.83h7v.7Z"/>
          <path class="cls-2" d="M519.1,136.548h-4.1v10.959h-.85V136.548h-4.126v-.718H519.1Z"/>
          <path class="cls-2" d="M464.986,155.926a1.04,1.04,0,0,1-.26.3.58.58,0,0,1-.351.1.854.854,0,0,1-.408-.12l-.5-.269a4.2,4.2,0,0,0-.631-.268,2.519,2.519,0,0,0-.809-.12,1.736,1.736,0,0,0-1.168.335,1.136,1.136,0,0,0-.384.9.833.833,0,0,0,.231.6,1.987,1.987,0,0,0,.606.412,6.441,6.441,0,0,0,.858.318q.483.144.986.321a8.876,8.876,0,0,1,.986.417,3.285,3.285,0,0,1,.858.61,2.854,2.854,0,0,1,.607.9,3.215,3.215,0,0,1,.231,1.283,4.175,4.175,0,0,1-.289,1.56,3.648,3.648,0,0,1-.837,1.267,3.885,3.885,0,0,1-1.354.85,5.046,5.046,0,0,1-1.828.31,5.845,5.845,0,0,1-1.143-.115,6.778,6.778,0,0,1-1.126-.326,6.581,6.581,0,0,1-1.023-.5,4.366,4.366,0,0,1-.833-.644l.825-1.3a.83.83,0,0,1,.26-.235.675.675,0,0,1,.351-.095.937.937,0,0,1,.5.156q.252.157.57.347a4.581,4.581,0,0,0,.73.347,2.741,2.741,0,0,0,.974.156,1.854,1.854,0,0,0,1.18-.334,1.272,1.272,0,0,0,.421-1.061,1,1,0,0,0-.231-.685,1.785,1.785,0,0,0-.606-.437,5.727,5.727,0,0,0-.854-.306q-.479-.132-.982-.293a7.144,7.144,0,0,1-.982-.4,3.114,3.114,0,0,1-.854-.619,2.894,2.894,0,0,1-.606-.957,3.8,3.8,0,0,1-.231-1.415,3.371,3.371,0,0,1,.272-1.321,3.416,3.416,0,0,1,.8-1.146,3.934,3.934,0,0,1,1.3-.8,4.778,4.778,0,0,1,1.758-.3,6.612,6.612,0,0,1,1.077.087,5.69,5.69,0,0,1,.994.256,5.563,5.563,0,0,1,.879.4,4.07,4.07,0,0,1,.73.532Z"/>
          <path class="cls-2" d="M478,165.507h-2.162a.947.947,0,0,1-.586-.169,1.083,1.083,0,0,1-.338-.434l-.709-2.1h-4.572l-.71,2.1a1,1,0,0,1-.326.417.908.908,0,0,1-.582.186h-2.178l4.654-12.023h2.855Zm-4.431-4.6-1.114-3.293q-.124-.313-.264-.738t-.28-.92q-.124.5-.264.933t-.264.742l-1.106,3.276Z"/>
          <path class="cls-2" d="M486.194,163.278v2.229h-7.246V153.483h2.789v9.795Z"/>
          <path class="cls-2" d="M490.419,155.629v2.806h3.78V160.5h-3.78v2.863h4.935v2.146h-7.741V153.483h7.741v2.146Z"/>
          <path class="cls-2" d="M503.714,155.926a1.04,1.04,0,0,1-.26.3.58.58,0,0,1-.351.1.854.854,0,0,1-.408-.12l-.5-.269a4.2,4.2,0,0,0-.631-.268,2.519,2.519,0,0,0-.809-.12,1.736,1.736,0,0,0-1.168.335,1.136,1.136,0,0,0-.384.9.833.833,0,0,0,.231.6,1.987,1.987,0,0,0,.606.412,6.441,6.441,0,0,0,.858.318q.483.144.986.321a8.876,8.876,0,0,1,.986.417,3.285,3.285,0,0,1,.858.61,2.854,2.854,0,0,1,.607.9,3.215,3.215,0,0,1,.231,1.283,4.175,4.175,0,0,1-.289,1.56,3.648,3.648,0,0,1-.837,1.267,3.885,3.885,0,0,1-1.354.85,5.046,5.046,0,0,1-1.828.31,5.845,5.845,0,0,1-1.143-.115A6.778,6.778,0,0,1,498,165.2a6.581,6.581,0,0,1-1.023-.5,4.366,4.366,0,0,1-.833-.644l.825-1.3a.83.83,0,0,1,.26-.235.675.675,0,0,1,.351-.095.937.937,0,0,1,.5.156q.252.157.57.347a4.581,4.581,0,0,0,.73.347,2.741,2.741,0,0,0,.974.156,1.854,1.854,0,0,0,1.18-.334,1.272,1.272,0,0,0,.421-1.061,1,1,0,0,0-.231-.685,1.785,1.785,0,0,0-.606-.437,5.727,5.727,0,0,0-.854-.306q-.479-.132-.982-.293a7.144,7.144,0,0,1-.982-.4,3.114,3.114,0,0,1-.854-.619,2.894,2.894,0,0,1-.606-.957,3.8,3.8,0,0,1-.231-1.415,3.371,3.371,0,0,1,.272-1.321,3.416,3.416,0,0,1,.8-1.146,3.934,3.934,0,0,1,1.3-.8,4.778,4.778,0,0,1,1.758-.3,6.612,6.612,0,0,1,1.077.087,5.69,5.69,0,0,1,.994.256,5.563,5.563,0,0,1,.879.4,4.07,4.07,0,0,1,.73.532Z"/>
        </g>
        <g>
          <path class="cls-2" d="M645.286,147.507h-.652a.286.286,0,0,1-.189-.062.417.417,0,0,1-.116-.161l-1.37-3.392h-5.735l-1.37,3.392a.351.351,0,0,1-.116.156.3.3,0,0,1-.2.066H634.9l4.778-11.677h.833Zm-2.583-4.242-2.377-5.9a5.883,5.883,0,0,1-.239-.692q-.05.2-.107.375c-.039.118-.08.227-.124.326l-2.377,5.892Z"/>
          <path class="cls-2" d="M648.075,147.507h-.85V135.83h.85Z"/>
          <path class="cls-2" d="M659.578,147.507h-.726a.544.544,0,0,1-.235-.045.466.466,0,0,1-.177-.17l-3.747-4.736a1.1,1.1,0,0,0-.136-.157.53.53,0,0,0-.157-.1.767.767,0,0,0-.206-.054,2.083,2.083,0,0,0-.293-.017h-1.527v5.281h-.85V135.83h2.987a4.872,4.872,0,0,1,3.017.779,2.725,2.725,0,0,1,1,2.29,3.146,3.146,0,0,1-.231,1.222,2.875,2.875,0,0,1-.665.97,3.469,3.469,0,0,1-1.048.681,4.979,4.979,0,0,1-1.382.354,1.361,1.361,0,0,1,.355.33ZM654.4,141.6a4.8,4.8,0,0,0,1.39-.186,2.972,2.972,0,0,0,1.04-.532,2.3,2.3,0,0,0,.648-.833,2.612,2.612,0,0,0,.223-1.1,2.15,2.15,0,0,0-.813-1.849,3.949,3.949,0,0,0-2.373-.6h-2.137v5.1Z"/>
          <path class="cls-2" d="M669.91,145.543a.193.193,0,0,1,.14.058l.33.354a5.548,5.548,0,0,1-.788.7,4.758,4.758,0,0,1-.933.528,5.463,5.463,0,0,1-1.114.339,6.954,6.954,0,0,1-1.333.119,5.683,5.683,0,0,1-2.224-.425,4.966,4.966,0,0,1-1.737-1.205,5.438,5.438,0,0,1-1.126-1.886,7.176,7.176,0,0,1-.4-2.459,6.847,6.847,0,0,1,.413-2.426,5.563,5.563,0,0,1,1.156-1.886,5.126,5.126,0,0,1,1.782-1.222,5.9,5.9,0,0,1,2.294-.434,5.646,5.646,0,0,1,2.121.372,5.71,5.71,0,0,1,1.684,1.048l-.256.371a.23.23,0,0,1-.207.1.665.665,0,0,1-.322-.182,4.252,4.252,0,0,0-.619-.4,5.293,5.293,0,0,0-.986-.4,4.848,4.848,0,0,0-1.416-.182,5.018,5.018,0,0,0-1.935.363,4.268,4.268,0,0,0-1.51,1.04,4.781,4.781,0,0,0-.986,1.65,6.954,6.954,0,0,0,0,4.4,4.819,4.819,0,0,0,.986,1.646,4.253,4.253,0,0,0,1.481,1.031,4.712,4.712,0,0,0,1.844.359,6.833,6.833,0,0,0,1.118-.083,4.416,4.416,0,0,0,.9-.247,4.054,4.054,0,0,0,.767-.405,5.708,5.708,0,0,0,.7-.561.424.424,0,0,1,.083-.054A.182.182,0,0,1,669.91,145.543Z"/>
          <path class="cls-2" d="M680.7,147.507h-.726a.544.544,0,0,1-.235-.045.466.466,0,0,1-.177-.17l-3.747-4.736a1.1,1.1,0,0,0-.136-.157.53.53,0,0,0-.157-.1.767.767,0,0,0-.206-.054,2.083,2.083,0,0,0-.293-.017h-1.527v5.281h-.85V135.83h2.987a4.872,4.872,0,0,1,3.017.779,2.725,2.725,0,0,1,1,2.29,3.146,3.146,0,0,1-.231,1.222,2.875,2.875,0,0,1-.665.97,3.469,3.469,0,0,1-1.048.681,4.979,4.979,0,0,1-1.382.354,1.361,1.361,0,0,1,.355.33Zm-5.182-5.909a4.8,4.8,0,0,0,1.39-.186,2.972,2.972,0,0,0,1.04-.532,2.3,2.3,0,0,0,.648-.833,2.612,2.612,0,0,0,.223-1.1A2.15,2.15,0,0,0,678,137.1a3.949,3.949,0,0,0-2.373-.6h-2.137v5.1Z"/>
          <path class="cls-2" d="M691.539,147.507h-.652a.286.286,0,0,1-.189-.062.417.417,0,0,1-.116-.161l-1.37-3.392h-5.735l-1.37,3.392a.351.351,0,0,1-.116.156.3.3,0,0,1-.2.066h-.644l4.778-11.677h.833Zm-2.583-4.242-2.377-5.9a5.883,5.883,0,0,1-.239-.692q-.05.2-.107.375c-.039.118-.08.227-.124.326l-2.377,5.892Z"/>
          <path class="cls-2" d="M694.328,136.531v4.91h5.323v.7h-5.323v5.364h-.85V135.83h7v.7Z"/>
          <path class="cls-2" d="M710.387,136.548h-4.1v10.959h-.85V136.548H701.31v-.718h9.078Z"/>
          <path class="cls-2" d="M647.13,155.926a1.04,1.04,0,0,1-.26.3.58.58,0,0,1-.351.1.854.854,0,0,1-.408-.12l-.5-.269a4.2,4.2,0,0,0-.631-.268,2.519,2.519,0,0,0-.809-.12,1.736,1.736,0,0,0-1.168.335,1.136,1.136,0,0,0-.384.9.833.833,0,0,0,.231.6,1.987,1.987,0,0,0,.606.412,6.441,6.441,0,0,0,.858.318q.483.144.986.321a8.876,8.876,0,0,1,.986.417,3.285,3.285,0,0,1,.858.61,2.854,2.854,0,0,1,.607.9,3.215,3.215,0,0,1,.231,1.283,4.175,4.175,0,0,1-.289,1.56,3.648,3.648,0,0,1-.837,1.267,3.885,3.885,0,0,1-1.354.85,5.046,5.046,0,0,1-1.828.31,5.845,5.845,0,0,1-1.143-.115,6.778,6.778,0,0,1-1.126-.326,6.581,6.581,0,0,1-1.023-.5,4.366,4.366,0,0,1-.833-.644l.825-1.3a.83.83,0,0,1,.26-.235.675.675,0,0,1,.351-.095.937.937,0,0,1,.5.156q.252.157.57.347a4.581,4.581,0,0,0,.73.347,2.741,2.741,0,0,0,.974.156,1.854,1.854,0,0,0,1.18-.334,1.272,1.272,0,0,0,.421-1.061,1,1,0,0,0-.231-.685,1.785,1.785,0,0,0-.606-.437,5.727,5.727,0,0,0-.854-.306q-.479-.132-.982-.293a7.144,7.144,0,0,1-.982-.4,3.114,3.114,0,0,1-.854-.619,2.894,2.894,0,0,1-.606-.957,3.8,3.8,0,0,1-.231-1.415,3.371,3.371,0,0,1,.272-1.321,3.416,3.416,0,0,1,.8-1.146,3.934,3.934,0,0,1,1.3-.8,4.778,4.778,0,0,1,1.758-.3,6.612,6.612,0,0,1,1.077.087,5.69,5.69,0,0,1,.994.256,5.563,5.563,0,0,1,.879.4,4.07,4.07,0,0,1,.73.532Z"/>
          <path class="cls-2" d="M652.437,155.629v2.806h3.78V160.5h-3.78v2.863h4.935v2.146h-7.741V153.483h7.741v2.146Z"/>
          <path class="cls-2" d="M668.925,165.507H666.4a1.071,1.071,0,0,1-1.007-.528l-2-3.49a.812.812,0,0,0-.809-.43h-.71v4.448h-2.789V153.483H663a8.036,8.036,0,0,1,2.224.268,4.174,4.174,0,0,1,1.5.747,2.833,2.833,0,0,1,.846,1.131,3.748,3.748,0,0,1,.264,1.419,3.816,3.816,0,0,1-.157,1.106,3.4,3.4,0,0,1-.462.961,3.5,3.5,0,0,1-.755.788,4.016,4.016,0,0,1-1.036.569,2.56,2.56,0,0,1,.512.351,2.454,2.454,0,0,1,.429.5ZM663,159.136a2.862,2.862,0,0,0,.97-.145,1.751,1.751,0,0,0,.656-.4,1.524,1.524,0,0,0,.372-.6,2.294,2.294,0,0,0,.116-.738,1.55,1.55,0,0,0-.516-1.238,2.4,2.4,0,0,0-1.6-.445h-1.123v3.564Z"/>
          <path class="cls-2" d="M680.3,153.483l-4.819,12.023h-2.525l-4.819-12.023h2.245a.948.948,0,0,1,.586.169,1.065,1.065,0,0,1,.338.434l2.327,6.437q.166.42.322.92t.3,1.044q.116-.545.26-1.044t.31-.92l2.311-6.437a1,1,0,0,1,.326-.417.908.908,0,0,1,.582-.186Z"/>
          <path class="cls-2" d="M684.051,165.507h-2.806V153.483h2.806Z"/>
          <path class="cls-2" d="M694.482,162.4a.567.567,0,0,1,.2.037.548.548,0,0,1,.19.128l1.106,1.164a4.6,4.6,0,0,1-1.82,1.432,6.377,6.377,0,0,1-2.587.482,6.166,6.166,0,0,1-2.455-.466,5.3,5.3,0,0,1-1.84-1.288,5.662,5.662,0,0,1-1.16-1.947,7.191,7.191,0,0,1-.4-2.446,6.762,6.762,0,0,1,.438-2.472,5.728,5.728,0,0,1,1.229-1.943,5.537,5.537,0,0,1,1.9-1.271,6.35,6.35,0,0,1,2.435-.454,6.471,6.471,0,0,1,1.275.12,6.229,6.229,0,0,1,1.118.33,5.13,5.13,0,0,1,.958.508,5.014,5.014,0,0,1,.775.644l-.94,1.263a1.185,1.185,0,0,1-.215.21.557.557,0,0,1-.347.095.619.619,0,0,1-.28-.065,3.009,3.009,0,0,1-.281-.161l-.326-.206a2.445,2.445,0,0,0-.42-.206,3.465,3.465,0,0,0-.57-.161,3.887,3.887,0,0,0-.763-.066,3.085,3.085,0,0,0-1.267.256,2.768,2.768,0,0,0-.99.747,3.449,3.449,0,0,0-.644,1.205,5.371,5.371,0,0,0-.227,1.63,4.942,4.942,0,0,0,.251,1.642,3.6,3.6,0,0,0,.685,1.209,2.91,2.91,0,0,0,1.011.747,3.018,3.018,0,0,0,1.238.256,6,6,0,0,0,.693-.037,3.14,3.14,0,0,0,.586-.124,2.408,2.408,0,0,0,.512-.23,3.255,3.255,0,0,0,.487-.367.973.973,0,0,1,.214-.137A.574.574,0,0,1,694.482,162.4Z"/>
          <path class="cls-2" d="M700,155.629v2.806h3.78V160.5H700v2.863h4.935v2.146H697.2V153.483h7.741v2.146Z"/>
        </g>
        <g>
          <path class="cls-2" d="M837.451,147.507H836.8a.286.286,0,0,1-.189-.062.417.417,0,0,1-.116-.161l-1.37-3.392h-5.735l-1.37,3.392a.351.351,0,0,1-.116.156.3.3,0,0,1-.2.066h-.644l4.778-11.677h.833Zm-2.583-4.242-2.377-5.9a5.883,5.883,0,0,1-.239-.692q-.05.2-.107.375c-.039.118-.08.227-.124.326l-2.377,5.892Z"/>
          <path class="cls-2" d="M840.24,147.507h-.85V135.83h.85Z"/>
          <path class="cls-2" d="M851.743,147.507h-.726a.544.544,0,0,1-.235-.045.466.466,0,0,1-.177-.17l-3.747-4.736a1.1,1.1,0,0,0-.136-.157.53.53,0,0,0-.157-.1.767.767,0,0,0-.206-.054,2.083,2.083,0,0,0-.293-.017h-1.527v5.281h-.85V135.83h2.987a4.872,4.872,0,0,1,3.017.779,2.725,2.725,0,0,1,1,2.29,3.146,3.146,0,0,1-.231,1.222,2.875,2.875,0,0,1-.665.97,3.469,3.469,0,0,1-1.048.681,4.979,4.979,0,0,1-1.382.354,1.361,1.361,0,0,1,.355.33Zm-5.182-5.909a4.8,4.8,0,0,0,1.39-.186,2.972,2.972,0,0,0,1.04-.532,2.3,2.3,0,0,0,.648-.833,2.612,2.612,0,0,0,.223-1.1,2.15,2.15,0,0,0-.813-1.849,3.949,3.949,0,0,0-2.373-.6h-2.137v5.1Z"/>
          <path class="cls-2" d="M862.075,145.543a.193.193,0,0,1,.14.058l.33.354a5.548,5.548,0,0,1-.788.7,4.758,4.758,0,0,1-.933.528,5.463,5.463,0,0,1-1.114.339,6.954,6.954,0,0,1-1.333.119,5.683,5.683,0,0,1-2.224-.425,4.966,4.966,0,0,1-1.737-1.205,5.438,5.438,0,0,1-1.126-1.886,7.176,7.176,0,0,1-.4-2.459,6.847,6.847,0,0,1,.413-2.426,5.563,5.563,0,0,1,1.156-1.886,5.126,5.126,0,0,1,1.782-1.222,5.9,5.9,0,0,1,2.294-.434,5.646,5.646,0,0,1,2.121.372,5.71,5.71,0,0,1,1.684,1.048l-.256.371a.23.23,0,0,1-.207.1.665.665,0,0,1-.322-.182,4.252,4.252,0,0,0-.619-.4,5.293,5.293,0,0,0-.986-.4,4.848,4.848,0,0,0-1.416-.182,5.018,5.018,0,0,0-1.935.363,4.268,4.268,0,0,0-1.51,1.04,4.781,4.781,0,0,0-.986,1.65,6.954,6.954,0,0,0,0,4.4,4.819,4.819,0,0,0,.986,1.646,4.253,4.253,0,0,0,1.481,1.031,4.712,4.712,0,0,0,1.844.359,6.833,6.833,0,0,0,1.118-.083,4.416,4.416,0,0,0,.9-.247,4.054,4.054,0,0,0,.767-.405,5.708,5.708,0,0,0,.7-.561.424.424,0,0,1,.083-.054A.182.182,0,0,1,862.075,145.543Z"/>
          <path class="cls-2" d="M872.861,147.507h-.726a.544.544,0,0,1-.235-.045.466.466,0,0,1-.177-.17l-3.747-4.736a1.1,1.1,0,0,0-.136-.157.53.53,0,0,0-.157-.1.767.767,0,0,0-.206-.054,2.083,2.083,0,0,0-.293-.017h-1.527v5.281h-.85V135.83h2.987a4.872,4.872,0,0,1,3.017.779,2.725,2.725,0,0,1,1,2.29,3.146,3.146,0,0,1-.231,1.222,2.875,2.875,0,0,1-.665.97,3.469,3.469,0,0,1-1.048.681,4.979,4.979,0,0,1-1.382.354,1.361,1.361,0,0,1,.355.33Zm-5.182-5.909a4.8,4.8,0,0,0,1.39-.186,2.972,2.972,0,0,0,1.04-.532,2.3,2.3,0,0,0,.648-.833,2.612,2.612,0,0,0,.223-1.1,2.15,2.15,0,0,0-.813-1.849,3.949,3.949,0,0,0-2.373-.6h-2.137v5.1Z"/>
          <path class="cls-2" d="M883.7,147.507h-.652a.286.286,0,0,1-.189-.062.417.417,0,0,1-.116-.161l-1.37-3.392h-5.735l-1.37,3.392a.351.351,0,0,1-.116.156.3.3,0,0,1-.2.066h-.644l4.778-11.677h.833Zm-2.583-4.242-2.377-5.9a5.883,5.883,0,0,1-.239-.692q-.05.2-.107.375c-.039.118-.08.227-.124.326l-2.377,5.892Z"/>
          <path class="cls-2" d="M886.493,136.531v4.91h5.323v.7h-5.323v5.364h-.85V135.83h7v.7Z"/>
          <path class="cls-2" d="M902.552,136.548h-4.1v10.959h-.85V136.548h-4.126v-.718h9.078Z"/>
          <path class="cls-2" d="M834.138,155.694h-3.383v9.813h-2.79v-9.812h-3.383v-2.211h9.556Z"/>
          <path class="cls-2" d="M845.386,165.507H842.86a1.071,1.071,0,0,1-1.007-.528l-2-3.49a.812.812,0,0,0-.809-.43h-.71v4.448h-2.789V153.483h3.912a8.036,8.036,0,0,1,2.224.268,4.174,4.174,0,0,1,1.5.747,2.833,2.833,0,0,1,.846,1.131,3.748,3.748,0,0,1,.264,1.419,3.816,3.816,0,0,1-.157,1.106,3.4,3.4,0,0,1-.462.961,3.5,3.5,0,0,1-.755.788,4.016,4.016,0,0,1-1.036.569,2.56,2.56,0,0,1,.512.351,2.454,2.454,0,0,1,.429.5Zm-5.925-6.371a2.862,2.862,0,0,0,.97-.145,1.751,1.751,0,0,0,.656-.4,1.524,1.524,0,0,0,.372-.6,2.294,2.294,0,0,0,.116-.738,1.55,1.55,0,0,0-.516-1.238,2.4,2.4,0,0,0-1.6-.445h-1.123v3.564Z"/>
          <path class="cls-2" d="M857.186,165.507h-2.162a.947.947,0,0,1-.586-.169,1.083,1.083,0,0,1-.338-.434l-.709-2.1h-4.572l-.71,2.1a1,1,0,0,1-.326.417.908.908,0,0,1-.582.186h-2.178l4.654-12.023h2.855Zm-4.431-4.6-1.114-3.293q-.124-.313-.264-.738t-.28-.92q-.124.5-.264.933t-.264.742l-1.106,3.276Z"/>
          <path class="cls-2" d="M860.941,165.507h-2.806V153.483h2.806Z"/>
          <path class="cls-2" d="M873.765,153.483v12.023h-1.453a1.256,1.256,0,0,1-.541-.1,1.326,1.326,0,0,1-.433-.358l-5.669-7.172q.033.322.045.623t.012.565v6.445h-2.459V153.483h1.469a2.248,2.248,0,0,1,.306.017.769.769,0,0,1,.223.062.756.756,0,0,1,.19.128,2.12,2.12,0,0,1,.206.223l5.719,7.221c-.027-.23-.046-.455-.058-.672s-.017-.423-.017-.615v-6.362Z"/>
          <path class="cls-2" d="M878.9,165.507h-2.806V153.483H878.9Z"/>
          <path class="cls-2" d="M891.722,153.483v12.023H890.27a1.256,1.256,0,0,1-.541-.1,1.326,1.326,0,0,1-.433-.358l-5.669-7.172q.033.322.045.623t.012.565v6.445h-2.459V153.483h1.469a2.248,2.248,0,0,1,.306.017.769.769,0,0,1,.223.062.756.756,0,0,1,.19.128,2.12,2.12,0,0,1,.206.223l5.719,7.221c-.027-.23-.046-.455-.058-.672s-.017-.423-.017-.615v-6.362Z"/>
          <path class="cls-2" d="M899.826,159.276H904.1v5.075a6.333,6.333,0,0,1-1.968.982,7.749,7.749,0,0,1-2.183.3,7.508,7.508,0,0,1-2.7-.466,6.215,6.215,0,0,1-2.083-1.288,5.642,5.642,0,0,1-1.337-1.947,6.278,6.278,0,0,1-.471-2.446,6.664,6.664,0,0,1,.446-2.472,5.559,5.559,0,0,1,1.275-1.943,5.781,5.781,0,0,1,2.005-1.271,7.247,7.247,0,0,1,2.628-.454,7.7,7.7,0,0,1,1.411.124,6.951,6.951,0,0,1,1.217.339,5.568,5.568,0,0,1,1.019.512,5.419,5.419,0,0,1,.825.644l-.809,1.229a.777.777,0,0,1-.491.354.864.864,0,0,1-.647-.148q-.33-.2-.623-.343a3.878,3.878,0,0,0-.6-.234,4,4,0,0,0-.644-.133,6.353,6.353,0,0,0-.759-.041,3.475,3.475,0,0,0-1.411.276,3.029,3.029,0,0,0-1.069.78,3.536,3.536,0,0,0-.681,1.209,4.866,4.866,0,0,0-.239,1.572,5.052,5.052,0,0,0,.264,1.7,3.513,3.513,0,0,0,.747,1.255,3.194,3.194,0,0,0,1.155.779,3.974,3.974,0,0,0,1.49.269,3.912,3.912,0,0,0,.912-.1,5.1,5.1,0,0,0,.8-.265v-1.823h-1.188a.576.576,0,0,1-.413-.141.467.467,0,0,1-.148-.354Z"/>
        </g>
        <path class="cls-2" d="M864.572,32.115a38.13,38.13,0,1,1-38.13,38.13,38.13,38.13,0,0,1,38.13-38.13m0-2a40.13,40.13,0,1,0,40.13,40.13,40.176,40.176,0,0,0-40.13-40.13Z"/>
        <path class="cls-2" d="M672.407,32.115a38.13,38.13,0,1,1-38.13,38.13,38.13,38.13,0,0,1,38.13-38.13m0-2a40.13,40.13,0,1,0,40.13,40.13,40.176,40.176,0,0,0-40.13-40.13Z"/>
        <g>
          <path class="cls-2" d="M481.114,32.115a38.13,38.13,0,1,1-38.13,38.13,38.131,38.131,0,0,1,38.13-38.13m0-2a40.13,40.13,0,1,0,40.13,40.13,40.176,40.176,0,0,0-40.13-40.13Z"/>
          <g id="_8teFVm" data-name="8teFVm">
            <g>
              <path class="cls-2" d="M501.78,53.711a9.885,9.885,0,0,1-3.213,5.106c-1.814,1.727-3.566,3.521-5.3,5.325a1.359,1.359,0,0,0-.3,1.071c.779,3.352,1.612,6.692,2.45,10.117.248-.174.449-.323.658-.461a2.6,2.6,0,0,1,3.343,3.953c-.671.708-1.414,1.352-2.048,2.09a1.436,1.436,0,0,0-.289,1.077c.359,1.716.8,3.417,1.208,5.122a5.772,5.772,0,0,1-.493,4.071c-.523,1.042-1.034,2.09-1.606,3.249-.194-.3-.342-.493-.458-.707-2.793-5.179-5.5-10.407-8.42-15.514A33.246,33.246,0,0,0,483.54,73.7c-1.233,1.275-2.257,2.457-3.411,3.5-1.349,1.213-2.782,2.341-4.242,3.42a.891.891,0,0,0-.441,1.1c.412,1.605.754,3.229,1.2,4.824a4.85,4.85,0,0,1-1.436,5.231c-.516.483-.962,1.041-1.551,1.687l-4.82-8.939-2.272,2.726-1.314-1.4,2.661-2.277-8.865-4.783c1.482-1.53,2.7-3.355,5.021-3.286a21.941,21.941,0,0,1,3.911.741c1.047.227,2.209.913,3.088.642.821-.253,1.295-1.535,1.993-2.3,1.4-1.536,2.846-3.037,4.293-4.533a13.356,13.356,0,0,1,1.159-.969,19.4,19.4,0,0,0-7.2-5.642c-4.167-2.135-8.26-4.413-12.382-6.634-.305-.165-.6-.357-1.04-.626a27.216,27.216,0,0,1,4.184-1.906,9.218,9.218,0,0,1,3.626-.054c1.568.227,3.092.748,4.651,1.06a1.591,1.591,0,0,0,1.157-.327c.653-.531,1.208-1.181,1.811-1.775a2.62,2.62,0,0,1,3.752-.336,2.592,2.592,0,0,1,.185,3.743c-.057.075-.1.163-.209.358,1.407.357,2.766.707,4.129,1.045,1.828.454,3.67.859,5.484,1.363a1.714,1.714,0,0,0,1.957-.54c1.605-1.7,3.334-3.293,4.939-5a9.885,9.885,0,0,1,5.095-3.228h3.126ZM471.334,81.038a18.5,18.5,0,0,0,7.47-4.656q5.963-5.98,11.936-11.952c2.577-2.578,5.168-5.142,7.738-7.726a4.98,4.98,0,0,0,1.675-4.516,5,5,0,0,0-4.339,1.562q-10.166,10.135-20.295,20.308A17.352,17.352,0,0,0,471.334,81.038ZM496.044,91.1a4.4,4.4,0,0,0,.72-3.793q-2.106-8.659-4.223-17.316c-.325-1.329-.668-2.654-1-3.981l-6.964,6.938c.668.615,1.4,1.211,2.041,1.9a12.954,12.954,0,0,1,1.936,2.407C491.066,81.8,493.505,86.389,496.044,91.1Zm-34.77-34.772c2.794,1.507,5.5,2.979,8.221,4.429,3.579,1.907,7.322,3.572,9.938,6.87.036.046.112.061-.045-.02l6.872-6.786a.255.255,0,0,0-.1-.061c-7.1-1.743-14.2-3.5-21.308-5.209A4.175,4.175,0,0,0,461.274,56.327Zm8.619,26.934,4.051,7.506a2.859,2.859,0,0,0,1.409-2.817c-.377-2.059-.937-4.084-1.445-6.227Zm.7-4.819c-2.1-.489-4.163-1.054-6.258-1.422a2.718,2.718,0,0,0-2.725,1.418c2.31,1.243,4.574,2.449,6.824,3.679.65.355.914-.053,1.09-.522C469.9,80.6,470.215,79.583,470.6,78.442Zm2.055-22.574a10.551,10.551,0,0,1,1.421.381,1.551,1.551,0,0,0,2.058-.679,1.047,1.047,0,0,0-.066-1.556.991.991,0,0,0-1.475.066Zm23.866,23.856c.611-.674,1.062-1.21,1.554-1.7.473-.475.856-1.021.345-1.593a1.383,1.383,0,0,0-1.238-.368c-.579.3-1.346.653-1.214,1.538A21.943,21.943,0,0,0,496.518,79.724Z"/>
              <path class="cls-2" d="M461.759,71.838l-.865-.82,6.925-6.854.865.826Z"/>
              <path class="cls-2" d="M481.4,91.508l-.828-1.031,6.86-6.826.8,1.034Z"/>
              <path class="cls-2" d="M464.588,62.186l.818.924-4.065,3.919-.828-.911Z"/>
              <path class="cls-2" d="M489.447,87.009l.719.839-4.025,3.906-.823-.771Z"/>
            </g>
          </g>
        </g>
        <path class="cls-2" d="M287.557,32.115a38.13,38.13,0,1,1-38.13,38.13,38.131,38.131,0,0,1,38.13-38.13m0-2a40.13,40.13,0,1,0,40.13,40.13,40.176,40.176,0,0,0-40.13-40.13Z"/>
      </g>
      <g>
        <circle class="cls-7" cx="149.949" cy="155.937" r="13.7"/>
        <path class="cls-5" d="M147.506,164.029a.788.788,0,0,1-.567-.235.8.8,0,0,1-.251-.583.815.815,0,0,1,.243-.58l6.335-6.333-6.329-6.323a.825.825,0,0,1,0-1.158.814.814,0,0,1,.578-.241.786.786,0,0,1,.569.235l6.908,6.9a.812.812,0,0,1,.19.857.849.849,0,0,1-.192.318l-6.907,6.9A.792.792,0,0,1,147.506,164.029Z"/>
      </g>
    </g>
    <g>
      <path class="cls-2" d="M698.066,75.515H651.033a.88.88,0,0,1-.88-.88V52.326a.88.88,0,0,1,.88-.88h47.033a.88.88,0,0,1,.88.88V74.635A.88.88,0,0,1,698.066,75.515Zm-46.153-1.76h45.272V53.206H651.913Z"/>
      <path class="cls-2" d="M686.048,96.018a.873.873,0,0,1-.36-.077L642.761,76.727a.88.88,0,0,1-.443-1.163l5.645-12.613a.88.88,0,0,1,1.607.72l-5.286,11.81,41.322,18.495,7.49-16.734a.88.88,0,1,1,1.607.72L686.852,95.5A.881.881,0,0,1,686.048,96.018Z"/>
      <g>
        <path class="cls-2" d="M662.616,70.627a.88.88,0,0,1-.88-.88V57.214a.88.88,0,1,1,1.76,0V69.747A.88.88,0,0,1,662.616,70.627Z"/>
        <path class="cls-2" d="M659.8,71.349a.88.88,0,0,1-.218-1.733l2.819-.722a.88.88,0,1,1,.437,1.705l-2.819.722A.9.9,0,0,1,659.8,71.349Z"/>
        <path class="cls-2" d="M654.864,67.754a.88.88,0,0,1-.218-1.733l7.751-1.986a.88.88,0,1,1,.437,1.705l-7.751,1.986A.9.9,0,0,1,654.864,67.754Z"/>
        <path class="cls-2" d="M670.367,67.754a.9.9,0,0,1-.219-.028L662.4,65.74a.88.88,0,1,1,.437-1.705l7.751,1.986a.88.88,0,0,1-.218,1.733Z"/>
        <path class="cls-2" d="M665.434,71.349a.9.9,0,0,1-.219-.028L662.4,70.6a.88.88,0,1,1,.437-1.705l2.818.722a.88.88,0,0,1-.218,1.733Z"/>
      </g>
      <path class="cls-2" d="M692.648,58.094h-18.1a.88.88,0,0,1,0-1.76h18.1a.88.88,0,0,1,0,1.76Z"/>
      <path class="cls-2" d="M689.677,61.86H674.549a.88.88,0,0,1,0-1.76h15.128a.88.88,0,0,1,0,1.76Z"/>
      <path class="cls-2" d="M692.648,65.624h-18.1a.88.88,0,0,1,0-1.76h18.1a.88.88,0,0,1,0,1.76Z"/>
      <g>
        <path class="cls-2" d="M680.427,88.616a8.019,8.019,0,0,1-7.363-11.179l.092-.2a.88.88,0,0,1,1.6.738l-.07.158a6.253,6.253,0,1,0,11.432-.134.88.88,0,0,1,1.6-.733,8.023,8.023,0,0,1-7.288,11.355Z"/>
        <path class="cls-2" d="M677.615,88.034a.88.88,0,0,1-.809-1.227l4.1-9.553a.88.88,0,1,1,1.618.694l-4.1,9.553A.881.881,0,0,1,677.615,88.034Z"/>
        <path class="cls-2" d="M678.662,88.245a3.508,3.508,0,0,1-1.395-.282c-2.631-1.131-3.305-5.251-1.533-9.38a13.1,13.1,0,0,1,.722-1.428.88.88,0,1,1,1.517.892,11.244,11.244,0,0,0-.622,1.232c-1.336,3.114-1.057,6.35.611,7.066s4.2-1.312,5.542-4.426a9.554,9.554,0,0,0,.827-4.261.878.878,0,0,1,.821-.935.889.889,0,0,1,.935.821,11.338,11.338,0,0,1-.965,5.07C683.65,86.043,681.02,88.245,678.662,88.245Z"/>
        <path class="cls-2" d="M686.984,84.292a.889.889,0,0,1-.347-.071l-13.111-5.628a.88.88,0,0,1,.694-1.618L687.331,82.6a.88.88,0,0,1-.347,1.689Z"/>
      </g>
    </g>
    <g>
      <path class="cls-2" d="M296.817,97.4a.932.932,0,0,1-.932-.932V82.641h-6.5c-1.774,0-4.205-.87-5.716-5.013l-6.995-20.387a.932.932,0,0,1,.474-1.141l3.018-1.462c3.485-1.2,6.291.395,7.609,4.235l2.039,5.851a.932.932,0,1,1-1.759.613l-2.04-5.854c-1-2.9-2.724-3.954-5.14-3.124l-2.171,1.057,6.722,19.591c.91,2.5,2.245,3.771,3.959,3.771h7.429a.932.932,0,0,1,.932.932V95.519l2.341-.033,2.785-13.869V80.234a4.587,4.587,0,0,0-4.582-4.582h-5.979a.93.93,0,0,1-.88-.625l-1.777-5.1a.932.932,0,0,1,1.759-.614l1.56,4.475h5.317a6.453,6.453,0,0,1,6.445,6.445V81.71a.931.931,0,0,1-.018.183l-2.951,14.7a.931.931,0,0,1-.9.749l-4.038.058Z"/>
      <path class="cls-2" d="M302.386,68.363a.932.932,0,0,1-.932-.932,1.47,1.47,0,0,0-1.469-1.469H286.619a.932.932,0,0,1,0-1.864h13.366a3.336,3.336,0,0,1,3.333,3.332A.932.932,0,0,1,302.386,68.363Z"/>
      <path class="cls-2" d="M299.543,70.544H278.179a.932.932,0,0,1,0-1.864h21.365a.932.932,0,1,1,0,1.864Z"/>
      <path class="cls-2" d="M279.149,53.346a5.125,5.125,0,1,1,5.125-5.125A5.131,5.131,0,0,1,279.149,53.346Zm0-8.387a3.261,3.261,0,1,0,3.261,3.261A3.265,3.265,0,0,0,279.149,44.959Z"/>
      <path class="cls-2" d="M283.343,85.592a.931.931,0,0,1-.881-.629L270.427,49.89a.931.931,0,1,1,1.762-.605l12.035,35.073a.932.932,0,0,1-.579,1.184A.919.919,0,0,1,283.343,85.592Z"/>
      <path class="cls-2" d="M294.331,85.592H283.343a.932.932,0,1,1,0-1.864h10.988a.932.932,0,0,1,0,1.864Z"/>
      <path class="cls-2" d="M278.723,97.4a.932.932,0,0,1-.867-1.272l4.619-11.8a.932.932,0,1,1,1.735.68l-4.619,11.8A.931.931,0,0,1,278.723,97.4Z"/>
      <path class="cls-2" d="M294.331,97.4H276.471a.932.932,0,1,1,0-1.864h17.859a.932.932,0,0,1,0,1.864Z"/>
    </g>
    <g>
      <path class="cls-2" d="M845.4,92.692h-2.13a.737.737,0,0,1-.737-.737V61.83a.737.737,0,0,1,.737-.737h2.13a.737.737,0,0,1,.737.737V91.955A.737.737,0,0,1,845.4,92.692Zm-1.393-1.475h.656V62.567h-.656Z"/>
      <path class="cls-2" d="M845.4,62.567a.737.737,0,0,1-.521-1.259l9.6-9.6a.737.737,0,0,1,1.043,1.043l-9.6,9.6A.734.734,0,0,1,845.4,62.567Z"/>
      <path class="cls-2" d="M855,72.162a.734.734,0,0,1-.521-.216l-9.6-9.594a.737.737,0,0,1,1.043-1.043l9.6,9.594A.737.737,0,0,1,855,72.162Z"/>
      <path class="cls-2" d="M857.692,72.162H855a.738.738,0,0,1-.737-.737V52.235A.737.737,0,0,1,855,51.5h2.693a.737.737,0,0,1,.737.737v19.19A.737.737,0,0,1,857.692,72.162Zm-1.956-1.475h1.218V52.972h-1.218Z"/>
      <path class="cls-2" d="M857.692,72.162a.736.736,0,0,1-.737-.737V52.235a.736.736,0,0,1,.911-.716L886.21,58.4a.736.736,0,0,1,.563.716v5.427a.736.736,0,0,1-.563.716l-28.344,6.881A.72.72,0,0,1,857.692,72.162Zm.737-18.989V70.487l26.87-6.523V59.7Z"/>
      <path class="cls-2" d="M863.59,70.451a.737.737,0,0,1-.737-.737V57.548a.737.737,0,1,1,1.475,0V69.714A.737.737,0,0,1,863.59,70.451Z"/>
      <path class="cls-2" d="M868.3,69.587a.737.737,0,0,1-.737-.737V58.413a.737.737,0,0,1,1.475,0V68.85A.737.737,0,0,1,868.3,69.587Z"/>
      <path class="cls-2" d="M873.011,68.443a.737.737,0,0,1-.737-.737V59.558a.737.737,0,0,1,1.475,0v8.148A.738.738,0,0,1,873.011,68.443Z"/>
      <path class="cls-2" d="M877.721,67.3a.737.737,0,0,1-.737-.737V60.7a.737.737,0,0,1,1.475,0v5.861A.737.737,0,0,1,877.721,67.3Z"/>
    </g>
  </g>
</svg>
